mtllib EAGLE1.mtl
o WHEEL.DAT
v -0.076255 0.041519 0.245587
v -0.076255 0.099945 0.245465
v -0.171745 0.099945 0.245465
v -0.171745 0.041519 0.245587
v -0.076255 0.141174 0.204068
v -0.171745 0.141174 0.204068
v -0.076255 0.141052 0.145642
v -0.171745 0.141052 0.145642
v -0.076255 0.099655 0.104413
v -0.171745 0.099655 0.104413
v -0.076255 0.041229 0.104535
v -0.171745 0.041229 0.104535
v -0.076255 -0.000000 0.145932
v -0.171745 -0.000000 0.145932
v -0.076255 0.000122 0.204358
v -0.171745 0.000122 0.204358
vn -0.0000 -0.2508 0.9680
vn -0.0000 0.5072 0.8618
vn -0.0000 0.2548 0.9670
vn -0.0000 -0.5036 0.8639
vn -0.0000 0.9680 0.2508
vn -0.0000 0.8639 0.5036
vn -0.0000 0.8618 -0.5072
vn -0.0000 0.9670 -0.2548
vn -0.0000 0.2508 -0.9680
vn -0.0000 0.5036 -0.8639
vn -0.0000 -0.5072 -0.8618
vn -0.0000 -0.2548 -0.9670
vn -0.0000 -0.9680 -0.2508
vn -0.0000 -0.8639 -0.5036
vn -0.0000 -0.8618 0.5072
vn -0.0000 -0.9670 0.2548
vn -1.0000 -0.0000 -0.0000
vn 1.0000 -0.0000 -0.0000
vt 0.000000 0.705901
vt 0.000865 0.292045
vt 0.294099 0.000000
vt 0.707955 0.000865
vt 1.000000 0.294099
vt 0.999135 0.707955
vt 0.705901 1.000000
vt 0.292045 0.999135
s 1
usemtl BGLWEEL
f 1/1/1 2/2/2 3/2/3
f 1/1/1 3/2/3 4/1/4
f 2/2/2 5/3/5 6/3/6
f 2/2/2 6/3/6 3/2/3
f 5/3/5 7/4/7 8/4/8
f 5/3/5 8/4/8 6/3/6
f 7/4/7 9/5/9 10/5/10
f 7/4/7 10/5/10 8/4/8
f 9/5/9 11/6/11 12/6/12
f 9/5/9 12/6/12 10/5/10
f 11/6/11 13/7/13 14/7/14
f 11/6/11 14/7/14 12/6/12
f 13/7/13 15/8/15 16/8/16
f 13/7/13 16/8/16 14/7/14
f 15/8/15 1/1/1 4/1/4
f 15/8/15 4/1/4 16/8/16
f 14/7/17 10/5/17 12/6/17
f 14/7/17 8/4/17 10/5/17
f 14/7/17 6/3/17 8/4/17
f 14/7/17 3/2/17 6/3/17
f 14/7/17 4/1/17 3/2/17
f 14/7/17 16/8/17 4/1/17
f 2/2/18 7/4/18 5/3/18
f 2/2/18 9/5/18 7/4/18
f 2/2/18 11/6/18 9/5/18
f 2/2/18 13/7/18 11/6/18
f 2/2/18 15/8/18 13/7/18
f 2/2/18 1/1/18 15/8/18
o EAGLE.DAT
v -0.000077 0.271283 -0.483706
v -0.000077 0.109587 -0.483706
v -0.000077 0.109587 0.206906
v -0.000077 0.271283 0.206906
v -0.155905 0.168029 0.144116
v -0.146140 0.119143 0.089364
v -0.159530 0.104151 0.095882
v -0.166199 0.152385 0.144116
v -0.155905 0.168029 0.207309
v -0.166199 0.152386 0.207309
v -0.132697 0.088075 0.330156
v -0.153438 0.025687 0.253694
v -0.138302 0.025636 0.309710
v -0.159832 0.051938 0.253694
v -0.135140 0.049859 0.326658
v -0.159832 0.100346 0.253694
v -0.179014 0.153737 -0.272530
v -0.180751 0.105927 -0.224811
v -0.168815 0.119143 -0.215428
v -0.167192 0.174266 -0.272385
v -0.179013 0.153592 -0.337365
v -0.167192 0.174121 -0.337220
v -0.179013 0.106026 -0.385420
v -0.167192 0.117171 -0.412085
v -0.180751 0.044837 -0.224811
v -0.157734 0.028851 -0.224811
v -0.159585 0.044836 -0.113103
v -0.159530 0.044836 0.095882
v -0.149491 0.028851 -0.113104
v -0.149059 0.028851 0.095882
v -0.159585 0.103825 -0.108107
v -0.147716 0.119143 -0.105781
v -0.179013 0.035486 -0.385488
v -0.155971 0.124199 -0.460696
v -0.155971 0.060037 -0.460368
v 0.148087 0.119143 -0.106763
v 0.146079 0.119143 0.089364
v 0.160471 0.103825 -0.108106
v 0.159469 0.104151 0.095882
v 0.159469 0.044836 0.095882
v 0.160471 0.044836 -0.113103
v 0.150377 0.028851 -0.113104
v 0.180686 0.105927 -0.224811
v 0.180687 0.044837 -0.224811
v 0.157670 0.028851 -0.224811
v 0.155844 0.168029 0.144116
v 0.166139 0.152385 0.144116
v 0.155844 0.168029 0.207308
v 0.166138 0.152386 0.207308
v 0.132636 0.088075 0.330156
v 0.159771 0.051938 0.253695
v 0.159771 0.100346 0.253695
v 0.135079 0.049859 0.326658
v 0.138243 0.025636 0.309710
v 0.168750 0.119143 -0.215428
v 0.178950 0.153737 -0.272530
v 0.167129 0.174266 -0.272385
v 0.178949 0.153592 -0.337364
v 0.167128 0.174121 -0.337219
v 0.178950 0.106026 -0.385421
v 0.167128 0.117171 -0.412086
v 0.178949 0.035486 -0.385489
v 0.155907 0.060037 -0.460369
v 0.155907 0.124199 -0.460697
v 0.148998 0.028851 0.095882
v 0.153380 0.025687 0.253695
v -0.060360 0.049859 0.352358
v -0.060360 0.088075 0.350026
v 0.060299 0.088075 0.350026
v 0.060323 0.049859 0.352358
v 0.060348 0.025636 0.329580
v -0.060360 0.025636 0.329580
v -0.098132 0.145737 -0.460692
v -0.025636 0.152067 -0.462622
v -0.115698 0.124199 -0.460697
v -0.115698 0.124109 -0.484094
v 0.115634 0.124199 -0.460697
v 0.025572 0.152067 -0.462622
v 0.098067 0.145737 -0.460692
v 0.115634 0.124109 -0.484094
v -0.115698 0.071168 -0.483766
v 0.115634 0.071168 -0.483766
v -0.070076 0.032494 0.261410
v -0.070076 0.109934 0.261410
v -0.070076 0.148873 0.205028
v 0.069872 0.148873 0.205028
v 0.069872 0.109934 0.261410
v 0.069872 0.032494 0.261410
v 0.069872 0.032494 0.080130
v -0.070076 0.032494 0.080130
v -0.070076 0.148873 0.096059
v 0.069872 0.148873 0.096059
v -0.070076 0.038591 -0.388926
v -0.070076 0.150545 -0.232425
v -0.070076 0.150545 -0.388926
v 0.069872 0.033281 -0.205875
v 0.069872 0.038591 -0.388926
v 0.069872 0.150545 -0.232425
v -0.070076 0.033281 -0.205875
v 0.069872 0.150545 -0.388926
v -0.082651 0.150556 -0.149530
v -0.063350 0.146483 -0.050564
v -0.053183 0.183817 -0.102007
v -0.015840 0.145360 -0.020992
v -0.016825 0.183817 -0.102007
v -0.063824 0.190909 -0.144345
v 0.053120 0.183817 -0.102007
v 0.063286 0.146483 -0.050564
v 0.082587 0.150556 -0.149530
v 0.015776 0.145360 -0.020992
v 0.016762 0.183817 -0.102007
v 0.063760 0.190909 -0.144345
v -0.117321 0.119143 -0.193668
v -0.136315 0.119143 -0.197795
v -0.110869 0.119143 0.089364
v -0.078600 0.155463 0.130102
v -0.078600 0.168029 0.144116
v -0.078600 0.168029 0.207308
v -0.060360 0.157636 0.144116
v -0.060360 0.152386 0.207309
v 0.060299 0.152386 0.207308
v 0.060300 0.157636 0.144116
v -0.074464 0.198002 -0.186683
v -0.051824 0.182976 -0.226678
v -0.085881 0.183532 -0.215124
v -0.099986 0.134849 -0.197162
v -0.116498 0.183972 -0.227804
v -0.097504 0.183972 -0.224426
v -0.123957 0.215749 -0.272380
v -0.148225 0.186509 -0.272385
v -0.098133 0.223339 -0.272381
v -0.123957 0.215604 -0.337215
v -0.148225 0.186364 -0.337220
v -0.134692 0.117171 -0.412086
v -0.052453 0.222343 -0.274631
v -0.052452 0.222198 -0.339465
v -0.025637 0.202135 -0.274310
v -0.025008 0.162768 -0.226357
v -0.025636 0.201990 -0.339144
v -0.052894 0.205990 -0.140476
v -0.044160 0.195625 -0.100029
v -0.025848 0.195625 -0.100029
v -0.000077 0.198002 -0.186683
v -0.017114 0.205990 -0.140476
v 0.117258 0.119143 -0.193668
v 0.110808 0.119143 0.089364
v 0.136252 0.119143 -0.197795
v 0.078539 0.155463 0.130102
v 0.078539 0.168029 0.144116
v 0.078539 0.168029 0.207307
v 0.085817 0.183532 -0.215125
v 0.051760 0.182976 -0.226678
v 0.074401 0.198002 -0.186683
v 0.099922 0.134849 -0.197162
v 0.123893 0.215749 -0.272381
v 0.097440 0.183972 -0.224427
v 0.116433 0.183972 -0.227803
v 0.148161 0.186509 -0.272385
v 0.123893 0.215604 -0.337215
v 0.098069 0.223339 -0.272380
v 0.148160 0.186364 -0.337219
v 0.134629 0.117171 -0.412086
v 0.052389 0.222343 -0.274631
v 0.052388 0.222198 -0.339466
v 0.025573 0.202135 -0.274311
v 0.024944 0.162768 -0.226356
v 0.025573 0.201990 -0.339144
v 0.025784 0.195625 -0.100029
v 0.044097 0.195625 -0.100029
v 0.052831 0.205990 -0.140476
v 0.017050 0.205990 -0.140476
v 0.016761 0.183817 -0.102007
vn -1.0000 -0.0000 -0.0000
vn -0.4354 0.8372 -0.3309
vn -0.4665 0.8609 -0.2030
vn -0.9131 0.3686 -0.1742
vn -0.7877 0.5183 -0.3330
vn -0.4593 0.8610 0.2183
vn -0.8584 0.4292 0.2810
vn -0.6143 0.4409 0.6544
vn -0.9398 -0.2289 0.2537
vn -0.7520 -0.3682 0.5468
vn -0.9481 -0.1096 0.2984
vn -0.6571 -0.1968 0.7277
vn -0.9371 0.0788 0.3400
vn -0.8364 0.4716 0.2793
vn -0.9153 0.3191 0.2459
vn -0.6097 0.6936 0.3836
vn -0.6590 0.6849 0.3110
vn -0.8339 0.4821 -0.2689
vn -0.7006 0.6680 -0.2508
vn -0.8855 0.2696 -0.3785
vn -0.8085 0.3575 -0.4675
vn -0.8828 -0.4406 0.1630
vn -0.5991 -0.8006 -0.0031
vn -0.9692 -0.2335 0.0788
vn -0.9594 -0.2821 0.0029
vn -0.8420 -0.5385 0.0322
vn -0.8365 -0.5480 0.0017
vn -0.9384 0.3324 0.0944
vn -0.4244 0.9046 0.0396
vn -0.9518 0.0234 -0.3060
vn -0.7828 0.0156 -0.6221
vn -0.8221 -0.0031 -0.5693
vn 0.4120 0.9103 0.0403
vn 0.4518 0.8205 -0.3504
vn 0.9369 0.3364 0.0952
vn 0.9143 0.3625 -0.1807
vn 0.9582 -0.2860 0.0095
vn 0.9282 -0.3669 0.0614
vn 0.8443 -0.5352 0.0249
vn 0.9097 0.3352 0.2452
vn 0.8848 -0.4398 0.1542
vn 0.6624 -0.7432 0.0939
vn 0.4370 0.8366 -0.3303
vn 0.7877 0.5184 -0.3330
vn 0.4682 0.8559 0.2197
vn 0.8584 0.4292 0.2810
vn 0.6257 0.4300 0.6508
vn 0.9481 -0.1095 0.2984
vn 0.9371 0.0788 0.3400
vn 0.6560 -0.1970 0.7286
vn 0.7659 -0.3673 0.5278
vn 0.6144 0.6910 0.3807
vn 0.8364 0.4716 0.2793
vn 0.6723 0.6718 0.3111
vn 0.8339 0.4821 -0.2689
vn 0.6917 0.6836 -0.2329
vn 0.8854 0.2696 -0.3785
vn 0.8075 0.3615 -0.4661
vn 0.9518 0.0234 -0.3060
vn 0.8221 -0.0031 -0.5693
vn 0.7830 0.0154 -0.6219
vn 0.8365 -0.5479 0.0055
vn 0.9398 -0.2288 0.2538
vn -0.1648 -0.3193 0.9332
vn -0.1170 0.5153 0.8490
vn 0.0770 0.5385 0.8391
vn 0.1455 -0.3823 0.9125
vn 0.0961 -0.6973 0.7103
vn -0.0945 -0.6820 0.7252
vn -0.3438 0.5116 -0.7875
vn -0.0148 0.5105 -0.8597
vn -0.6446 0.4938 -0.5836
vn -0.0000 0.9993 0.0369
vn -0.0000 1.0000 -0.0038
vn -0.0000 0.9939 0.1100
vn 0.6361 0.5159 -0.5738
vn 0.0135 0.5130 -0.8583
vn 0.3677 0.4818 -0.7954
vn -0.2598 -0.0057 -0.9656
vn -0.2777 -0.0060 -0.9606
vn 0.2777 -0.0060 -0.9606
vn 0.2598 -0.0057 -0.9656
vn -0.0000 -0.0000 -1.0000
vn -0.0000 -0.3660 -0.9306
vn -0.0000 -0.0000 1.0000
vn -0.0000 -0.3942 0.9190
vn -0.0000 -0.9179 -0.3968
vn -0.0000 -0.9289 0.3704
vn -0.0000 -0.3791 -0.9254
vn -0.0000 -0.0010 1.0000
vn -0.0000 -0.3855 0.9227
vn -0.0000 -0.9244 0.3813
vn -0.0000 -0.9244 0.3814
vn -0.0000 -0.9228 -0.3852
vn 1.0000 -0.0000 -0.0000
vn -0.8698 0.4332 0.2361
vn -0.0434 0.7036 0.7093
vn -0.5921 0.7991 0.1042
vn -0.1028 0.8794 0.4648
vn -0.0000 0.9034 0.4288
vn -0.8822 0.3751 0.2846
vn 0.5870 0.7364 0.3362
vn 0.4745 0.7544 0.4537
vn 0.8698 0.4332 0.2361
vn 0.0339 0.8562 0.5155
vn 0.8823 0.3751 0.2845
vn -0.0330 -0.9994 0.0097
vn 0.0001 -1.0000 -0.0008
vn -0.0017 -1.0000 -0.0012
vn 0.0009 -0.9998 0.0198
vn -0.0001 -1.0000 -0.0008
vn 0.0140 -0.9994 0.0309
vn -0.0000 -0.9030 -0.4296
vn -0.0000 -0.9285 -0.3713
vn -0.0000 -0.9502 -0.3116
vn 0.0013 -1.0000 0.0045
vn -0.0000 -1.0000 -0.0000
vn -0.0011 -0.9966 0.0819
vn -0.0053 -1.0000 -0.0012
vn -0.1091 -0.9940 -0.0017
vn -0.0000 -0.9996 -0.0290
vn -0.1332 0.8149 0.5641
vn -0.1883 0.8972 0.3994
vn -0.0809 0.7762 -0.6253
vn 0.0993 0.7417 -0.6633
vn 0.2219 0.9160 -0.3343
vn 0.3083 0.9311 0.1950
vn 0.5383 0.8096 -0.2341
vn 0.6385 0.7445 0.1950
vn -0.0000 0.9681 0.2504
vn -0.0032 1.0000 -0.0045
vn 0.0253 0.9990 -0.0379
vn -0.5549 0.8270 -0.0902
vn -0.1948 0.7831 -0.5906
vn -0.6748 0.7320 -0.0944
vn -0.1374 0.9902 -0.0235
vn 0.0990 0.9940 -0.0456
vn 0.0199 0.9974 -0.0688
vn -0.6697 0.7425 0.0153
vn -0.7035 0.7107 0.0093
vn -0.8094 0.5770 0.1093
vn -0.3306 0.6231 0.7089
vn -0.2020 0.7119 0.6726
vn -0.5103 0.8018 0.3110
vn -0.6627 0.6826 0.3081
vn -0.1187 0.9444 0.3068
vn -0.4745 0.8415 -0.2583
vn -0.6232 0.7121 -0.3233
vn -0.5470 0.6587 -0.5167
vn -0.0000 0.9897 0.1431
vn -0.7801 0.6138 0.1210
vn -0.2653 0.8888 0.3736
vn -0.4155 0.4574 0.7862
vn 0.4696 0.6525 0.5948
vn -0.0301 0.9974 -0.0660
vn 0.3050 0.9039 0.2998
vn 0.1701 0.9550 -0.2432
vn 0.3188 0.8844 0.3408
vn 0.5137 0.6805 0.5226
vn 0.3776 0.9063 -0.1898
vn -0.4052 0.8900 0.2092
vn -0.4004 0.8631 0.3077
vn 0.2865 0.9114 0.2954
vn -0.0116 0.9207 -0.3901
vn 0.0467 0.9789 0.1987
vn -0.8362 0.4653 0.2903
vn -0.0000 -0.1652 0.9863
vn 0.7801 0.5445 0.3080
vn -0.7875 0.5365 0.3033
vn -0.0252 0.7828 -0.6218
vn 0.1348 0.8143 0.5645
vn 0.0175 0.9183 -0.3954
vn 0.1884 0.8972 0.3994
vn -0.0401 0.7437 -0.6673
vn -0.2219 0.9160 -0.3343
vn -0.2704 0.9340 0.2337
vn -0.5042 0.8436 -0.1850
vn -0.6385 0.7445 0.1950
vn 0.7805 0.6251 0.0063
vn -0.1069 0.8381 -0.5350
vn 0.4783 0.8764 -0.0561
vn -0.0990 0.9940 -0.0456
vn 0.2336 0.9689 -0.0813
vn 0.8088 0.5785 0.1060
vn 0.7274 0.6860 -0.0180
vn 0.6696 0.7425 0.0153
vn 0.5052 0.8049 0.3113
vn 0.1814 0.6921 0.6987
vn 0.3302 0.6308 0.7022
vn 0.6622 0.6821 0.3102
vn 0.4559 0.8535 -0.2524
vn 0.1171 0.9447 0.3062
vn 0.6721 0.6862 -0.2783
vn 0.5702 0.6283 -0.5292
vn 0.7927 0.5969 0.1236
vn 0.4155 0.4574 0.7862
vn 0.2653 0.8888 0.3736
vn -0.2915 0.7699 0.5677
vn -0.3050 0.9039 0.2998
vn -0.2059 0.9624 -0.1772
vn -0.3188 0.8844 0.3408
vn -0.2192 0.7555 0.6174
vn -0.3040 0.9427 -0.1372
vn 0.4004 0.8631 0.3077
vn 0.3836 0.8993 0.2099
vn -0.0380 0.9942 0.1010
vn 0.8370 0.4652 0.2881
vn -0.7801 0.5445 0.3080
vn 0.7875 0.5365 0.3033
vn -0.2458 0.6426 -0.7257
vn -0.0000 0.8664 0.4994
vt 0.000000 1.000000
vt 0.000000 0.000000
vt 1.000000 0.000000
vt 1.000000 1.000000
vt 0.764760 0.958037
vt 0.695528 0.629126
vt 0.703770 0.528258
vt 0.764760 0.852782
vt 0.844665 0.958037
vt 0.844665 0.852789
vt 1.000000 0.420097
vt 0.903317 0.000343
vt 0.974147 0.000000
vt 0.903317 0.176963
vt 0.995577 0.162975
vt 0.903317 0.502658
vt 0.237928 0.861879
vt 0.298267 0.540207
vt 0.310131 0.629126
vt 0.238112 1.000000
vt 0.155947 0.860903
vt 0.156130 0.999024
vt 0.095183 0.540873
vt 0.061467 0.615858
vt 0.298267 0.129187
vt 0.298267 0.021631
vt 0.439517 0.129180
vt 0.703770 0.129180
vt 0.439516 0.021631
vt 0.703770 0.021631
vt 0.445834 0.526065
vt 0.448776 0.629126
vt 0.095097 0.066272
vt 0.000000 0.663143
vt 0.000415 0.231454
vt 0.447535 0.629126
vt 0.695529 0.629126
vt 0.445836 0.526065
vt 0.703771 0.528258
vt 0.703771 0.129180
vt 0.439518 0.129180
vt 0.439517 0.021631
vt 0.298268 0.540207
vt 0.298268 0.129187
vt 0.298268 0.021631
vt 0.764760 0.958037
vt 0.764760 0.852782
vt 0.844664 0.958037
vt 0.844664 0.852789
vt 0.903318 0.176963
vt 0.903318 0.502658
vt 0.995577 0.162975
vt 0.974147 0.000000
vt 0.310132 0.629126
vt 0.237929 0.861879
vt 0.238113 1.000000
vt 0.155949 0.860903
vt 0.156133 0.999024
vt 0.095183 0.540873
vt 0.061467 0.615858
vt 0.095097 0.066272
vt 0.703771 0.021631
vt 0.903318 0.000343
vt 0.011434 0.387947
vt -0.000000 0.000000
vt 0.281842 0.387947
vt 0.281842 1.000000
vt 0.988559 0.387947
vt 0.979725 1.000000
vt 0.718151 1.000000
vt 0.718238 0.387947
vt 0.718328 0.000000
vt 0.281842 0.000000
vt 0.020268 1.000000
vt 0.814546 0.931218
vt 0.582096 1.000000
vt 0.870869 0.697186
vt 0.870869 0.696208
vt 1.000000 0.697186
vt 0.129131 0.697186
vt 0.417904 1.000000
vt 0.185457 0.931218
vt 0.000000 0.697186
vt 0.129131 0.696208
vt 0.870869 0.120950
vt 0.129131 0.120950
vt 0.999994 0.207192
vt 0.999994 0.589263
vt 1.000000 0.589263
vt 0.999994 0.000000
vt 1.000000 0.207192
vt -0.000000 0.024973
vt -0.000000 0.619295
vt -0.000000 0.151138
vt 0.706070 1.000000
vt 0.706063 1.000000
vt 0.305640 0.999992
vt 1.000000 0.617171
vt 1.000000 0.128005
vt 0.000006 0.053128
vt 0.000000 0.053128
vt 0.000423 0.617964
vt 0.000429 0.617964
vt 0.299512 0.998839
vt 0.299506 0.998839
vt 0.703015 1.000000
vt 1.000000 0.665412
vt 0.688978 1.000000
vt 0.087870 1.000000
vt 0.000000 0.045282
vt 0.854959 1.000000
vt 0.000000 1.000000
vt 1.000000 0.000000
vt -0.000000 0.114075
vt 0.769936 0.024655
vt 0.369719 0.844300
vt 0.040338 1.000000
vt 0.886270 0.024430
vt 0.928554 0.093301
vt 0.668532 0.000000
vt 0.331323 0.000000
vt 0.071429 0.093300
vt 0.113716 0.024430
vt 0.176876 1.000000
vt 0.064370 0.971234
vt 0.935630 0.971232
vt 0.823124 1.000000
vt 0.000000 0.879169
vt 1.000000 0.879168
vt 0.079819 0.544275
vt 0.083671 0.287329
vt 0.916321 0.287329
vt 0.059445 0.681618
vt 0.917528 0.544275
vt 0.940555 0.681618
vt 0.320000 0.930000
vt 0.668678 0.930000
vt 0.668678 0.675814
vt 0.320000 0.675814
vt 0.668678 0.930000
vt 0.320000 0.930000
vt 0.320000 0.675813
vt 0.668678 0.675813
vt 0.847455 0.330960
vt 0.903722 0.325882
vt 0.937496 0.439109
vt 0.932828 0.679244
vt 0.828341 0.679244
vt 0.732748 0.729374
vt 0.732748 0.746618
vt 0.961756 0.746618
vt 0.961756 0.824380
vt 0.732748 0.824379
vt 0.678714 0.746618
vt 0.678714 0.824380
vt 0.678714 1.000000
vt 0.321274 0.824379
vt 0.321271 0.746618
vt 0.893004 0.975549
vt 0.720495 0.339555
vt 0.653427 0.290340
vt 0.754317 0.304557
vt 0.687571 0.507056
vt 0.546828 0.543446
vt 0.796102 0.326661
vt 0.845016 0.288954
vt 0.788749 0.293111
vt 0.867113 0.234101
vt 0.939004 0.234095
vt 0.995192 0.234095
vt 0.790612 0.234100
vt 0.867113 0.154319
vt 0.939004 0.154313
vt 0.995192 0.154313
vt 0.898914 0.062187
vt 0.995192 0.062188
vt 0.842647 0.002369
vt 0.961951 0.002370
vt 1.000000 0.304183
vt 0.790609 0.002375
vt 0.744748 0.385274
vt 0.453169 0.543446
vt 0.655290 0.231331
vt 0.655287 0.151550
vt 0.575848 0.000000
vt 0.575851 0.231726
vt 0.573987 0.290735
vt 0.575848 0.151945
vt 0.656596 0.396415
vt 0.630723 0.446187
vt 0.576476 0.446187
vt 0.500132 0.339555
vt 0.550602 0.396415
vt 0.688975 0.391654
vt 0.657453 0.443753
vt 0.549746 0.443753
vt 0.152540 0.330960
vt 0.171647 0.679244
vt 0.061212 0.437901
vt 0.000000 0.304183
vt 0.096272 0.325882
vt 0.067160 0.679244
vt 0.267240 0.729374
vt 0.267240 0.746618
vt 0.038233 0.746618
vt 0.038233 0.824379
vt 0.267240 0.824378
vt 0.321274 1.000000
vt 0.106984 0.975549
vt 0.245680 0.304556
vt 0.346570 0.290340
vt 0.279499 0.339555
vt 0.312426 0.507056
vt 0.203896 0.326661
vt 0.132884 0.234100
vt 0.211248 0.293110
vt 0.154984 0.288955
vt 0.004802 0.234095
vt 0.060993 0.234095
vt 0.132884 0.154319
vt 0.209385 0.234101
vt 0.004805 0.154314
vt 0.060996 0.154314
vt 0.004805 0.062187
vt 0.101080 0.062187
vt 0.038046 0.002369
vt 0.157350 0.002369
vt 0.209391 0.002375
vt 0.255249 0.385274
vt 0.344707 0.231331
vt 0.344710 0.151549
vt 0.424149 0.000000
vt 0.424146 0.231725
vt 0.426010 0.290736
vt 0.424146 0.151945
vt 0.423521 0.446187
vt 0.369271 0.446187
vt 0.343398 0.396415
vt 0.449395 0.396415
vt 0.311022 0.391654
vt 0.450251 0.443753
vt 0.342541 0.443753
s 1
usemtl BGLBOT
f 89/83/88 90/84/89 91/85/90
f 91/85/91 92/86/92 50/87/93
f 93/88/94 94/89/95 95/90/96
f 80/91/93 96/92/92 93/88/91
f 93/88/91 96/92/92 92/86/92
f 92/86/92 91/85/91 93/88/91
f 94/89/95 91/85/90 90/84/89
f 91/85/90 94/89/95 93/88/94
f 92/86/97 97/93/98 51/11/50
f 92/86/97 51/11/50 50/87/49
f 79/10/78 98/94/99 96/92/100
f 80/91/79 79/10/78 96/92/100
f 96/92/100 98/94/99 97/93/98
f 97/93/98 92/86/97 96/92/100
usemtl BGLNOSE
f 31/72/30 29/73/28 83/74/82
f 83/74/82 84/75/83 31/72/30
f 69/76/68 66/77/65 85/78/84
f 86/79/85 87/80/86 70/11/69
f 86/79/85 85/78/84 84/75/83
f 83/74/82 88/81/87 87/80/86
f 69/76/68 85/78/84 86/79/85
f 86/79/85 70/11/69 69/76/68
f 86/79/85 84/75/83 83/74/82
f 29/73/28 88/81/87 83/74/82
f 83/74/82 87/80/86 86/79/85
f 84/75/83 27/82/26 31/72/30
usemtl BGLSIDE
f 21/13/20 22/14/21 23/15/22
f 23/15/22 24/16/23 21/13/20
f 25/17/24 21/13/20 24/16/23
f 24/16/23 26/18/25 25/17/24
f 27/19/26 25/17/24 26/18/25
f 28/20/27 29/21/28 30/22/29
f 31/23/30 27/19/26 32/24/31
f 27/19/26 26/18/25 32/24/31
f 33/25/32 34/26/33 35/27/34
f 35/27/34 36/28/35 33/25/32
f 37/29/36 33/25/32 36/28/35
f 36/28/35 38/30/37 37/29/36
f 39/31/38 37/29/36 38/30/37
f 38/30/37 40/32/39 39/31/38
f 41/33/40 42/34/41 43/35/42
f 44/36/43 45/37/44 46/38/45
f 47/39/46 48/40/47 35/27/34
f 47/39/46 44/36/43 23/15/22
f 41/33/40 47/39/46 34/26/33
f 47/39/46 43/35/42 44/36/43
f 47/39/46 23/15/22 22/14/21
f 34/26/33 47/39/46 35/27/34
f 49/41/48 39/31/38 40/32/39
f 50/42/49 51/43/50 49/41/48
f 40/32/39 50/42/49 49/41/48
f 43/35/42 42/34/41 45/37/44
f 47/39/46 41/33/40 43/35/42
f 45/37/44 44/36/43 43/35/42
f 47/39/46 22/14/21 48/40/47
f 31/23/30 32/24/31 30/22/29
f 30/22/29 29/21/28 31/23/30
f 52/44/51 53/45/52 54/46/53
f 55/47/54 56/48/55 54/46/53
f 57/49/56 56/48/55 58/50/57
f 59/51/58 54/46/53 60/52/59
f 58/50/57 61/53/60 57/49/56
f 57/49/56 60/52/59 54/46/53
f 53/45/52 55/47/54 54/46/53
f 55/47/54 53/45/52 62/54/61
f 62/54/61 63/55/62 55/47/54
f 63/55/62 62/54/61 64/56/63
f 64/56/63 65/57/64 63/55/62
f 65/57/64 64/56/63 66/19/65
f 67/58/66 68/59/67 69/60/68
f 69/60/68 70/61/69 67/58/66
f 68/59/67 65/57/64 66/19/65
f 71/62/70 54/46/53 59/51/58
f 71/62/70 59/51/58 72/63/71
f 72/63/71 73/64/72 71/62/70
f 73/64/72 72/63/71 74/65/73
f 74/65/73 75/66/74 73/64/72
f 75/66/74 74/65/73 76/67/75
f 76/67/75 77/68/76 75/66/74
f 78/69/77 79/43/78 80/42/79
f 78/69/77 80/42/79 77/68/76
f 77/68/76 76/67/75 78/69/77
f 81/70/80 58/50/57 56/48/55
f 57/49/56 61/53/60 60/52/59
f 56/48/55 57/49/56 54/46/53
f 71/62/70 52/44/51 54/46/53
f 67/58/66 70/61/69 82/71/81
f 68/59/67 66/19/65 69/60/68
usemtl BGLSPIKE
f 17/9/19 18/10/19 19/11/19
f 17/9/19 19/11/19 20/12/19
usemtl BGLTOP
f 129/152/140 130/153/141 48/154/47
f 48/154/47 22/155/21 131/156/142
f 132/157/143 131/156/142 22/155/21
f 133/158/144 21/159/20 25/160/24
f 25/160/24 134/161/145 133/158/144
f 132/157/143 133/158/144 135/162/146
f 135/162/146 133/158/144 134/161/145
f 134/161/145 136/163/147 135/162/146
f 84/164/83 137/165/148 136/163/148
f 137/165/148 135/162/149 136/163/148
f 137/165/148 138/166/150 135/162/149
f 84/164/83 25/160/24 27/167/26
f 134/161/145 25/160/24 84/164/83
f 136/163/147 134/161/145 84/164/83
f 132/157/143 22/155/21 21/159/20
f 21/159/20 133/158/144 132/157/143
f 139/168/151 140/169/152 141/170/153
f 132/157/154 135/162/149 118/171/155
f 120/172/156 135/162/149 138/166/150
f 129/152/157 131/156/158 142/173/159
f 143/174/160 144/175/161 145/176/162
f 146/177/163 36/178/35 130/153/141
f 145/176/162 147/179/164 148/180/165
f 149/181/166 38/182/37 146/177/163
f 150/183/167 40/184/39 149/181/166
f 91/185/91 50/186/93 150/183/168
f 48/154/47 131/156/142 129/152/140
f 36/178/35 35/187/34 130/153/141
f 144/175/161 147/179/164 145/176/162
f 38/182/37 36/178/35 146/177/163
f 40/184/39 38/182/37 149/181/166
f 148/180/165 89/188/88 150/183/167
f 50/186/93 40/184/168 150/183/168
f 143/174/160 130/153/141 129/152/140
f 129/152/140 144/175/161 143/174/160
f 146/177/163 130/153/141 143/174/160
f 143/174/160 145/176/162 146/177/163
f 148/180/165 149/181/166 146/177/163
f 146/177/163 145/176/162 148/180/165
f 149/181/166 148/180/165 150/183/167
f 89/188/88 91/185/90 150/183/167
f 131/156/158 132/157/154 117/189/169
f 118/171/155 117/189/169 132/157/154
f 142/173/159 117/189/169 141/170/153
f 141/170/170 144/175/161 142/173/171
f 141/170/170 140/169/172 144/175/161
f 117/189/169 139/168/151 141/170/153
f 142/173/159 131/156/158 117/189/169
f 144/175/161 129/152/140 142/173/171
f 120/172/156 138/166/150 126/190/173
f 118/171/155 135/162/149 120/172/156
f 151/191/174 147/179/164 144/175/161
f 144/175/161 140/169/172 151/191/174
f 152/192/175 148/180/165 147/179/164
f 147/179/164 151/191/174 152/192/175
f 90/193/89 89/188/88 148/180/165
f 148/180/165 152/192/175 90/193/89
f 153/194/176 151/191/174 140/169/172
f 140/169/172 154/195/177 153/194/176
f 155/196/178 152/192/175 151/191/174
f 151/191/174 153/194/176 155/196/178
f 152/192/175 155/196/178 90/193/89
f 156/197/179 157/198/180 158/199/181
f 159/200/182 139/168/151 160/201/183
f 139/168/151 122/202/184 156/197/179
f 157/198/185 119/203/185 121/204/185
f 121/204/185 158/199/185 157/198/185
f 158/199/181 121/204/186 160/201/183
f 156/197/179 158/199/181 160/201/183
f 119/203/187 157/198/180 156/197/179
f 160/201/183 139/168/151 156/197/179
f 139/168/151 159/200/182 140/169/152
f 154/195/188 140/169/152 159/200/182
f 161/205/189 162/206/190 52/207/51
f 71/208/70 163/209/191 52/207/51
f 53/210/52 162/206/190 164/211/192
f 164/211/192 165/212/193 62/213/61
f 62/213/61 165/212/193 64/214/63
f 165/212/193 166/215/194 64/214/63
f 85/216/84 66/217/65 64/214/63
f 138/166/195 165/212/193 164/211/192
f 166/215/194 165/212/193 138/166/195
f 138/166/195 137/165/196 166/215/194
f 64/214/63 166/215/194 85/216/84
f 85/216/84 166/215/194 137/165/196
f 85/216/84 137/165/148 84/164/83
f 62/213/61 53/210/52 164/211/192
f 167/218/197 168/219/198 169/220/199
f 124/221/200 138/166/150 164/211/201
f 170/222/202 162/206/203 161/205/204
f 171/223/205 172/224/206 173/225/207
f 163/209/191 73/226/72 174/227/208
f 175/228/209 176/229/210 171/223/205
f 174/227/208 75/230/74 177/231/211
f 177/231/211 77/232/76 178/233/212
f 178/233/168 80/234/93 93/235/91
f 162/206/190 53/210/52 52/207/51
f 163/209/191 71/208/70 73/226/72
f 171/223/205 176/229/210 172/224/206
f 174/227/208 73/226/72 75/230/74
f 177/231/211 75/230/74 77/232/76
f 178/233/168 77/232/168 80/234/93
f 161/205/189 163/209/191 173/225/207
f 173/225/207 172/224/206 161/205/189
f 173/225/207 163/209/191 174/227/208
f 174/227/208 171/223/205 173/225/207
f 174/227/208 177/231/211 175/228/209
f 175/228/209 171/223/205 174/227/208
f 177/231/211 178/233/212 95/236/96
f 95/236/96 175/228/209 177/231/211
f 178/233/212 93/235/94 95/236/96
f 125/237/213 164/211/201 162/206/203
f 164/211/201 125/237/213 124/221/200
f 167/218/197 125/237/213 170/222/202
f 170/222/214 172/224/206 167/218/215
f 172/224/206 168/219/216 167/218/215
f 167/218/197 169/220/199 125/237/213
f 125/237/213 162/206/203 170/222/202
f 170/222/214 161/205/189 172/224/206
f 126/190/173 138/166/150 124/221/200
f 172/224/206 176/229/210 179/238/217
f 179/238/217 168/219/216 172/224/206
f 176/229/210 175/228/209 180/239/218
f 180/239/218 179/238/217 176/229/210
f 175/228/209 95/236/96 94/240/95
f 94/240/95 180/239/218 175/228/209
f 168/219/216 179/238/217 181/241/219
f 181/241/219 182/242/220 168/219/216
f 179/238/217 180/239/218 183/243/221
f 183/243/221 181/241/219 179/238/217
f 94/240/95 183/243/221 180/239/218
f 184/244/180 185/245/222 186/246/223
f 187/247/224 169/220/199 159/200/182
f 128/248/225 125/237/213 169/220/199
f 188/249/185 123/250/185 185/245/185
f 185/245/185 184/244/185 188/249/185
f 187/247/224 188/249/226 184/244/180
f 187/247/224 184/244/180 186/246/223
f 186/246/223 185/245/222 123/250/227
f 186/246/223 169/220/199 187/247/224
f 168/219/198 159/200/182 169/220/199
f 159/200/182 168/219/198 182/242/228
f 160/201/183 187/247/224 159/200/182
f 160/201/183 121/204/229 188/249/229
f 160/201/183 188/249/229 187/247/224
f 182/242/220 181/241/219 153/194/176
f 182/242/220 153/194/176 154/195/177
f 181/241/219 183/243/221 155/196/178
f 181/241/219 155/196/178 153/194/176
f 183/243/221 94/240/95 90/193/89
f 183/243/221 90/193/89 155/196/178
f 154/195/188 159/200/182 182/242/228
f 52/207/51 163/209/191 161/205/189
f 48/154/47 130/153/141 35/187/34
f 139/168/151 117/189/169 122/202/184
f 119/203/187 156/197/179 122/202/184
f 186/246/223 128/248/225 169/220/199
f 123/250/227 128/248/225 186/246/223
usemtl BGLUNDER
f 29/126/125 28/127/126 88/128/127
f 87/129/128 82/130/129 70/131/130
f 82/130/129 87/129/128 88/128/127
f 88/128/127 28/127/126 82/130/129
f 98/132/131 79/133/132 51/134/132
f 51/134/132 97/135/131 98/132/131
f 79/133/132 78/136/133 51/134/132
f 51/134/132 78/136/133 49/137/133
f 58/138/134 81/139/135 46/140/135
f 61/141/136 45/142/137 42/143/138
f 58/138/134 46/140/135 45/142/137
f 45/142/137 61/141/136 58/138/134
f 106/144/135 105/145/135 104/146/135
f 106/144/135 104/146/135 99/147/135
f 109/148/139 113/149/139 112/150/139
f 109/148/139 112/150/139 115/151/139
usemtl DRSKY
f 117/122/114 118/123/115 119/124/116
f 119/124/116 118/123/115 120/11/117
f 119/124/116 120/11/117 121/124/118
f 122/125/119 117/122/114 119/124/116
f 123/124/120 124/123/121 125/122/122
f 126/11/123 124/123/121 123/124/120
f 127/124/118 126/11/123 123/124/120
f 123/124/120 125/122/122 128/125/124
f 121/124/118 120/11/117 126/11/123
f 126/11/123 127/124/118 121/124/118
usemtl MURKHW
f 30/95/101 32/96/102 68/97/102
f 28/98/101 67/99/101 82/11/101
f 46/100/103 23/101/104 44/102/103
f 56/102/103 55/101/104 81/100/103
f 46/100/103 81/100/103 23/101/104
f 23/101/104 81/100/103 55/101/104
f 32/96/102 26/103/105 68/97/102
f 68/97/102 26/103/105 65/104/105
f 65/104/105 26/103/105 24/105/106
f 65/104/105 24/105/106 63/105/106
f 55/101/104 63/105/106 24/105/106
f 55/101/104 24/105/106 23/101/104
f 28/98/101 68/97/102 67/99/101
f 28/98/101 30/95/101 68/97/102
f 42/11/101 34/106/107 59/106/107
f 61/11/101 42/11/101 59/106/107
f 34/106/107 42/11/101 41/107/101
f 60/107/101 61/11/101 59/106/107
f 49/108/108 78/109/108 76/110/109
f 49/108/108 76/110/109 39/111/109
f 39/111/109 76/110/109 74/112/110
f 39/111/109 74/112/110 37/113/111
f 37/113/111 74/112/110 72/114/112
f 72/114/112 33/114/112 37/113/111
f 34/106/107 33/114/112 72/114/112
f 34/106/107 72/114/112 59/106/107
f 99/11/19 100/115/19 101/116/19
f 102/116/113 103/115/113 104/11/113
f 104/11/113 105/73/113 102/116/113
f 106/73/19 101/116/19 107/117/19
f 101/116/19 106/73/19 99/11/19
f 105/73/113 108/117/113 102/116/113
f 109/118/19 110/119/19 111/120/19
f 112/121/113 113/118/113 114/119/113
f 110/119/19 109/118/19 115/121/19
f 113/118/113 116/120/113 114/119/113
o WHEEL.DAT.001
v 0.171745 0.041519 0.245587
v 0.171745 0.099945 0.245465
v 0.076255 0.099945 0.245465
v 0.076255 0.041519 0.245587
v 0.171745 0.141174 0.204068
v 0.076255 0.141174 0.204068
v 0.171745 0.141052 0.145642
v 0.076255 0.141052 0.145642
v 0.171745 0.099655 0.104413
v 0.076255 0.099655 0.104413
v 0.171745 0.041229 0.104535
v 0.076255 0.041229 0.104535
v 0.171745 -0.000000 0.145932
v 0.076255 -0.000000 0.145932
v 0.171745 0.000122 0.204358
v 0.076255 0.000122 0.204358
vn -0.0000 -0.2508 0.9680
vn -0.0000 0.5072 0.8618
vn -0.0000 0.2548 0.9670
vn -0.0000 -0.5036 0.8639
vn -0.0000 0.9680 0.2508
vn -0.0000 0.8639 0.5036
vn -0.0000 0.8618 -0.5072
vn -0.0000 0.9670 -0.2548
vn -0.0000 0.2508 -0.9680
vn -0.0000 0.5036 -0.8639
vn -0.0000 -0.5072 -0.8618
vn -0.0000 -0.2548 -0.9670
vn -0.0000 -0.9680 -0.2508
vn -0.0000 -0.8639 -0.5036
vn -0.0000 -0.8618 0.5072
vn -0.0000 -0.9670 0.2548
vn -1.0000 -0.0000 -0.0000
vn 1.0000 -0.0000 -0.0000
vt 0.000000 0.705901
vt 0.000865 0.292045
vt 0.294099 0.000000
vt 0.707955 0.000865
vt 1.000000 0.294099
vt 0.999135 0.707955
vt 0.705901 1.000000
vt 0.292045 0.999135
s 1
usemtl BGLWEEL
f 189/251/230 190/252/231 191/252/232
f 189/251/230 191/252/232 192/251/233
f 190/252/231 193/253/234 194/253/235
f 190/252/231 194/253/235 191/252/232
f 193/253/234 195/254/236 196/254/237
f 193/253/234 196/254/237 194/253/235
f 195/254/236 197/255/238 198/255/239
f 195/254/236 198/255/239 196/254/237
f 197/255/238 199/256/240 200/256/241
f 197/255/238 200/256/241 198/255/239
f 199/256/240 201/257/242 202/257/243
f 199/256/240 202/257/243 200/256/241
f 201/257/242 203/258/244 204/258/245
f 201/257/242 204/258/245 202/257/243
f 203/258/244 189/251/230 192/251/233
f 203/258/244 192/251/233 204/258/245
f 202/257/246 198/255/246 200/256/246
f 202/257/246 196/254/246 198/255/246
f 202/257/246 194/253/246 196/254/246
f 202/257/246 191/252/246 194/253/246
f 202/257/246 192/251/246 191/252/246
f 202/257/246 204/258/246 192/251/246
f 190/252/247 195/254/247 193/253/247
f 190/252/247 197/255/247 195/254/247
f 190/252/247 199/256/247 197/255/247
f 190/252/247 201/257/247 199/256/247
f 190/252/247 203/258/247 201/257/247
f 190/252/247 189/251/247 203/258/247
o WHEEL.DAT.002
v -0.083255 0.041519 -0.233413
v -0.083255 0.099945 -0.233535
v -0.178745 0.099945 -0.233535
v -0.178745 0.041519 -0.233413
v -0.083255 0.141174 -0.274932
v -0.178745 0.141174 -0.274932
v -0.083255 0.141052 -0.333358
v -0.178745 0.141052 -0.333358
v -0.083255 0.099655 -0.374587
v -0.178745 0.099655 -0.374587
v -0.083255 0.041229 -0.374465
v -0.178745 0.041229 -0.374465
v -0.083255 -0.000000 -0.333068
v -0.178745 -0.000000 -0.333068
v -0.083255 0.000122 -0.274642
v -0.178745 0.000122 -0.274642
vn -0.0000 -0.2508 0.9680
vn -0.0000 0.5072 0.8618
vn -0.0000 0.2548 0.9670
vn -0.0000 -0.5036 0.8639
vn -0.0000 0.9680 0.2508
vn -0.0000 0.8639 0.5036
vn -0.0000 0.8618 -0.5072
vn -0.0000 0.9670 -0.2548
vn -0.0000 0.2508 -0.9680
vn -0.0000 0.5036 -0.8639
vn -0.0000 -0.5072 -0.8618
vn -0.0000 -0.2548 -0.9670
vn -0.0000 -0.9680 -0.2508
vn -0.0000 -0.8639 -0.5036
vn -0.0000 -0.8618 0.5072
vn -0.0000 -0.9670 0.2548
vn -1.0000 -0.0000 -0.0000
vn 1.0000 -0.0000 -0.0000
vt 0.000000 0.705901
vt 0.000865 0.292045
vt 0.294099 0.000000
vt 0.707955 0.000865
vt 1.000000 0.294099
vt 0.999135 0.707955
vt 0.705901 1.000000
vt 0.292045 0.999135
s 1
usemtl BGLWEEL
f 205/259/248 206/260/249 207/260/250
f 205/259/248 207/260/250 208/259/251
f 206/260/249 209/261/252 210/261/253
f 206/260/249 210/261/253 207/260/250
f 209/261/252 211/262/254 212/262/255
f 209/261/252 212/262/255 210/261/253
f 211/262/254 213/263/256 214/263/257
f 211/262/254 214/263/257 212/262/255
f 213/263/256 215/264/258 216/264/259
f 213/263/256 216/264/259 214/263/257
f 215/264/258 217/265/260 218/265/261
f 215/264/258 218/265/261 216/264/259
f 217/265/260 219/266/262 220/266/263
f 217/265/260 220/266/263 218/265/261
f 219/266/262 205/259/248 208/259/251
f 219/266/262 208/259/251 220/266/263
f 218/265/264 214/263/264 216/264/264
f 218/265/264 212/262/264 214/263/264
f 218/265/264 210/261/264 212/262/264
f 218/265/264 207/260/264 210/261/264
f 218/265/264 208/259/264 207/260/264
f 218/265/264 220/266/264 208/259/264
f 206/260/265 211/262/265 209/261/265
f 206/260/265 213/263/265 211/262/265
f 206/260/265 215/264/265 213/263/265
f 206/260/265 217/265/265 215/264/265
f 206/260/265 219/266/265 217/265/265
f 206/260/265 205/259/265 219/266/265
o WHEEL.DAT.003
v 0.178745 0.041519 -0.233413
v 0.178745 0.099945 -0.233535
v 0.083255 0.099945 -0.233535
v 0.083255 0.041519 -0.233413
v 0.178745 0.141174 -0.274932
v 0.083255 0.141174 -0.274932
v 0.178745 0.141052 -0.333358
v 0.083255 0.141052 -0.333358
v 0.178745 0.099655 -0.374587
v 0.083255 0.099655 -0.374587
v 0.178745 0.041229 -0.374465
v 0.083255 0.041229 -0.374465
v 0.178745 -0.000000 -0.333068
v 0.083255 -0.000000 -0.333068
v 0.178745 0.000122 -0.274642
v 0.083255 0.000122 -0.274642
vn -0.0000 -0.2508 0.9680
vn -0.0000 0.5072 0.8618
vn -0.0000 0.2548 0.9670
vn -0.0000 -0.5036 0.8639
vn -0.0000 0.9680 0.2508
vn -0.0000 0.8639 0.5036
vn -0.0000 0.8618 -0.5072
vn -0.0000 0.9670 -0.2548
vn -0.0000 0.2508 -0.9680
vn -0.0000 0.5036 -0.8639
vn -0.0000 -0.5072 -0.8618
vn -0.0000 -0.2548 -0.9670
vn -0.0000 -0.9680 -0.2508
vn -0.0000 -0.8639 -0.5036
vn -0.0000 -0.8618 0.5072
vn -0.0000 -0.9670 0.2548
vn -1.0000 -0.0000 -0.0000
vn 1.0000 -0.0000 -0.0000
vt 0.000000 0.705901
vt 0.000865 0.292045
vt 0.294099 0.000000
vt 0.707955 0.000865
vt 1.000000 0.294099
vt 0.999135 0.707955
vt 0.705901 1.000000
vt 0.292045 0.999135
s 1
usemtl BGLWEEL
f 221/267/266 222/268/267 223/268/268
f 221/267/266 223/268/268 224/267/269
f 222/268/267 225/269/270 226/269/271
f 222/268/267 226/269/271 223/268/268
f 225/269/270 227/270/272 228/270/273
f 225/269/270 228/270/273 226/269/271
f 227/270/272 229/271/274 230/271/275
f 227/270/272 230/271/275 228/270/273
f 229/271/274 231/272/276 232/272/277
f 229/271/274 232/272/277 230/271/275
f 231/272/276 233/273/278 234/273/279
f 231/272/276 234/273/279 232/272/277
f 233/273/278 235/274/280 236/274/281
f 233/273/278 236/274/281 234/273/279
f 235/274/280 221/267/266 224/267/269
f 235/274/280 224/267/269 236/274/281
f 234/273/282 230/271/282 232/272/282
f 234/273/282 228/270/282 230/271/282
f 234/273/282 226/269/282 228/270/282
f 234/273/282 223/268/282 226/269/282
f 234/273/282 224/267/282 223/268/282
f 234/273/282 236/274/282 224/267/282
f 222/268/283 227/270/283 225/269/283
f 222/268/283 229/271/283 227/270/283
f 222/268/283 231/272/283 229/271/283
f 222/268/283 233/273/283 231/272/283
f 222/268/283 235/274/283 233/273/283
f 222/268/283 221/267/283 235/274/283
