mtllib EAGBLUE.mtl
o WHEEL.DAT
v 0.178745 0.041519 -0.233413
v 0.178745 0.099945 -0.233535
v 0.083255 0.099945 -0.233535
v 0.083255 0.041519 -0.233413
v 0.178745 0.141174 -0.274932
v 0.083255 0.141174 -0.274932
v 0.178745 0.141052 -0.333358
v 0.083255 0.141052 -0.333358
v 0.178745 0.099655 -0.374587
v 0.083255 0.099655 -0.374587
v 0.178745 0.041229 -0.374465
v 0.083255 0.041229 -0.374465
v 0.178745 -0.000000 -0.333068
v 0.083255 -0.000000 -0.333068
v 0.178745 0.000122 -0.274642
v 0.083255 0.000122 -0.274642
vn -0.0000 -0.2508 0.9680
vn -0.0000 0.5072 0.8618
vn -0.0000 0.2548 0.9670
vn -0.0000 -0.5036 0.8639
vn -0.0000 0.9680 0.2508
vn -0.0000 0.8639 0.5036
vn -0.0000 0.8618 -0.5072
vn -0.0000 0.9670 -0.2548
vn -0.0000 0.2508 -0.9680
vn -0.0000 0.5036 -0.8639
vn -0.0000 -0.5072 -0.8618
vn -0.0000 -0.2548 -0.9670
vn -0.0000 -0.9680 -0.2508
vn -0.0000 -0.8639 -0.5036
vn -0.0000 -0.8618 0.5072
vn -0.0000 -0.9670 0.2548
vn -1.0000 -0.0000 -0.0000
vn 1.0000 -0.0000 -0.0000
vt 0.000000 0.705901
vt 0.000865 0.292045
vt 0.294099 0.000000
vt 0.707955 0.000865
vt 1.000000 0.294099
vt 0.999135 0.707955
vt 0.705901 1.000000
vt 0.292045 0.999135
s 1
usemtl BGLWEEL
f 1/1/1 2/2/2 3/2/3
f 1/1/1 3/2/3 4/1/4
f 2/2/2 5/3/5 6/3/6
f 2/2/2 6/3/6 3/2/3
f 5/3/5 7/4/7 8/4/8
f 5/3/5 8/4/8 6/3/6
f 7/4/7 9/5/9 10/5/10
f 7/4/7 10/5/10 8/4/8
f 9/5/9 11/6/11 12/6/12
f 9/5/9 12/6/12 10/5/10
f 11/6/11 13/7/13 14/7/14
f 11/6/11 14/7/14 12/6/12
f 13/7/13 15/8/15 16/8/16
f 13/7/13 16/8/16 14/7/14
f 15/8/15 1/1/1 4/1/4
f 15/8/15 4/1/4 16/8/16
f 14/7/17 10/5/17 12/6/17
f 14/7/17 8/4/17 10/5/17
f 14/7/17 6/3/17 8/4/17
f 14/7/17 3/2/17 6/3/17
f 14/7/17 4/1/17 3/2/17
f 14/7/17 16/8/17 4/1/17
f 2/2/18 7/4/18 5/3/18
f 2/2/18 9/5/18 7/4/18
f 2/2/18 11/6/18 9/5/18
f 2/2/18 13/7/18 11/6/18
f 2/2/18 15/8/18 13/7/18
f 2/2/18 1/1/18 15/8/18
o EAGBLUE.DAT
v -0.159832 0.051938 0.253694
v -0.159832 0.100346 0.253694
v 0.159771 0.100346 0.253695
v -0.153438 0.025687 0.253694
v 0.159771 0.051938 0.253695
v 0.153380 0.025687 0.253695
v -0.149059 0.028851 0.095882
v -0.159530 0.104151 0.095882
v -0.159530 0.044836 0.095882
v 0.159469 0.044836 0.095882
v 0.159469 0.104151 0.095882
v 0.148998 0.028851 0.095882
v -0.166199 0.152386 0.207309
v 0.166138 0.152386 0.207308
v -0.166199 0.152385 0.144116
v 0.166139 0.152385 0.144116
v -0.157734 0.028851 -0.224811
v -0.180751 0.105927 -0.224811
v 0.180686 0.105927 -0.224811
v 0.157670 0.028851 -0.224811
v -0.180751 0.044837 -0.224811
v 0.180687 0.044837 -0.224811
v -0.179013 0.035486 -0.385488
v 0.178949 0.035486 -0.385489
v 0.178950 0.106026 -0.385421
v -0.179013 0.106026 -0.385420
v 0.178949 0.153592 -0.337364
v -0.179013 0.153592 -0.337365
v 0.178950 0.153737 -0.272530
v -0.179014 0.153737 -0.272530
v -0.070076 0.032494 0.261410
v -0.070076 0.109934 0.261410
v -0.070076 0.148873 0.205028
v 0.069872 0.148873 0.205028
v 0.069872 0.109934 0.261410
v 0.069872 0.032494 0.261410
v 0.069872 0.032494 0.080130
v -0.070076 0.032494 0.080130
v -0.070076 0.148873 0.096059
v 0.069872 0.148873 0.096059
v -0.070076 0.038591 -0.388926
v -0.070076 0.150545 -0.232425
v -0.070076 0.150545 -0.388926
v 0.069872 0.033281 -0.205875
v 0.069872 0.038591 -0.388926
v 0.069872 0.150545 -0.232425
v -0.070076 0.033281 -0.205875
v 0.069872 0.150545 -0.388926
v -0.082651 0.150556 -0.149530
v -0.063350 0.146483 -0.050564
v -0.053183 0.183817 -0.102007
v -0.015840 0.145360 -0.020992
v -0.016825 0.183817 -0.102007
v -0.063824 0.190909 -0.144345
v 0.053120 0.183817 -0.102007
v 0.063286 0.146483 -0.050564
v 0.082587 0.150556 -0.149530
v 0.015776 0.145360 -0.020992
v 0.016762 0.183817 -0.102007
v 0.063760 0.190909 -0.144345
v -0.098132 0.145737 -0.460692
v -0.025636 0.152067 -0.462622
v -0.115698 0.124199 -0.460697
v -0.115698 0.124109 -0.484094
v -0.155971 0.124199 -0.460696
v 0.115634 0.124199 -0.460697
v 0.025572 0.152067 -0.462622
v 0.098067 0.145737 -0.460692
v 0.155907 0.124199 -0.460697
v 0.115634 0.124109 -0.484094
v -0.115698 0.071168 -0.483766
v -0.155971 0.060037 -0.460368
v 0.155907 0.060037 -0.460369
v 0.115634 0.071168 -0.483766
v -0.135140 0.049859 0.326658
v -0.138302 0.025636 0.309710
v -0.060360 0.049859 0.352358
v -0.060360 0.088075 0.350026
v 0.135079 0.049859 0.326658
v 0.132636 0.088075 0.330156
v 0.060299 0.088075 0.350026
v 0.060323 0.049859 0.352358
v 0.060348 0.025636 0.329580
v 0.138243 0.025636 0.309710
v -0.060360 0.025636 0.329580
v -0.132697 0.088075 0.330156
v 0.150377 0.028851 -0.113104
v -0.149491 0.028851 -0.113104
v -0.155905 0.168029 0.144116
v -0.146140 0.119143 0.089364
v -0.155905 0.168029 0.207309
v -0.168815 0.119143 -0.215428
v -0.167192 0.174266 -0.272385
v -0.167192 0.174121 -0.337220
v -0.167192 0.117171 -0.412085
v -0.159585 0.044836 -0.113103
v -0.159585 0.103825 -0.108107
v -0.147716 0.119143 -0.105781
v 0.148087 0.119143 -0.106763
v 0.146079 0.119143 0.089364
v 0.160471 0.103825 -0.108106
v 0.160471 0.044836 -0.113103
v 0.155844 0.168029 0.144116
v 0.155844 0.168029 0.207308
v 0.168750 0.119143 -0.215428
v 0.167129 0.174266 -0.272385
v 0.167128 0.174121 -0.337219
v 0.167128 0.117171 -0.412086
v -0.000077 0.271283 -0.483706
v -0.000077 0.109587 -0.483706
v -0.000077 0.109587 0.206906
v -0.000077 0.271283 0.206906
v -0.117321 0.119143 -0.193668
v -0.136315 0.119143 -0.197795
v -0.110869 0.119143 0.089364
v -0.078600 0.155463 0.130102
v -0.078600 0.168029 0.144116
v -0.078600 0.168029 0.207308
v -0.060360 0.157636 0.144116
v -0.060360 0.152386 0.207309
v 0.060299 0.152386 0.207308
v 0.060300 0.157636 0.144116
v -0.074464 0.198002 -0.186683
v -0.051824 0.182976 -0.226678
v -0.085881 0.183532 -0.215124
v -0.099986 0.134849 -0.197162
v -0.116498 0.183972 -0.227804
v -0.097504 0.183972 -0.224426
v -0.123957 0.215749 -0.272380
v -0.148225 0.186509 -0.272385
v -0.098133 0.223339 -0.272381
v -0.123957 0.215604 -0.337215
v -0.148225 0.186364 -0.337220
v -0.134692 0.117171 -0.412086
v -0.052453 0.222343 -0.274631
v -0.052452 0.222198 -0.339465
v -0.025637 0.202135 -0.274310
v -0.025008 0.162768 -0.226357
v -0.025636 0.201990 -0.339144
v -0.052894 0.205990 -0.140476
v -0.044160 0.195625 -0.100029
v -0.025848 0.195625 -0.100029
v -0.000077 0.198002 -0.186683
v -0.017114 0.205990 -0.140476
v 0.117258 0.119143 -0.193668
v 0.110808 0.119143 0.089364
v 0.136252 0.119143 -0.197795
v 0.078539 0.155463 0.130102
v 0.078539 0.168029 0.144116
v 0.078539 0.168029 0.207307
v 0.085817 0.183532 -0.215125
v 0.051760 0.182976 -0.226678
v 0.074401 0.198002 -0.186683
v 0.099922 0.134849 -0.197162
v 0.123893 0.215749 -0.272381
v 0.097440 0.183972 -0.224427
v 0.116433 0.183972 -0.227803
v 0.148161 0.186509 -0.272385
v 0.123893 0.215604 -0.337215
v 0.098069 0.223339 -0.272380
v 0.148160 0.186364 -0.337219
v 0.134629 0.117171 -0.412086
v 0.052389 0.222343 -0.274631
v 0.052388 0.222198 -0.339466
v 0.025573 0.202135 -0.274311
v 0.024944 0.162768 -0.226356
v 0.025573 0.201990 -0.339144
v 0.025784 0.195625 -0.100029
v 0.044097 0.195625 -0.100029
v 0.052831 0.205990 -0.140476
v 0.017050 0.205990 -0.140476
v 0.016761 0.183817 -0.102007
vn -0.0000 -0.0000 -1.0000
vn -0.0000 -0.3660 -0.9306
vn -0.0000 -0.0000 1.0000
vn -0.0000 -0.3942 0.9190
vn -0.0000 -0.9179 -0.3968
vn -0.0000 -0.9289 0.3704
vn -0.0000 -0.3791 -0.9254
vn -0.0000 -0.0010 1.0000
vn -0.0000 -0.3855 0.9227
vn -0.0000 -0.9244 0.3813
vn -0.0000 -0.9244 0.3814
vn -0.0000 -0.9228 -0.3852
vn -1.0000 -0.0000 -0.0000
vn 1.0000 -0.0000 -0.0000
vn -0.8698 0.4332 0.2361
vn -0.0434 0.7036 0.7093
vn -0.5921 0.7991 0.1042
vn -0.1028 0.8794 0.4648
vn -0.0000 0.9034 0.4288
vn -0.8822 0.3751 0.2846
vn 0.5870 0.7364 0.3362
vn 0.4745 0.7544 0.4537
vn 0.8698 0.4332 0.2361
vn 0.0339 0.8562 0.5155
vn 0.8822 0.3751 0.2845
vn -0.3438 0.5116 -0.7875
vn -0.0148 0.5105 -0.8597
vn -0.6446 0.4938 -0.5836
vn -0.0000 0.9993 0.0369
vn -0.0000 1.0000 -0.0038
vn -0.0000 0.9939 0.1100
vn 0.6361 0.5159 -0.5738
vn 0.0135 0.5130 -0.8583
vn 0.3677 0.4818 -0.7954
vn -0.2598 -0.0057 -0.9656
vn -0.2777 -0.0060 -0.9606
vn -0.8221 -0.0031 -0.5693
vn -0.7828 0.0156 -0.6221
vn 0.8221 -0.0031 -0.5693
vn 0.2777 -0.0060 -0.9606
vn 0.2598 -0.0057 -0.9656
vn 0.7830 0.0154 -0.6219
vn -0.6592 -0.2207 0.7189
vn -0.7551 -0.3794 0.5347
vn -0.1648 -0.3193 0.9332
vn -0.1170 0.5153 0.8490
vn 0.6468 -0.2146 0.7319
vn 0.4668 0.3710 0.8028
vn 0.0770 0.5386 0.8390
vn 0.1455 -0.3823 0.9125
vn 0.0611 -0.6837 0.7272
vn 0.7552 -0.3792 0.5347
vn -0.0917 -0.6822 0.7254
vn -0.6071 0.2378 0.7582
vn 0.0002 -1.0000 -0.0010
vn 0.0001 -1.0000 -0.0008
vn -0.0000 -1.0000 -0.0007
vn -0.0002 -1.0000 -0.0010
vn -0.0001 -1.0000 -0.0008
vn -0.0000 -0.9030 -0.4296
vn -0.0000 -0.9285 -0.3713
vn -0.0000 -0.9502 -0.3116
vn -0.0000 -1.0000 -0.0000
vn -0.0000 -0.9996 -0.0290
vn -0.4354 0.8372 -0.3309
vn -0.4665 0.8609 -0.2030
vn -0.9131 0.3686 -0.1742
vn -0.7877 0.5183 -0.3330
vn -0.4593 0.8610 0.2183
vn -0.8584 0.4292 0.2810
vn -0.9398 -0.2289 0.2537
vn -0.9481 -0.1096 0.2984
vn -0.9371 0.0788 0.3400
vn -0.8364 0.4716 0.2793
vn -0.9153 0.3191 0.2459
vn -0.6097 0.6936 0.3836
vn -0.6590 0.6849 0.3110
vn -0.8339 0.4821 -0.2689
vn -0.7006 0.6680 -0.2508
vn -0.8855 0.2696 -0.3785
vn -0.8085 0.3575 -0.4675
vn -0.8828 -0.4406 0.1630
vn -0.7200 -0.6886 0.0866
vn -0.9692 -0.2335 0.0788
vn -0.9594 -0.2821 0.0029
vn -0.8424 -0.5385 0.0214
vn -0.8365 -0.5480 0.0017
vn -0.9384 0.3324 0.0944
vn -0.4244 0.9046 0.0396
vn -0.9518 0.0234 -0.3060
vn 0.4120 0.9103 0.0403
vn 0.4518 0.8205 -0.3504
vn 0.9369 0.3364 0.0952
vn 0.9143 0.3625 -0.1807
vn 0.9582 -0.2860 0.0095
vn 0.9282 -0.3669 0.0614
vn 0.8424 -0.5385 0.0216
vn 0.9097 0.3352 0.2452
vn 0.8848 -0.4398 0.1542
vn 0.7203 -0.6890 0.0805
vn 0.4370 0.8366 -0.3303
vn 0.7877 0.5184 -0.3330
vn 0.4682 0.8559 0.2197
vn 0.8584 0.4292 0.2810
vn 0.9481 -0.1095 0.2984
vn 0.9371 0.0788 0.3400
vn 0.6144 0.6910 0.3807
vn 0.8364 0.4716 0.2793
vn 0.6723 0.6718 0.3111
vn 0.8339 0.4821 -0.2689
vn 0.6917 0.6836 -0.2329
vn 0.8854 0.2696 -0.3785
vn 0.8075 0.3615 -0.4661
vn 0.9518 0.0234 -0.3060
vn 0.8365 -0.5479 0.0055
vn 0.9398 -0.2288 0.2538
vn -0.1332 0.8149 0.5641
vn -0.1883 0.8972 0.3994
vn -0.0887 0.8480 -0.5225
vn 0.0513 0.7374 -0.6736
vn 0.2219 0.9160 -0.3343
vn 0.3083 0.9311 0.1950
vn 0.4939 0.8372 -0.2347
vn 0.6385 0.7445 0.1950
vn -0.0000 0.9681 0.2504
vn -0.0128 0.9998 0.0120
vn 0.0032 0.9993 -0.0360
vn -0.5549 0.8270 -0.0902
vn -0.1948 0.7831 -0.5906
vn -0.6748 0.7320 -0.0944
vn -0.2018 0.9783 -0.0468
vn 0.0990 0.9940 -0.0456
vn 0.0199 0.9974 -0.0688
vn -0.6697 0.7425 0.0153
vn -0.6092 0.7905 0.0632
vn -0.8094 0.5770 0.1093
vn -0.3306 0.6231 0.7089
vn -0.2020 0.7119 0.6726
vn -0.5103 0.8018 0.3110
vn -0.6627 0.6826 0.3081
vn -0.1187 0.9444 0.3068
vn -0.4745 0.8415 -0.2583
vn -0.6232 0.7121 -0.3233
vn -0.5470 0.6587 -0.5167
vn -0.0000 0.9897 0.1431
vn -0.7801 0.6138 0.1210
vn -0.2653 0.8888 0.3736
vn -0.4155 0.4574 0.7862
vn 0.4696 0.6525 0.5948
vn -0.0301 0.9974 -0.0660
vn 0.3050 0.9039 0.2998
vn 0.1701 0.9550 -0.2432
vn 0.3188 0.8844 0.3408
vn 0.5137 0.6805 0.5226
vn 0.3776 0.9063 -0.1898
vn -0.4052 0.8900 0.2092
vn -0.4004 0.8631 0.3077
vn 0.2865 0.9114 0.2954
vn -0.0116 0.9207 -0.3901
vn 0.0754 0.9965 0.0360
vn -0.8362 0.4653 0.2903
vn -0.0000 -0.1652 0.9863
vn 0.3878 0.7998 0.4581
vn -0.7875 0.5365 0.3033
vn -0.0252 0.7828 -0.6218
vn 0.1348 0.8143 0.5645
vn 0.0175 0.9183 -0.3954
vn 0.1884 0.8972 0.3994
vn -0.0993 0.7417 -0.6633
vn -0.2219 0.9160 -0.3343
vn -0.2704 0.9340 0.2337
vn -0.5343 0.8242 -0.1879
vn -0.6385 0.7445 0.1950
vn 0.7805 0.6251 0.0063
vn -0.1069 0.8381 -0.5350
vn 0.4783 0.8764 -0.0561
vn -0.0990 0.9940 -0.0456
vn 0.1781 0.9740 -0.1401
vn 0.8088 0.5785 0.1060
vn 0.7274 0.6860 -0.0180
vn 0.6696 0.7425 0.0153
vn 0.5052 0.8049 0.3113
vn 0.1814 0.6921 0.6987
vn 0.3302 0.6308 0.7022
vn 0.6622 0.6821 0.3102
vn 0.4559 0.8535 -0.2524
vn 0.1171 0.9447 0.3062
vn 0.6721 0.6862 -0.2783
vn 0.5469 0.6101 -0.5733
vn 0.0422 0.9930 0.1100
vn 0.7927 0.5969 0.1236
vn 0.4155 0.4574 0.7862
vn 0.2653 0.8888 0.3736
vn -0.2915 0.7699 0.5677
vn -0.3050 0.9039 0.2998
vn -0.2059 0.9624 -0.1772
vn -0.3188 0.8844 0.3408
vn -0.2192 0.7555 0.6174
vn -0.3040 0.9427 -0.1372
vn 0.4004 0.8631 0.3077
vn 0.3836 0.8993 0.2099
vn -0.0597 0.9911 0.1188
vn 0.8370 0.4652 0.2881
vn -0.3878 0.7998 0.4581
vn 0.7875 0.5365 0.3033
vn -0.2458 0.6426 -0.7257
vt 0.999994 0.207192
vt 0.999994 0.589263
vt 1.000000 0.589263
vt 0.999994 0.000000
vt 1.000000 0.207192
vt 1.000000 0.000000
vt -0.000000 0.024973
vt -0.000000 0.619295
vt -0.000000 0.151138
vt 0.706070 1.000000
vt 0.706063 1.000000
vt 0.305640 0.999992
vt 1.000000 0.617171
vt 1.000000 0.128005
vt 0.000006 0.053128
vt 0.000000 0.053128
vt 0.000423 0.617964
vt 0.000429 0.617964
vt 0.299512 0.998839
vt 0.299506 0.998839
vt 0.703015 1.000000
vt 1.000000 0.665412
vt 0.688978 1.000000
vt -0.000000 0.000000
vt 0.087870 1.000000
vt 0.000000 0.045282
vt 0.854959 1.000000
vt 0.000000 1.000000
vt 1.000000 0.000000
vt -0.000000 0.114075
vt 0.769936 0.024655
vt 0.369719 0.844300
vt 0.040338 1.000000
vt 0.814546 0.931218
vt 0.582096 1.000000
vt 0.870869 0.697186
vt 0.870869 0.696208
vt 1.000000 0.697186
vt 0.129131 0.697186
vt 0.417904 1.000000
vt 0.185457 0.931218
vt 0.000000 0.697186
vt 0.129131 0.696208
vt 0.870869 0.120950
vt 0.000000 0.000000
vt 0.129131 0.120950
vt 0.011434 0.387947
vt 0.281842 0.387947
vt 0.281842 1.000000
vt 0.988559 0.387947
vt 0.979725 1.000000
vt 0.718151 1.000000
vt 0.718238 0.387947
vt 0.718328 0.000000
vt 0.281842 0.000000
vt 0.020268 1.000000
vt 0.886270 0.024430
vt 0.928554 0.093301
vt 0.668532 0.000000
vt 0.331323 0.000000
vt 0.071429 0.093300
vt 0.113716 0.024430
vt 0.176876 1.000000
vt 0.064370 0.971234
vt 0.935630 0.971232
vt 0.823124 1.000000
vt 0.000000 0.879169
vt 1.000000 0.879168
vt 0.079819 0.544275
vt 0.083671 0.287329
vt 0.916321 0.287329
vt 0.059445 0.681618
vt 0.917528 0.544275
vt 0.940555 0.681618
vt 0.320000 0.930000
vt 0.668678 0.930000
vt 0.668678 0.675814
vt 0.320000 0.675814
vt 0.668678 0.930000
vt 0.320000 0.930000
vt 0.320000 0.675813
vt 0.668678 0.675813
vt 0.764760 0.958037
vt 0.695528 0.629126
vt 0.703770 0.528258
vt 0.764760 0.852782
vt 0.844665 0.958037
vt 0.844665 0.852789
vt 1.000000 0.420097
vt 0.903317 0.000343
vt 0.974147 0.000000
vt 0.903317 0.176963
vt 0.995577 0.162975
vt 0.903317 0.502658
vt 0.237928 0.861879
vt 0.298267 0.540207
vt 0.310131 0.629126
vt 0.238112 1.000000
vt 0.155947 0.860903
vt 0.156130 0.999024
vt 0.095183 0.540873
vt 0.061467 0.615858
vt 0.298267 0.129187
vt 0.298267 0.021631
vt 0.439517 0.129180
vt 0.703770 0.129180
vt 0.439516 0.021631
vt 0.703770 0.021631
vt 0.445834 0.526065
vt 0.448776 0.629126
vt 0.095097 0.066272
vt 0.000000 0.663143
vt 0.000415 0.231454
vt 0.447535 0.629126
vt 0.695529 0.629126
vt 0.445836 0.526065
vt 0.703771 0.528258
vt 0.703771 0.129180
vt 0.439518 0.129180
vt 0.439517 0.021631
vt 0.298268 0.540207
vt 0.298268 0.129187
vt 0.298268 0.021631
vt 0.764760 0.958037
vt 0.764760 0.852782
vt 0.844664 0.958037
vt 0.844664 0.852789
vt 0.903318 0.176963
vt 0.903318 0.502658
vt 0.995577 0.162975
vt 0.974147 0.000000
vt 0.310132 0.629126
vt 0.237929 0.861879
vt 0.238113 1.000000
vt 0.155949 0.860903
vt 0.156133 0.999024
vt 0.095183 0.540873
vt 0.061467 0.615858
vt 0.095097 0.066272
vt 0.703771 0.021631
vt 0.903318 0.000343
vt 0.000000 1.000000
vt 1.000000 1.000000
vt 0.847455 0.330960
vt 0.903722 0.325882
vt 0.937496 0.439109
vt 0.932828 0.679244
vt 0.828341 0.679244
vt 0.732748 0.729374
vt 0.732748 0.746618
vt 0.961756 0.746618
vt 0.961756 0.824380
vt 0.732748 0.824379
vt 0.678714 0.746618
vt 0.678714 0.824380
vt 0.678714 1.000000
vt 0.321274 0.824379
vt 0.321271 0.746618
vt 0.893004 0.975549
vt 0.720495 0.339555
vt 0.653427 0.290340
vt 0.754317 0.304557
vt 0.687571 0.507056
vt 0.546828 0.543446
vt 0.796102 0.326661
vt 0.845016 0.288954
vt 0.788749 0.293111
vt 0.867113 0.234101
vt 0.939004 0.234095
vt 0.995192 0.234095
vt 0.790612 0.234100
vt 0.867113 0.154319
vt 0.939004 0.154313
vt 0.995192 0.154313
vt 0.898914 0.062187
vt 0.995192 0.062188
vt 0.842647 0.002369
vt 0.961951 0.002370
vt 1.000000 0.304183
vt 0.790609 0.002375
vt 0.744748 0.385274
vt 0.453169 0.543446
vt 0.655290 0.231331
vt 0.655287 0.151550
vt 0.575848 0.000000
vt 0.575851 0.231726
vt 0.573987 0.290735
vt 0.575848 0.151945
vt 0.656596 0.396415
vt 0.630723 0.446187
vt 0.576476 0.446187
vt 0.500132 0.339555
vt 0.550602 0.396415
vt 0.688975 0.391654
vt 0.657453 0.443753
vt 0.549746 0.443753
vt 0.152540 0.330960
vt 0.171647 0.679244
vt 0.061212 0.437901
vt 0.000000 0.304183
vt 0.096272 0.325882
vt 0.067160 0.679244
vt 0.267240 0.729374
vt 0.267240 0.746618
vt 0.038233 0.746618
vt 0.038233 0.824379
vt 0.267240 0.824378
vt 0.321274 1.000000
vt 0.106984 0.975549
vt 0.245680 0.304556
vt 0.346570 0.290340
vt 0.279499 0.339555
vt 0.312426 0.507056
vt 0.203896 0.326661
vt 0.132884 0.234100
vt 0.211248 0.293110
vt 0.154984 0.288955
vt 0.004802 0.234095
vt 0.060993 0.234095
vt 0.132884 0.154319
vt 0.209385 0.234101
vt 0.004805 0.154314
vt 0.060996 0.154314
vt 0.004805 0.062187
vt 0.101080 0.062187
vt 0.038046 0.002369
vt 0.157350 0.002369
vt 0.209391 0.002375
vt 0.255249 0.385274
vt 0.344707 0.231331
vt 0.344710 0.151549
vt 0.424149 0.000000
vt 0.424146 0.231725
vt 0.426010 0.290736
vt 0.424146 0.151945
vt 0.423521 0.446187
vt 0.369271 0.446187
vt 0.343398 0.396415
vt 0.449395 0.396415
vt 0.311022 0.391654
vt 0.450251 0.443753
vt 0.342541 0.443753
s 1
usemtl BGLSPIKE
f 125/150/31 126/53/31 127/14/31
f 125/150/31 127/14/31 128/151/31
usemtl BGLUNDER
f 92/65/73 20/66/74 101/67/75
f 99/68/76 22/69/77 100/70/76
f 22/69/77 99/68/76 101/67/75
f 101/67/75 20/66/74 22/69/77
f 90/71/78 89/72/79 88/73/79
f 88/73/79 87/74/78 90/71/78
f 89/72/79 40/75/80 88/73/79
f 88/73/79 40/75/80 39/76/80
f 103/77/81 28/78/81 23/79/81
f 36/80/81 104/81/81 33/82/81
f 103/77/81 23/79/81 104/81/81
f 104/81/81 36/80/81 103/77/81
f 54/83/81 53/84/81 52/85/81
f 54/83/81 52/85/81 47/86/81
f 57/87/82 61/88/82 60/89/82
f 57/87/82 60/89/82 63/90/82
usemtl BLUEBOT
f 77/42/44 78/43/45 79/44/46
f 79/44/47 80/45/48 81/46/49
f 82/47/50 83/48/51 84/49/52
f 85/50/49 86/51/48 82/47/47
f 82/47/47 86/51/48 80/45/48
f 80/45/48 79/44/47 82/47/47
f 83/48/51 79/44/46 78/43/45
f 79/44/46 83/48/51 82/47/50
f 80/45/53 87/52/54 88/14/55
f 80/45/53 88/14/55 81/46/56
f 89/53/57 90/54/58 86/51/59
f 85/50/60 89/53/57 86/51/59
f 86/51/59 90/54/58 87/52/54
f 87/52/54 80/45/53 86/51/59
usemtl BLUENOSE
f 91/55/61 92/32/62 93/56/63
f 93/56/63 94/57/64 91/55/61
f 95/58/65 96/59/66 97/60/67
f 98/61/68 99/62/69 100/14/70
f 98/61/68 97/60/67 94/57/64
f 93/56/63 101/63/71 99/62/69
f 95/58/65 97/60/67 98/61/68
f 98/61/68 100/14/70 95/58/65
f 98/61/68 94/57/64 93/56/63
f 92/32/62 101/63/71 93/56/63
f 93/56/63 99/62/69 98/61/68
f 94/57/64 102/64/72 91/55/61
usemtl BLUESIDE
f 105/91/83 106/92/84 24/93/85
f 24/93/85 31/94/86 105/91/83
f 107/95/87 105/91/83 31/94/86
f 31/94/86 29/96/88 107/95/87
f 102/97/72 107/95/87 29/96/88
f 20/98/89 92/99/62 17/100/90
f 91/101/61 102/97/72 18/102/91
f 102/97/72 29/96/88 18/102/91
f 46/103/92 34/104/93 108/105/94
f 108/105/94 109/106/95 46/103/92
f 44/107/96 46/103/92 109/106/95
f 109/106/95 110/108/97 44/107/96
f 42/109/98 44/107/96 110/108/97
f 110/108/97 111/110/99 42/109/98
f 37/111/100 33/112/101 112/113/102
f 25/114/103 104/115/104 23/116/105
f 113/117/106 114/118/107 108/105/94
f 113/117/106 25/114/103 24/93/85
f 37/111/100 113/117/106 34/104/93
f 113/117/106 112/113/102 25/114/103
f 113/117/106 24/93/85 106/92/84
f 34/104/93 113/117/106 108/105/94
f 39/119/108 42/109/98 111/110/99
f 81/120/56 88/121/55 39/119/108
f 111/110/99 81/120/56 39/119/108
f 112/113/102 33/112/101 104/115/104
f 113/117/106 37/111/100 112/113/102
f 104/115/104 25/114/103 112/113/102
f 113/117/106 106/92/84 114/118/107
f 91/101/61 18/102/91 17/100/90
f 17/100/90 92/99/62 91/101/61
f 115/122/109 116/123/110 117/124/111
f 27/125/112 26/126/113 117/124/111
f 118/127/114 26/126/113 103/128/115
f 35/129/116 117/124/111 38/130/117
f 103/128/115 36/131/118 118/127/114
f 118/127/114 38/130/117 117/124/111
f 116/123/110 27/125/112 117/124/111
f 27/125/112 116/123/110 119/132/119
f 119/132/119 32/133/120 27/125/112
f 32/133/120 119/132/119 120/134/121
f 120/134/121 30/135/122 32/133/120
f 30/135/122 120/134/121 96/97/66
f 21/136/123 19/137/124 95/138/65
f 95/138/65 100/139/70 21/136/123
f 19/137/124 30/135/122 96/97/66
f 121/140/125 117/124/111 35/129/116
f 121/140/125 35/129/116 45/141/126
f 45/141/126 122/142/127 121/140/125
f 122/142/127 45/141/126 43/143/128
f 43/143/128 123/144/129 122/142/127
f 123/144/129 43/143/128 41/145/130
f 41/145/130 124/146/131 123/144/129
f 40/147/132 89/121/57 85/120/60
f 40/147/132 85/120/60 124/146/131
f 124/146/131 41/145/130 40/147/132
f 28/148/133 103/128/115 26/126/113
f 118/127/114 36/131/118 38/130/117
f 26/126/113 118/127/114 117/124/111
f 121/140/125 115/122/109 117/124/111
f 21/136/123 100/139/70 22/149/134
f 19/137/124 96/97/66 95/138/65
usemtl BLUETOP
f 30/19/23 29/18/23 31/20/24
f 129/152/135 130/153/136 114/154/107
f 114/154/107 106/155/84 131/156/137
f 132/157/138 131/156/137 106/155/84
f 133/158/139 105/159/83 107/160/87
f 107/160/87 134/161/140 133/158/139
f 132/157/138 133/158/139 135/162/141
f 135/162/141 133/158/139 134/161/140
f 134/161/140 136/163/142 135/162/141
f 94/164/64 137/165/143 136/163/143
f 137/165/143 135/162/144 136/163/143
f 137/165/143 138/166/145 135/162/144
f 94/164/64 107/160/87 102/167/72
f 134/161/140 107/160/87 94/164/64
f 136/163/142 134/161/140 94/164/64
f 132/157/138 106/155/84 105/159/83
f 105/159/83 133/158/139 132/157/138
f 139/168/146 140/169/147 141/170/148
f 132/157/149 135/162/144 66/171/150
f 68/172/151 135/162/144 138/166/145
f 129/152/152 131/156/153 142/173/154
f 143/174/155 144/175/156 145/176/157
f 146/177/158 109/178/95 130/153/136
f 145/176/157 147/179/159 148/180/160
f 149/181/161 110/182/97 146/177/158
f 150/183/162 111/184/99 149/181/161
f 79/185/47 81/186/49 150/183/163
f 114/154/107 131/156/137 129/152/135
f 109/178/95 108/187/94 130/153/136
f 144/175/156 147/179/159 145/176/157
f 110/182/97 109/178/95 146/177/158
f 111/184/99 110/182/97 149/181/161
f 148/180/160 77/188/44 150/183/162
f 81/186/49 111/184/163 150/183/163
f 143/174/155 130/153/136 129/152/135
f 129/152/135 144/175/156 143/174/155
f 146/177/158 130/153/136 143/174/155
f 143/174/155 145/176/157 146/177/158
f 148/180/160 149/181/161 146/177/158
f 146/177/158 145/176/157 148/180/160
f 149/181/161 148/180/160 150/183/162
f 77/188/44 79/185/46 150/183/162
f 131/156/153 132/157/149 65/189/164
f 66/171/150 65/189/164 132/157/149
f 142/173/154 65/189/164 141/170/148
f 141/170/165 144/175/156 142/173/166
f 141/170/165 140/169/167 144/175/156
f 65/189/164 139/168/146 141/170/148
f 142/173/154 131/156/153 65/189/164
f 144/175/156 129/152/135 142/173/166
f 68/172/151 138/166/145 74/190/168
f 66/171/150 135/162/144 68/172/151
f 151/191/169 147/179/159 144/175/156
f 144/175/156 140/169/167 151/191/169
f 152/192/170 148/180/160 147/179/159
f 147/179/159 151/191/169 152/192/170
f 78/193/45 77/188/44 148/180/160
f 148/180/160 152/192/170 78/193/45
f 153/194/171 151/191/169 140/169/167
f 140/169/167 154/195/172 153/194/171
f 155/196/173 152/192/170 151/191/169
f 151/191/169 153/194/171 155/196/173
f 152/192/170 155/196/173 78/193/45
f 156/197/174 157/198/175 158/199/176
f 159/200/177 139/168/146 160/201/178
f 139/168/146 70/202/179 156/197/174
f 157/198/180 67/203/180 69/204/180
f 69/204/180 158/199/180 157/198/180
f 158/199/176 69/204/181 160/201/178
f 156/197/174 158/199/176 160/201/178
f 67/203/182 157/198/175 156/197/174
f 160/201/178 139/168/146 156/197/174
f 139/168/146 159/200/177 140/169/147
f 154/195/183 140/169/147 159/200/177
f 161/205/184 162/206/185 115/207/109
f 121/208/125 163/209/186 115/207/109
f 116/210/110 162/206/185 164/211/187
f 164/211/187 165/212/188 119/213/119
f 119/213/119 165/212/188 120/214/121
f 165/212/188 166/215/189 120/214/121
f 97/216/67 96/217/66 120/214/121
f 138/166/190 165/212/188 164/211/187
f 166/215/189 165/212/188 138/166/190
f 138/166/190 137/165/191 166/215/189
f 120/214/121 166/215/189 97/216/67
f 97/216/67 166/215/189 137/165/191
f 97/216/67 137/165/143 94/164/64
f 119/213/119 116/210/110 164/211/187
f 167/218/192 168/219/193 169/220/194
f 72/221/195 138/166/145 164/211/196
f 170/222/197 162/206/198 161/205/199
f 171/223/200 172/224/201 173/225/202
f 163/209/186 122/226/127 174/227/203
f 175/228/204 176/229/205 171/223/200
f 174/227/203 123/230/129 177/231/206
f 177/231/206 124/232/131 178/233/207
f 178/233/208 85/234/49 82/235/47
f 162/206/185 116/210/110 115/207/109
f 163/209/186 121/208/125 122/226/127
f 171/223/200 176/229/205 172/224/201
f 174/227/203 122/226/127 123/230/129
f 177/231/206 123/230/129 124/232/131
f 178/233/208 124/232/163 85/234/49
f 161/205/184 163/209/186 173/225/202
f 173/225/202 172/224/201 161/205/184
f 173/225/202 163/209/186 174/227/203
f 174/227/203 171/223/200 173/225/202
f 174/227/203 177/231/206 175/228/204
f 175/228/204 171/223/200 174/227/203
f 177/231/206 178/233/207 84/236/52
f 84/236/52 175/228/204 177/231/206
f 178/233/207 82/235/50 84/236/52
f 73/237/209 164/211/196 162/206/198
f 164/211/196 73/237/209 72/221/195
f 167/218/192 73/237/209 170/222/197
f 170/222/210 172/224/201 167/218/211
f 172/224/201 168/219/212 167/218/211
f 167/218/192 169/220/194 73/237/209
f 73/237/209 162/206/198 170/222/197
f 170/222/210 161/205/184 172/224/201
f 74/190/168 138/166/145 72/221/195
f 172/224/201 176/229/205 179/238/213
f 179/238/213 168/219/212 172/224/201
f 176/229/205 175/228/204 180/239/214
f 180/239/214 179/238/213 176/229/205
f 175/228/204 84/236/52 83/240/51
f 83/240/51 180/239/214 175/228/204
f 168/219/212 179/238/213 181/241/215
f 181/241/215 182/242/216 168/219/212
f 179/238/213 180/239/214 183/243/217
f 183/243/217 181/241/215 179/238/213
f 83/240/51 183/243/217 180/239/214
f 184/244/175 185/245/218 186/246/219
f 187/247/220 169/220/194 159/200/177
f 76/248/221 73/237/209 169/220/194
f 188/249/180 71/250/180 185/245/180
f 185/245/180 184/244/180 188/249/180
f 187/247/220 188/249/222 184/244/175
f 187/247/220 184/244/175 186/246/219
f 186/246/219 185/245/218 71/250/223
f 186/246/219 169/220/194 187/247/220
f 168/219/193 159/200/177 169/220/194
f 159/200/177 168/219/193 182/242/224
f 160/201/178 187/247/220 159/200/177
f 160/201/178 69/204/181 188/249/222
f 160/201/178 188/249/222 187/247/220
f 182/242/216 181/241/215 153/194/171
f 182/242/216 153/194/171 154/195/172
f 181/241/215 183/243/217 155/196/173
f 181/241/215 155/196/173 153/194/171
f 183/243/217 83/240/51 78/193/45
f 183/243/217 78/193/45 155/196/173
f 154/195/183 159/200/177 182/242/224
f 115/207/109 163/209/186 161/205/184
f 114/154/107 130/153/136 108/187/94
f 139/168/146 65/189/164 70/202/179
f 67/203/182 156/197/174 70/202/179
f 186/246/219 76/248/221 169/220/194
f 71/250/223 76/248/221 186/246/219
usemtl DRSKY
f 65/38/33 66/39/34 67/40/35
f 67/40/35 66/39/34 68/14/36
f 67/40/35 68/14/36 69/40/37
f 70/41/38 65/38/33 67/40/35
f 71/40/39 72/39/40 73/38/41
f 74/14/42 72/39/40 71/40/39
f 75/40/37 74/14/42 71/40/39
f 71/40/39 73/38/41 76/41/43
f 69/40/37 68/14/36 74/14/42
f 74/14/42 75/40/37 69/40/37
usemtl MURKHW
f 17/9/19 18/10/20 19/11/20
f 20/12/19 21/13/19 22/14/19
f 23/15/21 24/16/22 25/17/21
f 26/17/21 27/16/22 28/15/21
f 23/15/21 28/15/21 24/16/22
f 24/16/22 28/15/21 27/16/22
f 18/10/20 29/18/23 19/11/20
f 19/11/20 29/18/23 30/19/23
f 30/19/23 31/20/24 32/20/24
f 27/16/22 32/20/24 31/20/24
f 27/16/22 31/20/24 24/16/22
f 20/12/19 19/11/20 21/13/19
f 20/12/19 17/9/19 19/11/20
f 33/14/19 34/21/25 35/21/25
f 36/14/19 33/14/19 35/21/25
f 34/21/25 33/14/19 37/22/19
f 38/22/19 36/14/19 35/21/25
f 39/23/26 40/24/26 41/25/27
f 39/23/26 41/25/27 42/26/27
f 42/26/27 41/25/27 43/27/28
f 42/26/27 43/27/28 44/28/29
f 44/28/29 43/27/28 45/29/30
f 45/29/30 46/29/30 44/28/29
f 34/21/25 46/29/30 45/29/30
f 34/21/25 45/29/30 35/21/25
f 47/14/31 48/30/31 49/31/31
f 50/31/32 51/30/32 52/14/32
f 52/14/32 53/32/32 50/31/32
f 54/32/31 49/31/31 55/33/31
f 49/31/31 54/32/31 47/14/31
f 53/32/32 56/33/32 50/31/32
f 57/34/31 58/35/31 59/36/31
f 60/37/32 61/34/32 62/35/32
f 58/35/31 57/34/31 63/37/31
f 61/34/32 64/36/32 62/35/32
o WHEEL.DAT.001
v -0.083255 0.041519 -0.233413
v -0.083255 0.099945 -0.233535
v -0.178745 0.099945 -0.233535
v -0.178745 0.041519 -0.233413
v -0.083255 0.141174 -0.274932
v -0.178745 0.141174 -0.274932
v -0.083255 0.141052 -0.333358
v -0.178745 0.141052 -0.333358
v -0.083255 0.099655 -0.374587
v -0.178745 0.099655 -0.374587
v -0.083255 0.041229 -0.374465
v -0.178745 0.041229 -0.374465
v -0.083255 -0.000000 -0.333068
v -0.178745 -0.000000 -0.333068
v -0.083255 0.000122 -0.274642
v -0.178745 0.000122 -0.274642
vn -0.0000 -0.2508 0.9680
vn -0.0000 0.5072 0.8618
vn -0.0000 0.2548 0.9670
vn -0.0000 -0.5036 0.8639
vn -0.0000 0.9680 0.2508
vn -0.0000 0.8639 0.5036
vn -0.0000 0.8618 -0.5072
vn -0.0000 0.9670 -0.2548
vn -0.0000 0.2508 -0.9680
vn -0.0000 0.5036 -0.8639
vn -0.0000 -0.5072 -0.8618
vn -0.0000 -0.2548 -0.9670
vn -0.0000 -0.9680 -0.2508
vn -0.0000 -0.8639 -0.5036
vn -0.0000 -0.8618 0.5072
vn -0.0000 -0.9670 0.2548
vn -1.0000 -0.0000 -0.0000
vn 1.0000 -0.0000 -0.0000
vt 0.000000 0.705901
vt 0.000865 0.292045
vt 0.294099 0.000000
vt 0.707955 0.000865
vt 1.000000 0.294099
vt 0.999135 0.707955
vt 0.705901 1.000000
vt 0.292045 0.999135
s 1
usemtl BGLWEEL
f 189/251/225 190/252/226 191/252/227
f 189/251/225 191/252/227 192/251/228
f 190/252/226 193/253/229 194/253/230
f 190/252/226 194/253/230 191/252/227
f 193/253/229 195/254/231 196/254/232
f 193/253/229 196/254/232 194/253/230
f 195/254/231 197/255/233 198/255/234
f 195/254/231 198/255/234 196/254/232
f 197/255/233 199/256/235 200/256/236
f 197/255/233 200/256/236 198/255/234
f 199/256/235 201/257/237 202/257/238
f 199/256/235 202/257/238 200/256/236
f 201/257/237 203/258/239 204/258/240
f 201/257/237 204/258/240 202/257/238
f 203/258/239 189/251/225 192/251/228
f 203/258/239 192/251/228 204/258/240
f 202/257/241 198/255/241 200/256/241
f 202/257/241 196/254/241 198/255/241
f 202/257/241 194/253/241 196/254/241
f 202/257/241 191/252/241 194/253/241
f 202/257/241 192/251/241 191/252/241
f 202/257/241 204/258/241 192/251/241
f 190/252/242 195/254/242 193/253/242
f 190/252/242 197/255/242 195/254/242
f 190/252/242 199/256/242 197/255/242
f 190/252/242 201/257/242 199/256/242
f 190/252/242 203/258/242 201/257/242
f 190/252/242 189/251/242 203/258/242
o WHEEL.DAT.002
v 0.171745 0.041519 0.245587
v 0.171745 0.099945 0.245465
v 0.076255 0.099945 0.245465
v 0.076255 0.041519 0.245587
v 0.171745 0.141174 0.204068
v 0.076255 0.141174 0.204068
v 0.171745 0.141052 0.145642
v 0.076255 0.141052 0.145642
v 0.171745 0.099655 0.104413
v 0.076255 0.099655 0.104413
v 0.171745 0.041229 0.104535
v 0.076255 0.041229 0.104535
v 0.171745 -0.000000 0.145932
v 0.076255 -0.000000 0.145932
v 0.171745 0.000122 0.204358
v 0.076255 0.000122 0.204358
vn -0.0000 -0.2508 0.9680
vn -0.0000 0.5072 0.8618
vn -0.0000 0.2548 0.9670
vn -0.0000 -0.5036 0.8639
vn -0.0000 0.9680 0.2508
vn -0.0000 0.8639 0.5036
vn -0.0000 0.8618 -0.5072
vn -0.0000 0.9670 -0.2548
vn -0.0000 0.2508 -0.9680
vn -0.0000 0.5036 -0.8639
vn -0.0000 -0.5072 -0.8618
vn -0.0000 -0.2548 -0.9670
vn -0.0000 -0.9680 -0.2508
vn -0.0000 -0.8639 -0.5036
vn -0.0000 -0.8618 0.5072
vn -0.0000 -0.9670 0.2548
vn -1.0000 -0.0000 -0.0000
vn 1.0000 -0.0000 -0.0000
vt 0.000000 0.705901
vt 0.000865 0.292045
vt 0.294099 0.000000
vt 0.707955 0.000865
vt 1.000000 0.294099
vt 0.999135 0.707955
vt 0.705901 1.000000
vt 0.292045 0.999135
s 1
usemtl BGLWEEL
f 205/259/243 206/260/244 207/260/245
f 205/259/243 207/260/245 208/259/246
f 206/260/244 209/261/247 210/261/248
f 206/260/244 210/261/248 207/260/245
f 209/261/247 211/262/249 212/262/250
f 209/261/247 212/262/250 210/261/248
f 211/262/249 213/263/251 214/263/252
f 211/262/249 214/263/252 212/262/250
f 213/263/251 215/264/253 216/264/254
f 213/263/251 216/264/254 214/263/252
f 215/264/253 217/265/255 218/265/256
f 215/264/253 218/265/256 216/264/254
f 217/265/255 219/266/257 220/266/258
f 217/265/255 220/266/258 218/265/256
f 219/266/257 205/259/243 208/259/246
f 219/266/257 208/259/246 220/266/258
f 218/265/259 214/263/259 216/264/259
f 218/265/259 212/262/259 214/263/259
f 218/265/259 210/261/259 212/262/259
f 218/265/259 207/260/259 210/261/259
f 218/265/259 208/259/259 207/260/259
f 218/265/259 220/266/259 208/259/259
f 206/260/260 211/262/260 209/261/260
f 206/260/260 213/263/260 211/262/260
f 206/260/260 215/264/260 213/263/260
f 206/260/260 217/265/260 215/264/260
f 206/260/260 219/266/260 217/265/260
f 206/260/260 205/259/260 219/266/260
o WHEEL.DAT.003
v -0.076255 0.041519 0.245587
v -0.076255 0.099945 0.245465
v -0.171745 0.099945 0.245465
v -0.171745 0.041519 0.245587
v -0.076255 0.141174 0.204068
v -0.171745 0.141174 0.204068
v -0.076255 0.141052 0.145642
v -0.171745 0.141052 0.145642
v -0.076255 0.099655 0.104413
v -0.171745 0.099655 0.104413
v -0.076255 0.041229 0.104535
v -0.171745 0.041229 0.104535
v -0.076255 -0.000000 0.145932
v -0.171745 -0.000000 0.145932
v -0.076255 0.000122 0.204358
v -0.171745 0.000122 0.204358
vn -0.0000 -0.2508 0.9680
vn -0.0000 0.5072 0.8618
vn -0.0000 0.2548 0.9670
vn -0.0000 -0.5036 0.8639
vn -0.0000 0.9680 0.2508
vn -0.0000 0.8639 0.5036
vn -0.0000 0.8618 -0.5072
vn -0.0000 0.9670 -0.2548
vn -0.0000 0.2508 -0.9680
vn -0.0000 0.5036 -0.8639
vn -0.0000 -0.5072 -0.8618
vn -0.0000 -0.2548 -0.9670
vn -0.0000 -0.9680 -0.2508
vn -0.0000 -0.8639 -0.5036
vn -0.0000 -0.8618 0.5072
vn -0.0000 -0.9670 0.2548
vn -1.0000 -0.0000 -0.0000
vn 1.0000 -0.0000 -0.0000
vt 0.000000 0.705901
vt 0.000865 0.292045
vt 0.294099 0.000000
vt 0.707955 0.000865
vt 1.000000 0.294099
vt 0.999135 0.707955
vt 0.705901 1.000000
vt 0.292045 0.999135
s 1
usemtl BGLWEEL
f 221/267/261 222/268/262 223/268/263
f 221/267/261 223/268/263 224/267/264
f 222/268/262 225/269/265 226/269/266
f 222/268/262 226/269/266 223/268/263
f 225/269/265 227/270/267 228/270/268
f 225/269/265 228/270/268 226/269/266
f 227/270/267 229/271/269 230/271/270
f 227/270/267 230/271/270 228/270/268
f 229/271/269 231/272/271 232/272/272
f 229/271/269 232/272/272 230/271/270
f 231/272/271 233/273/273 234/273/274
f 231/272/271 234/273/274 232/272/272
f 233/273/273 235/274/275 236/274/276
f 233/273/273 236/274/276 234/273/274
f 235/274/275 221/267/261 224/267/264
f 235/274/275 224/267/264 236/274/276
f 234/273/277 230/271/277 232/272/277
f 234/273/277 228/270/277 230/271/277
f 234/273/277 226/269/277 228/270/277
f 234/273/277 223/268/277 226/269/277
f 234/273/277 224/267/277 223/268/277
f 234/273/277 236/274/277 224/267/277
f 222/268/278 227/270/278 225/269/278
f 222/268/278 229/271/278 227/270/278
f 222/268/278 231/272/278 229/271/278
f 222/268/278 233/273/278 231/272/278
f 222/268/278 235/274/278 233/273/278
f 222/268/278 221/267/278 235/274/278
