<?xml version="1.0" encoding="utf-8"?>
<COLLADA xmlns="http://www.collada.org/2005/11/COLLADASchema" version="1.4.1">
  <asset />
  <library_images>
    <image id="met_toge_body">
      <init_from>met_toge_body.png</init_from>
    </image>
    <image id="lm_01e">
      <init_from>lm_01e.png</init_from>
    </image>
    <image id="lm_02e">
      <init_from>lm_02e.png</init_from>
    </image>
    <image id="met_toge_eye">
      <init_from>met_toge_eye.png</init_from>
    </image>
    <image id="met_toge_shell">
      <init_from>met_toge_shell.png</init_from>
    </image>
    <image id="met_toge_env">
      <init_from>met_toge_env.png</init_from>
    </image>
  </library_images>
  <library_materials>
    <material id="mat_met_toge_body">
      <instance_effect url="#Effect_mat_met_toge_body" />
    </material>
    <material id="mat_met_toge_eye">
      <instance_effect url="#Effect_mat_met_toge_eye" />
    </material>
    <material id="mat_met_toge_shell">
      <instance_effect url="#Effect_mat_met_toge_shell" />
    </material>
  </library_materials>
  <library_effects>
    <effect id="Effect_mat_met_toge_body">
      <profile_COMMON>
        <newparam sid="surface_mat_met_toge_body-diffuse">
          <surface type="2D">
            <init_from>met_toge_body</init_from>
            <format>A8R8G8B8</format>
          </surface>
        </newparam>
        <newparam sid="sampler_mat_met_toge_body-diffuse">
          <sampler2D>
            <source>surface_mat_met_toge_body-diffuse</source>
            <wrap_s>MIRROR</wrap_s>
            <wrap_t>MIRROR</wrap_t>
          </sampler2D>
        </newparam>
        <technique sid="common">
          <phong>
            <diffuse>
              <texture texture="sampler_mat_met_toge_body-diffuse" texcoord="CHANNEL0" />
            </diffuse>
            <emission>
              <color sid="emission">0 0 0 1</color>
            </emission>
            <specular>
              <color sid="specular">0 0 0 1</color>
            </specular>
          </phong>
        </technique>
      </profile_COMMON>
    </effect>
    <effect id="Effect_mat_met_toge_eye">
      <profile_COMMON>
        <newparam sid="surface_mat_met_toge_eye-diffuse">
          <surface type="2D">
            <init_from>met_toge_eye</init_from>
            <format>A8R8G8B8</format>
          </surface>
        </newparam>
        <newparam sid="sampler_mat_met_toge_eye-diffuse">
          <sampler2D>
            <source>surface_mat_met_toge_eye-diffuse</source>
            <wrap_s>WRAP</wrap_s>
            <wrap_t>WRAP</wrap_t>
          </sampler2D>
        </newparam>
        <technique sid="common">
          <phong>
            <diffuse>
              <texture texture="sampler_mat_met_toge_eye-diffuse" texcoord="CHANNEL0" />
            </diffuse>
            <emission>
              <color sid="emission">0 0 0 1</color>
            </emission>
            <specular>
              <color sid="specular">0 0 0 1</color>
            </specular>
          </phong>
        </technique>
      </profile_COMMON>
    </effect>
    <effect id="Effect_mat_met_toge_shell">
      <profile_COMMON>
        <newparam sid="surface_mat_met_toge_shell-diffuse">
          <surface type="2D">
            <init_from>met_toge_shell</init_from>
            <format>A8R8G8B8</format>
          </surface>
        </newparam>
        <newparam sid="sampler_mat_met_toge_shell-diffuse">
          <sampler2D>
            <source>surface_mat_met_toge_shell-diffuse</source>
            <wrap_s>WRAP</wrap_s>
            <wrap_t>WRAP</wrap_t>
          </sampler2D>
        </newparam>
        <technique sid="common">
          <phong>
            <diffuse>
              <texture texture="sampler_mat_met_toge_shell-diffuse" texcoord="CHANNEL0" />
            </diffuse>
            <emission>
              <color sid="emission">0 0 0 1</color>
            </emission>
            <specular>
              <color sid="specular">0 0 0 1</color>
            </specular>
          </phong>
        </technique>
      </profile_COMMON>
    </effect>
  </library_effects>
  <library_geometries>
    <geometry id="polygon2-mesh" name="polygon2">
      <mesh>
        <source id="polygon2-position">
          <float_array id="polygon2-position-array" count="1404">3.066838 -0.0104022 -1.027694 2.413076 0.1523459 -1.967215 3.461266 0.07983851 -1.962545 2.241396 0.0818541 -3.41696 5.776355 0.08186102 -3.416964 2.717386 0.06707382 -4.75612 4.55649 0.0798409 -1.962546 4.00888 0.02246809 -0.9010451 5.60468 0.1523461 -1.967217 5.300364 0.06708527 -4.756123 4.008874 0.07897496 -5.432107 4.950921 -0.01039839 -1.027696 3.066838 -0.01040268 4.590329 2.413076 0.1523461 3.599332 3.461266 0.07983828 3.604259 2.241396 0.08185291 2.070157 5.776355 0.08186007 2.070153 4.55649 0.07984161 3.604257 4.00888 0.02246809 4.723916 2.717386 0.06707382 0.6576269 5.60468 0.1523461 3.59933 5.300364 0.06708574 0.6576229 4.950921 -0.01039839 4.590327 4.008874 0.0789752 -0.2708731 -2.413076 0.1523497 -1.967215 -2.875897 1.124657 -1.239978 -3.066839 -0.01039767 -1.027694 -3.515489 0.9587295 -1.365756 -3.461267 0.07984352 -1.962545 -4.008877 1.107872 -1.062155 -4.008881 0.02247405 -0.9010448 -4.502264 0.9587333 -1.365757 -4.55649 0.07984734 -1.962546 -5.141856 1.124665 -1.239981 -4.950922 -0.01039147 -1.027696 -5.604681 0.152354 -1.967217 2.717386 0.06707382 -4.75612 4.008873 1.175747 -5.827086 4.008874 0.07897496 -5.432107 2.39149 1.074845 -4.865159 2.241396 0.0818541 -3.41696 5.626256 1.074852 -4.865163 5.300364 0.06708527 -4.756123 4.008873 2.164306 -5.570653 3.034501 2.897139 -4.684575 2.039823 0.9368532 -3.79246 2.152932 0.8116362 -2.707683 2.413076 0.1523459 -1.967215 5.977925 0.9368658 -3.792464 5.538113 3.015762 -4.039491 4.984811 2.913653 -4.697415 5.776355 0.08186102 -3.416964 4.008873 2.844962 -5.147439 2.641331 3.209142 -2.96969 2.377082 1.40046 -2.862212 2.875897 1.124653 -1.239978 5.640666 1.400467 -2.862215 5.864817 0.811645 -2.707687 5.238369 3.224771 -2.554495 5.179068 4.156847 -4.338038 4.786861 3.904538 -5.06134 4.020583 3.822801 -5.248651 5.60468 0.1523461 -1.967217 3.243638 1.982206 -2.203679 4.774111 1.982208 -2.20368 3.515489 0.9587243 -1.365756 5.141856 1.124657 -1.239981 4.959215 4.47976 -3.361463 4.008872 3.201358 -2.038266 4.008608 4.893121 -4.400898 3.379031 3.895638 -5.045327 3.000973 4.321121 -3.326802 4.008877 1.107866 -1.062155 4.502264 0.9587269 -1.365757 4.020581 4.575494 -2.956218 -2.413076 0.1523497 -1.967215 -3.066839 -0.01039767 -1.027694 -3.461267 0.07984352 -1.962545 -2.241396 0.08185744 -3.41696 -4.008881 0.02247405 -0.9010448 -4.55649 0.07984734 -1.962546 -5.776356 0.08186889 -3.416964 -2.717387 0.06708288 -4.75612 -4.950922 -0.01039147 -1.027696 -5.604681 0.152354 -1.967217 -5.300364 0.06709242 -4.756123 -4.008874 0.07898068 -5.432107 -2.413076 0.152349 3.599332 -2.875897 1.124657 4.366414 -3.066839 -0.01039743 4.590329 -3.515489 0.9587295 4.233745 -3.461266 0.07984304 3.604259 -4.008877 1.107872 4.553979 -4.008881 0.02247429 4.723917 -4.502264 0.9587333 4.233744 -4.55649 0.07984829 3.604257 -5.141856 1.124665 4.366411 -4.950922 -0.01039124 4.590327 -5.604681 0.1523547 3.59933 -4.008881 0.02247429 4.723917 -4.55649 0.07984829 3.604257 -3.461266 0.07984304 3.604259 -4.950922 -0.01039124 4.590327 -5.604681 0.1523547 3.59933 -5.776355 0.08186769 2.070153 -2.413076 0.152349 3.599332 -3.066839 -0.01039743 4.590329 -2.241396 0.08185625 2.070157 -2.717386 0.06707859 0.6576273 -5.300364 0.0670929 0.6576233 -4.008874 0.07898092 -0.2708727 -2.413076 0.1523497 -1.967215 -2.152932 0.8116398 -2.707683 -2.875897 1.124657 -1.239978 -2.241396 0.08185744 -3.41696 -2.039823 0.9368603 -3.79246 -2.377082 1.400464 -2.862212 -4.008877 1.107872 -1.062155 -3.515489 0.9587295 -1.365756 -4.774109 1.982214 -2.20368 -3.243636 1.98221 -2.203679 -2.717387 0.06708288 -4.75612 -2.39149 1.074849 -4.865159 -3.034498 2.897144 -4.684575 -2.641327 3.209146 -2.96969 -4.502264 0.9587333 -1.365757 -4.008869 3.201364 -2.038266 -5.238365 3.224779 -2.554495 -5.640666 1.400475 -2.862215 -5.141856 1.124665 -1.239981 -4.008874 0.07898068 -5.432107 -4.008872 1.175752 -5.827086 -4.008871 2.164312 -5.570653 -4.020576 4.5755 -2.956218 -3.000969 4.321125 -3.326802 -4.95921 4.479766 -3.361463 -5.977925 0.9368739 -3.792464 -5.864817 0.8116531 -2.707687 -5.604681 0.152354 -1.967217 -5.300364 0.06709242 -4.756123 -5.626255 1.07486 -4.865163 -4.008871 2.844968 -5.147439 -4.984809 2.91366 -4.697415 -4.008604 4.893126 -4.400898 -3.379027 3.895643 -5.045327 -5.179064 4.156855 -4.338038 -5.776356 0.08186889 -3.416964 -5.53811 3.01577 -4.039491 -4.020579 3.822807 -5.248651 -4.786857 3.904544 -5.06134 5.141857 1.124657 4.366411 4.950921 -0.01039839 4.590327 5.60468 0.1523461 3.59933 4.502264 0.9587269 4.233744 4.55649 0.07984161 3.604257 4.00888 0.02246809 4.723916 4.008878 1.107866 4.553979 3.51549 0.9587243 4.233745 3.461266 0.07983828 3.604259 3.066838 -0.01040268 4.590329 2.875898 1.124653 4.366414 2.413076 0.1523461 3.599332 -3.515489 0.9587295 4.233745 -3.243635 1.866747 3.471702 -4.008877 1.107872 4.553979 -2.875897 1.124657 4.366414 -3.438805 2.113729 2.672737 -4.578936 2.113733 2.672735 -4.774109 1.866751 3.471702 -2.377081 1.400464 2.6553 -4.502264 0.9587333 4.233744 -2.152932 0.8116398 2.818295 -2.413076 0.152349 3.599332 -2.530054 3.882988 1.542141 -4.190822 4.210828 2.8251 -2.270886 1.539091 1.638293 -5.141856 1.124665 4.366411 -5.640666 1.400475 2.655297 -2.241396 0.08185625 2.070157 -2.039823 0.8470552 1.674084 -4.008603 5.676489 1.304611 -2.39149 0.8310916 0.5290812 -3.153022 3.816343 -0.3218371 -5.342441 4.094046 2.329137 -5.864817 0.8116531 2.818291 -5.604681 0.1523547 3.59933 -5.303834 1.96462 2.192525 -5.746855 1.539102 1.638289 -2.717386 0.06707859 0.6576273 -4.008874 0.07898092 -0.2708727 -4.008872 0.8421905 -0.4043548 -4.001541 3.904685 -0.589854 -5.607467 3.986489 1.251691 -5.977925 0.8470728 1.67408 -5.776355 0.08186769 2.070153 -5.354114 3.886122 -0.03209603 -5.626255 0.8311026 0.5290782 -5.300364 0.0670929 0.6576233 5.930532 5.571121 -0.959396 4.301234 2.214002 -1.072757 5.202442 5.215487 -3.438977 5.529257 5.890033 0.99161 3.351313 1.93885 -3.976843 3.075306 1.37579 -1.103985 2.707372 1.574691 1.424126 3.876169 2.424067 1.282897 2.737623 2.382031 -5.199242 2.674751 5.096755 -5.530437 3.426264 7.412277 2.621779 3.655656 5.044947 2.714494 3.061664 3.205189 3.129216 2.30979E-07 1.279216 -4.979075 1.381803E-07 1.141029 1.520173 0 0.935264 -1.090778 6.70911E-07 1.934321 3.421527 2.39215 2.367369 3.450065 1.663034E-06 3.411696 -6.521913 4.153051E-06 7.119593 -5.98123 4.518188E-06 7.66332 1.727196 2.731356E-06 5.002539 1.426441 -2.707371 1.574695 1.424126 -3.075306 1.375794 -1.103985 -2.392148 2.367373 3.450065 -2.674746 5.096759 -5.530437 -2.737622 2.382035 -5.199242 -3.426256 7.412282 2.621779 -3.061661 3.205192 3.129216 -3.65565 5.044952 2.714494 -4.301233 2.214008 -1.072757 -3.876168 2.424074 1.282897 -3.351312 1.938854 -3.976843 -5.202437 5.215494 -3.438976 -5.529251 5.890041 0.99161 -5.930526 5.571129 -0.959396 1.230315 2.983029 6.636001 1.169828E-06 2.677261 6.839414 1.317745 2.475907 6.554766 2.668616 3.332362 6.226071 -1.230313 2.983031 6.636 -1.317743 2.475909 6.554766 8.243724E-07 2.162841 6.79229 1.405176 1.816983 5.851215 2.777982 3.058104 6.127494 3.648581 3.640023 5.552121 -2.668612 3.332366 6.226071 -2.777979 3.058109 6.127494 -1.405174 1.816985 5.851213 4.789159E-07 1.64842 6.171062 2.810351 2.45586 5.499006 1.589619 2.042035 2.95592 4.170797 3.256929 4.748119 4.154552 3.853636 5.52023 2.668616 3.332362 6.226071 -3.648578 3.640028 5.552121 -4.170794 3.256935 4.748119 -2.810349 2.455864 5.499006 -1.589617 2.042036 2.955919 5.246326E-07 1.716497 3.156981 3.179237 2.745897 2.656327 4.046222 3.839808 2.320101 4.676106 4.650379 3.834909 2.939948 3.389139 6.805147 1.230315 2.983029 6.636001 -4.154548 3.853642 5.52023 -2.668612 3.332366 6.226071 -3.179235 2.745901 2.656327 3.677994 5.672548 1.887308 4.308149 5.451968 3.775425 2.693898 4.204303 7.025505 1.679842E-06 3.436725 7.922379 9.695542E-07 2.379032 7.510186 1.169828E-06 2.677261 6.839414 -1.230313 2.983031 6.636 -2.939944 3.389143 6.805147 -4.046217 3.839813 2.320101 3.579503 4.779494 5.365184 3.779046 6.141078 3.71594 2.113668 4.76737 6.31298 2.566337E-06 4.756809 7.82922 -2.693894 4.204307 7.025505 -4.676102 4.650385 3.834909 -3.677988 5.672553 1.887308 2.683483 5.198087 5.521224 3.746916 7.183321 3.811583 2.95925 6.524527 5.355263 3.034798E-06 5.454397 6.860856 -2.113661 4.767372 6.312979 -3.579497 4.779497 5.365183 -4.308143 5.451974 3.775425 -3.779037 6.141082 3.71594 -3.746908 7.183327 3.811583 -3.576703 7.049444 2.049751 3.576711 7.049439 2.049751 2.408241 8.234678 5.384105 -2.683477 5.198091 5.521224 -2.959242 6.524531 5.355262 -2.408231 8.234681 5.384105 4.761846E-06 8.026152 6.500559 5.60468 0.1523461 -1.967217 5.141856 1.124657 -1.239981 4.950921 -0.01039839 -1.027696 4.502264 0.9587269 -1.365757 4.55649 0.0798409 -1.962546 4.008877 1.107866 -1.062155 4.00888 0.02246809 -0.9010451 3.515489 0.9587243 -1.365756 3.461266 0.07983851 -1.962545 2.875897 1.124653 -1.239978 3.066838 -0.0104022 -1.027694 2.413076 0.1523459 -1.967215 3.51549 0.9587243 4.233745 4.008878 1.107866 4.553979 3.243637 1.866742 3.471702 2.875898 1.124653 4.366414 4.502264 0.9587269 4.233744 4.774111 1.866745 3.471702 4.578938 2.113727 2.672735 3.438807 2.113724 2.672737 2.377083 1.40046 2.6553 2.152932 0.8116362 2.818295 2.413076 0.1523461 3.599332 5.141857 1.124657 4.366411 5.640667 1.400467 2.655297 5.303836 1.964613 2.192525 5.342445 4.094038 2.329137 4.190826 4.210822 2.8251 2.530058 3.882984 1.542141 2.270888 1.539087 1.638293 2.039824 0.8470521 1.674084 2.241396 0.08185291 2.070157 5.60468 0.1523461 3.59933 5.864818 0.811645 2.818291 5.746857 1.539094 1.638289 5.607471 3.986481 1.251691 4.008609 5.676483 1.304611 3.153026 3.816339 -0.3218371 2.39149 0.8310881 0.5290809 2.717386 0.06707382 0.6576269 5.776355 0.08186007 2.070153 5.977925 0.8470659 1.67408 5.354118 3.886115 -0.03209603 5.626256 0.831095 0.5290779 4.001545 3.904679 -0.589854 4.008873 0.842185 -0.404355 4.008874 0.0789752 -0.2708731 5.300364 0.06708574 0.6576229 1.675368E-06 3.430063 -8.743787 0.4408806 3.350194 -7.810002 1.348108E-06 2.942739 -7.670115 -0.4408774 3.350194 -7.810002 1.862009E-06 3.70799 -7.848417 0.9638987 3.410158 -5.253392 0.6442323 2.885362 -4.945301 0.672676 3.956205 -5.640659 -0.6442297 2.885363 -4.945301 1.052916E-06 2.503167 -4.703418 -0.9638953 3.41016 -5.253392 -0.672672 3.956206 -5.640659 2.233102E-06 4.260587 -5.948144 9.079506E-06 14.4556 -3.083129 1.257939E-05 19.6673 -2.210955 1.371112 14.54576 -2.5224 1.27708E-05 19.95233 -2.042857 0.1497846 19.67715 -2.149703 1.939041 14.76337 -1.168669 1.27708E-05 19.95233 -2.042857 0.2118226 19.70096 -2.001833 1.371111 14.98098 0.185058 1.27708E-05 19.95233 -2.042857 0.1497846 19.7247 -1.853958 9.492871E-06 15.07115 0.745786 1.27708E-05 19.95233 -2.042857 1.262458E-05 19.73459 -1.792711 -1.371094 14.98098 0.185057 1.27708E-05 19.95233 -2.042857 -0.1497594 19.7247 -1.853957 -0.2117974 19.70096 -2.001833 -1.939023 14.76337 -1.168668 1.27708E-05 19.95233 -2.042857 1.27708E-05 19.95233 -2.042857 -0.1497594 19.67715 -2.149703 -1.371094 14.54576 -2.5224 1.27708E-05 19.95233 -2.042857 1.257939E-05 19.6673 -2.210955 9.079506E-06 14.4556 -3.083129 -3.058505 13.02181 -0.935662 -2.140271 13.49347 1.156124 -2.352799 14.88769 -1.190441 -2.140271 12.81404 -3.070182 8.613123E-06 13.76111 1.978738 -1.663677 15.15107 0.452275 1.026871E-05 16.22645 -1.412516 -1.663677 14.62431 -2.833156 7.974617E-06 12.81031 -3.935544 2.140287 13.49347 1.156124 1.663696 15.15106 0.452275 9.619804E-06 15.26016 1.1327 2.352816 14.88769 -1.190441 1.663695 14.62431 -2.833156 9.119538E-06 14.51521 -3.51359 2.140287 12.81404 -3.070182 3.058521 13.0218 -0.935662 -7.983066 3.812311 1.019177 -7.518908 3.631792 -2.885471 -6.476198 2.407393 -2.762349 -6.766151 2.653274 1.236559 -7.635732 4.550187 2.807924 -5.170876 2.947193 -5.595128 -6.036558 4.243743 -5.937554 6.144343E-06 10.08484 -0.442071 -6.333997 3.485029 3.236561 -5.228084 5.58496 5.543156 -6.208689 6.864357 5.432719 -2.808671 4.181202 -7.988552 -2.923275 5.873225 -8.31974 -3.463298 8.201138 7.585646 -2.758948 6.877367 7.275113 -0.0003424966 4.663083 -8.21938 3.566356E-06 6.245942 -8.539332 -0.0003408569 7.10475 8.132769 5.058902E-06 8.4685 8.545828 2.807908 4.181198 -7.988552 2.923281 5.873221 -8.31974 2.758267 6.877363 7.275113 3.463308 8.20113 7.585646 6.036562 4.243735 -5.937554 5.170084 2.947186 -5.595128 5.2274 5.584954 5.543156 6.208697 6.864349 5.432719 7.518917 3.631782 -2.885471 6.475507 2.407383 -2.762349 6.331389 3.485021 3.236561 6.696098 2.653265 1.236563 7.635736 4.550177 2.807922 7.983065 3.812305 1.019177 -6.036558 4.243743 -5.937554 -5.559823 5.23526 -5.422738 -2.923275 5.873225 -8.31974 -7.518908 3.631792 -2.885471 -6.797473 4.567621 -2.718995 3.709044E-06 6.45842 0.012367 -2.777305 6.562942 -7.620447 4.017522E-06 6.917776 -7.831172 3.566356E-06 6.245942 -8.539332 -7.983066 3.812311 1.019177 -7.342673 4.767244 0.890966 2.923281 5.873221 -8.31974 2.777316 6.562938 -7.620451 -7.635732 4.550187 2.807924 -6.971976 5.483396 2.495109 5.559834 5.235252 -5.422746 6.036562 4.243735 -5.937554 -5.67537 7.954771 4.867324 -6.208689 6.864357 5.432719 7.518917 3.631782 -2.885471 6.797479 4.567612 -2.718993 -3.126038 9.249857 6.981744 -3.463298 8.201138 7.585646 7.342678 4.767234 0.890965 7.983065 3.812305 1.019177 6.971986 5.483387 2.495104 5.798428E-06 9.569731 7.988585 5.675384 7.954767 4.867324 3.126046 9.249853 6.981744 5.058902E-06 8.4685 8.545828 7.635736 4.550177 2.807922 3.463308 8.20113 7.585646 6.208697 6.864349 5.432719</float_array>
          <technique_common>
            <accessor source="#polygon2-position-array" count="468" stride="3">
              <param name="X" type="float" />
              <param name="Y" type="float" />
              <param name="Z" type="float" />
            </accessor>
          </technique_common>
        </source>
        <source id="polygon2-normal">
          <float_array id="polygon2-normal-array" count="1404">0.1213304 -0.5342466 0.8356164 -0.7651667 -0.5792559 0.2818004 -0.02739784 -0.9921722 0.1252446 -0.610568 -0.7925633 0.001956947 0.610567 -0.792564 0.001956947 -0.4403136 -0.8140898 -0.3796478 0.02739668 -0.9921722 0.1252446 -2.663411E-07 -0.4559687 0.890411 0.765166 -0.5792568 0.2818004 0.4403126 -0.8140903 -0.3796478 -4.789568E-07 -0.8199608 -0.5714286 -0.121331 -0.5342465 0.8356164 0.1213304 -0.5342466 0.8356164 -0.7690806 -0.5792559 0.2700587 -0.02739784 -0.9921722 0.1252446 -0.610568 -0.7925633 0.001956947 0.610567 -0.792564 0.001956947 0.02739668 -0.9921722 0.1252446 -2.663411E-07 -0.4559687 0.890411 -0.4461844 -0.8336592 -0.3268102 0.7690799 -0.5792568 0.2700587 0.4461835 -0.8336597 -0.3268102 -0.121331 -0.5342465 0.8356164 -3.932247E-07 -0.6731898 -0.739726 0.7651659 -0.5792569 0.2818004 0.6183956 0.4227002 0.6614481 -0.1174172 -0.5303326 0.8395304 0.09980442 0.1624267 0.9823875 0.0273966 -0.9902152 0.1311156 -0.1526416 0.412916 0.8982387 -3.009464E-07 -0.4481408 0.8943249 -0.1311153 0.2172213 0.9667319 -0.02739793 -0.9902152 0.1311156 -0.5753422 0.4285719 0.6966732 0.1174165 -0.5303327 0.8395304 -0.7651668 -0.5792558 0.2818004 -0.4403136 -0.8140898 -0.3796478 -2.057571E-08 -0.03522505 -1 -4.789568E-07 -0.8199608 -0.5714286 -0.7318982 0.04892411 -0.6790606 -0.610568 -0.7925633 0.001956947 0.7318983 0.06066493 -0.6790606 0.4403126 -0.8140903 -0.3796478 -0.003913677 0.37182 -0.9275929 -0.7045009 0.2172216 -0.6751468 -0.9902152 0.1232883 -0.06262231 -0.9686888 0.09980487 0.2309198 -0.7651667 -0.5792559 0.2818004 0.9980431 0.07240646 0.005870841 0.9393348 0.2230914 -0.258317 0.5459883 0.1272013 -0.8277887 0.610567 -0.792564 0.001956947 -0.007827654 0.2309198 -0.9726027 -0.8669274 0.3013704 0.3972603 -0.8512717 0.3659496 0.3776908 -0.6183951 0.4227009 0.6614481 0.8532292 0.3444222 0.3933464 0.9686889 0.09980374 0.2309198 0.782779 0.2524457 0.5675147 0.7847361 0.536203 -0.3131115 0.4911939 0.3170252 -0.8121331 -0.02348331 0.1017613 -0.9941292 0.765166 -0.5792568 0.2818004 -0.4442268 0.3737772 0.81409 0.3150687 0.4090018 0.8571429 -0.09980421 0.1624267 0.9823875 0.5753427 0.4285711 0.6966732 0.5812137 0.765166 0.2759295 -0.06262215 0.2739726 0.9589041 0.02544086 0.9295499 -0.369863 -0.6360076 0.3737773 -0.6751468 -0.72407 0.6790611 0.1193738 0.1526421 0.4129158 0.8982387 0.1389434 0.2230919 0.964775 -0.06849267 0.8277887 0.55773 0.7651659 -0.5792569 0.2818004 -0.1174172 -0.5303326 0.8395304 0.0273966 -0.9902152 0.1311156 0.610567 -0.792564 -0.001956878 -3.009464E-07 -0.4481408 0.8943249 -0.02739793 -0.9902152 0.1311156 -0.610568 -0.7925632 -0.001956878 0.4403126 -0.8140904 -0.3796477 0.1174165 -0.5303327 0.8395304 -0.7651668 -0.5792558 0.2818004 -0.4403136 -0.8140898 -0.3796477 -5.506401E-07 -0.8199609 -0.5714285 0.7690798 -0.5792569 0.2700588 0.5772997 0.4461836 0.6829745 -0.1174172 -0.5303326 0.8395304 0.1389434 0.223092 0.964775 0.0273966 -0.9902152 0.1311156 3.140883E-07 0.4677105 0.8845401 -3.009464E-07 -0.4481408 0.8943249 -0.1311153 0.2172213 0.9667319 -0.02739793 -0.9902152 0.1311156 -0.5772991 0.4461844 0.6829745 0.1174165 -0.5303327 0.8395304 -0.7690806 -0.5792558 0.2700588 -3.009464E-07 -0.4481408 0.8943249 -0.02739793 -0.9902152 0.1311156 0.0273966 -0.9902152 0.1311156 0.1174165 -0.5303327 0.8395304 -0.7690806 -0.5792558 0.2700588 -0.610568 -0.7925632 -0.001956878 0.7690798 -0.5792569 0.2700588 -0.1174172 -0.5303326 0.8395304 0.610567 -0.792564 -0.001956878 0.4461834 -0.8336598 -0.3268101 -0.4461845 -0.8336592 -0.3268101 -4.520769E-07 -0.6731899 -0.7397259 0.7651659 -0.5792569 0.2818004 0.9686889 0.09980368 0.2309197 0.6183956 0.4227002 0.6614481 0.610567 -0.792564 -0.001956878 0.9902153 0.123287 -0.06262232 0.8512722 0.3659486 0.3776908 -0.1526416 0.412916 0.8982387 0.09980442 0.1624267 0.9823875 -0.3150682 0.4090022 0.8571428 0.4442272 0.3737767 0.81409 0.4403126 -0.8140904 -0.3796477 0.7318983 0.04892313 -0.6790606 0.7045011 0.2172206 -0.6751468 0.8669277 0.3013693 0.3972602 -0.1311153 0.2172213 0.9667319 0.06262249 0.2739727 0.9589041 -0.7827787 0.2524468 0.5675147 -0.8532287 0.3444233 0.3933463 -0.5753422 0.4285719 0.6966732 -5.506401E-07 -0.8199609 -0.5714285 -2.365524E-08 -0.03522513 -1 0.003914144 0.3718199 -0.927593 0.06849371 0.8277887 0.5577299 0.7240709 0.6790602 0.1193737 -0.5812128 0.7651668 0.2759295 -0.998043 0.07240772 0.005870835 -0.9686888 0.09980498 0.2309197 -0.7651668 -0.5792558 0.2818004 -0.4403136 -0.8140898 -0.3796477 -0.7318982 0.06066579 -0.6790606 0.007827944 0.2309197 -0.9726027 -0.5459882 0.1272019 -0.8277887 -0.02543969 0.9295498 -0.3698631 0.6360081 0.3737764 -0.6751468 -0.7847354 0.536204 -0.3131116 -0.610568 -0.7925632 -0.001956878 -0.9393345 0.2230926 -0.2583171 0.02348343 0.1017611 -0.9941292 -0.4911935 0.3170257 -0.8121331 0.5772997 0.4461836 0.6829746 -0.121331 -0.5342465 0.8356164 0.7690799 -0.5792568 0.2700587 0.1389434 0.2230919 0.964775 0.02739668 -0.9921722 0.1252446 -2.663411E-07 -0.4559687 0.890411 2.731997E-07 0.4677104 0.8845401 -0.1389431 0.223092 0.964775 -0.02739784 -0.9921722 0.1252446 0.1213304 -0.5342466 0.8356164 -0.5772992 0.4461843 0.6829746 -0.7690806 -0.5792559 0.2700587 0.1389434 0.223092 0.964775 0.2759301 0.8180038 0.5048923 3.140883E-07 0.4677105 0.8845401 0.5772997 0.4461836 0.6829745 0.457926 0.4696671 0.7553815 -0.3757336 0.3796481 0.8454011 -0.2720151 0.8062625 0.5264187 0.7749515 0.5890406 0.2289628 -0.1311153 0.2172213 0.9667319 0.9706458 0.09001894 0.2191781 0.7690798 -0.5792569 0.2700588 0.9236793 0.3170249 0.2172211 0.1330727 0.3972603 0.9080234 0.9197654 0.3737763 0.1213307 -0.5772991 0.4461844 0.6829745 -0.7729937 0.5851277 0.2446184 0.610567 -0.792564 -0.001956878 0.9960861 0.007827112 -0.09393346 -0.09588975 0.9902153 -0.09393355 0.8727984 -0.06066599 -0.483366 0.6399219 0.2994124 -0.7064579 -0.7045007 0.4305289 0.5636007 -0.9706457 0.09002024 0.2191781 -0.7690806 -0.5792558 0.2700588 -0.7495105 0.3405094 0.5675147 -0.9628179 0.1996093 0.1800391 0.4461834 -0.8336598 -0.3268101 -4.520769E-07 -0.6731899 -0.7397259 -0.01565564 -0.09980439 -0.9941292 -0.02348311 0.3855185 -0.9217222 -0.9099801 0.4148734 -0.01369867 -0.9960861 0.007828449 -0.09393346 -0.610568 -0.7925632 -0.001956878 -0.6673188 0.311155 -0.6771037 -0.8375735 -0.1076316 -0.5342466 -0.4461845 -0.8336592 -0.3268101 0.9021524 -0.430529 0.01174168 0.7906063 -0.610568 -0.03522505 0.8258315 -0.3405094 -0.4500979 0.7945204 -0.1898244 0.5753425 0.5851267 -0.7475542 -0.3150685 0.3796471 -0.9256362 0.005870841 0.3346374 -0.898239 0.2857143 0.7436396 -0.5596874 0.3639922 0.4990212 -0.4266148 -0.7534246 0.444227 -0.01369893 -0.8962818 0.02348336 -0.00391391 1 0.2035226 0.09980417 0.9745597 0.4461839 -0.005871141 0.8943248 -5.821803E-07 -0.8669276 -0.4990215 -6.518317E-07 -0.9706458 0.2407045 -6.715443E-07 -1 -0.01761252 -4.205366E-07 -0.6262231 0.7808219 0.3561642 -0.3072409 0.8825831 -1.34046E-07 -0.1996086 -0.9804305 9.724909E-08 0.1448141 -0.9902152 -7.490808E-08 -0.111546 0.9941292 1.774139E-07 0.2641879 0.964775 -0.3346386 -0.8982385 0.2857143 -0.3796484 -0.9256358 0.005870841 -0.3561646 -0.3072405 0.8825831 -0.444227 -0.01369833 -0.8962818 -0.4990218 -0.4266142 -0.7534246 -0.02348337 -0.003913878 1 -0.4461839 -0.005870542 0.8943248 -0.2035224 0.09980444 0.9745597 -0.7906071 -0.610567 -0.03522505 -0.7436403 -0.5596864 0.3639922 -0.5851277 -0.7475534 -0.3150685 -0.8258319 -0.3405083 -0.4500979 -0.7945207 -0.1898233 0.5753425 -0.902153 -0.4305278 0.01174168 0.2544031 -0.1213309 0.9589041 -7.490808E-08 -0.111546 0.9941292 0.3209391 -0.4207439 0.849315 0.4520547 -0.09980461 0.8864971 -0.2544032 -0.1213306 0.9589041 -0.3209396 -0.4207434 0.849315 -3.022607E-07 -0.4500979 0.8923679 0.3405082 -0.8825834 0.3248532 0.5518588 -0.3698634 0.7475538 0.5518587 -0.5792567 0.6007828 -0.4520549 -0.099804 0.8864971 -0.5518593 -0.3698626 0.7475538 -0.3405094 -0.8825829 0.3248532 -6.321191E-07 -0.9412916 0.334638 0.5283752 -0.7945209 0.3013699 0.2798428 -0.9589043 -0.04500978 0.7534242 -0.608611 0.2524462 0.8238746 -0.2309203 0.518591 0.3131109 -0.9491196 0.03131115 -0.5518595 -0.579256 0.6007828 -0.7534251 -0.6086101 0.2524462 -0.5283763 -0.7945202 0.3013699 -0.2798441 -0.9589039 -0.04500978 -6.702302E-07 -0.9980431 -0.04500978 0.5577294 -0.8258321 -0.08806262 0.8982385 -0.3483372 -0.2681018 0.9980431 0.05087996 -0.04305284 0.4853224 -0.7338555 0.4755382 0.2152635 -0.9471626 -0.2387476 -0.823875 -0.2309192 0.518591 -0.3131122 -0.9491192 0.03131115 -0.5577305 -0.8258314 -0.08806262 0.9256362 0.2896276 -0.2465753 0.8199612 0.5244613 0.2270059 0.5009788 0.4129155 0.7592955 -1.011916E-07 -0.1506849 0.9882583 -6.68916E-07 -0.9960861 0.08610567 -6.137205E-07 -0.9138943 -0.407045 -0.2152648 -0.9471623 -0.2387476 -0.4853234 -0.7338549 0.4755382 -0.898239 -0.348336 -0.2681018 0.5303331 0.6360075 0.5596869 0.8806264 0.3307235 0.3385518 0.3561649 0.7592953 0.5440313 4.402492E-07 0.6555773 0.7553816 -0.5009782 0.4129162 0.7592955 -0.998043 0.0508813 -0.04305284 -0.9256358 0.2896288 -0.2465753 0.5596872 0.4148724 0.7181996 0.9452055 0.1056745 0.3111546 0.7279844 0.05283708 0.6829746 2.667779E-07 0.3972603 0.9178082 -0.3561639 0.7592958 0.5440313 -0.5303323 0.6360082 0.5596869 -0.8199605 0.5244624 0.2270059 -0.880626 0.3307247 0.3385518 -0.9452054 0.1056758 0.3111546 -0.9941291 0.06457993 -0.08610567 0.9941292 0.06457859 -0.08610567 0.5675148 0.172211 0.8062623 -0.5596866 0.4148732 0.7181996 -0.7279843 0.05283806 0.6829746 -0.5675145 0.1722117 0.8062623 9.330655E-08 0.1389433 0.9902152 0.765166 -0.5792568 0.2818004 0.5753427 0.4285711 0.6966732 -0.121331 -0.5342465 0.8356164 0.1389434 0.2230919 0.964775 0.02739668 -0.9921722 0.1252446 0.1526421 0.4129158 0.8982387 -2.663411E-07 -0.4559687 0.890411 -0.09980421 0.1624267 0.9823875 -0.02739784 -0.9921722 0.1252446 -0.6183951 0.4227009 0.6614481 0.1213304 -0.5342466 0.8356164 -0.7651667 -0.5792559 0.2818004 -0.1389431 0.223092 0.964775 2.731997E-07 0.4677104 0.8845401 -0.2759291 0.8180041 0.5048923 -0.5772992 0.4461843 0.6829746 0.1389434 0.2230919 0.964775 0.2720161 0.8062621 0.5264188 0.3757341 0.3796476 0.8454012 -0.4579254 0.4696676 0.7553816 -0.7749507 0.5890416 0.2289628 -0.9706457 0.09002014 0.2191781 -0.7690806 -0.5792559 0.2700587 0.5772997 0.4461836 0.6829746 0.7729945 0.5851267 0.2446184 0.7495109 0.3405084 0.5675147 0.7045012 0.430528 0.5636008 -0.1330722 0.3972604 0.9080235 -0.9236789 0.317026 0.2172211 -0.9197649 0.3737774 0.1213307 -0.9960861 0.007828371 -0.09393346 -0.610568 -0.7925633 0.001956947 0.7690799 -0.5792568 0.2700587 0.9706458 0.090019 0.2191781 0.9628181 0.199608 0.1800391 0.9099807 0.4148723 -0.01369863 0.09589099 0.9902152 -0.09393346 -0.6399215 0.2994133 -0.7064579 -0.8727985 -0.06066485 -0.483366 -0.4461844 -0.8336592 -0.3268102 0.610567 -0.792564 0.001956947 0.9960861 0.007827207 -0.09393346 0.6673192 0.3111542 -0.6771037 0.8375733 -0.1076326 -0.5342466 0.02348359 0.3855186 -0.9217221 0.01565552 -0.09980431 -0.9941292 -3.932247E-07 -0.6731898 -0.739726 0.4461835 -0.8336597 -0.3268102 3.94253E-09 0.005870841 -1 0.9491193 -0.05479516 -0.3072407 -6.492033E-07 -0.9667319 -0.258317 -0.9491194 -0.05479388 -0.3072407 6.386899E-07 0.9510763 -0.3072407 0.9726027 -0.1291592 -0.1956947 0.647749 -0.7455973 -0.1506849 0.7025445 0.6673185 -0.2465753 -0.64775 -0.7455965 -0.1506849 -6.636593E-07 -0.9882583 -0.146771 -0.9726028 -0.1291579 -0.1956947 -0.7025436 0.6673195 -0.2465753 6.452608E-07 0.960861 -0.2798434 8.804985E-08 0.1311155 -0.9921722 2.207817E-07 0.3287671 -0.9452055 0.6771038 0.1780817 -0.7142857 6.623451E-07 0.9863014 -0.1604697 0.6223094 0.3718196 -0.6888454 0.9549904 0.2896275 -0.04696673 6.623451E-07 0.9863014 -0.1604697 0.8786696 0.4716237 -0.07632094 0.6751471 0.4031307 0.6183953 6.623451E-07 0.9863014 -0.1604697 0.6203526 0.5733851 0.5362035 3.009465E-07 0.4481409 0.8943248 6.623451E-07 0.9863014 -0.1604697 4.126515E-07 0.6144814 0.7886497 -0.6751465 0.4031316 0.6183953 6.623451E-07 0.9863014 -0.1604697 -0.6203519 0.573386 0.5362035 -0.878669 0.4716249 -0.07632094 -0.95499 0.2896288 -0.04696673 6.623451E-07 0.9863014 -0.1604697 6.623451E-07 0.9863014 -0.1604697 -0.622309 0.3718204 -0.6888454 -0.6771036 0.1780827 -0.7142857 6.623451E-07 0.9863014 -0.1604697 2.207817E-07 0.3287671 -0.9452055 8.804985E-08 0.1311155 -0.9921722 -0.9354205 0.3463803 -0.05479452 -0.7514674 0.426615 0.5029354 -0.8277883 0.5538166 -0.08806262 -0.7455967 0.2739731 -0.6086106 3.285442E-07 0.4892368 0.8727984 -0.5107628 0.6849319 0.5205479 6.623451E-07 0.9863014 -0.1604697 -0.504892 0.5048927 -0.7005871 1.577012E-07 0.2348337 -0.9726027 0.751468 0.426614 0.5029354 0.5107637 0.6849312 0.5205479 5.138431E-07 0.7651663 0.6457925 0.827789 0.5538155 -0.08806262 0.5048927 0.504892 -0.7005871 3.64027E-07 0.5420744 -0.8395303 0.7455971 0.2739721 -0.6086106 0.935421 0.346379 -0.05479452 -0.9960862 -0.06262164 0.04892368 -0.9315068 0.09393409 -0.3522505 -0.1859106 -0.9784735 -0.08414873 0.05283692 -0.9765167 0.2113503 -0.9471624 0.001957583 0.3228963 -0.1213313 -0.9158512 -0.3816047 -0.6262231 -0.01956905 -0.778865 -6.597168E-07 -0.9823875 0.1917808 0.09197594 -0.855186 0.5107632 -0.04696722 -0.7318982 0.6790606 -0.7866927 0.0861062 0.6105675 -0.02935475 -0.8043053 -0.5949119 -0.3718197 0.342466 -0.8630137 -0.4696673 0.1076324 0.8767123 0.03131055 -0.8923679 0.4520548 -6.229198E-07 -0.9275929 -0.3737769 1.984407E-07 0.295499 -0.9549902 -4.823029E-07 -0.7181996 0.6966732 6.833719E-08 0.1017613 0.9941292 0.02935367 -0.8043053 -0.5949119 0.3718202 0.3424655 -0.8630137 -0.03131175 -0.8923679 0.4500979 0.4696674 0.1076318 0.8767123 0.6262231 -0.01956989 -0.778865 0.1213301 -0.9158514 -0.3816047 0.04696624 -0.7318983 0.6790606 0.7866928 0.08610515 0.6105675 0.9315069 0.09393284 -0.3522505 0.1780815 -0.9804307 -0.08219178 -0.09589098 -0.8532289 0.5127202 -0.06457991 -0.9745596 0.2133072 0.9471624 -0.001957583 0.3209393 0.9960861 -0.07045077 0.05088063 -0.6262231 -0.01956905 -0.778865 -0.5694711 0.7671236 -0.2935421 -0.3718197 0.342466 -0.8630137 -0.9315068 0.09393409 -0.3522505 -0.5420738 0.8336598 -0.09393346 6.570884E-07 0.9784736 -0.2035225 -0.2798428 0.9099806 -0.3052838 6.308048E-07 0.9393346 -0.3424658 1.984407E-07 0.295499 -0.9549902 -0.9960862 -0.06262164 0.04892368 -0.6223087 0.7671237 -0.1604697 0.3718202 0.3424655 -0.8630137 0.2798441 0.9099802 -0.3052838 -0.9471624 0.001957583 0.3228963 -0.5988253 0.7416834 -0.3033268 0.5694721 0.7671229 -0.2935421 0.6262231 -0.01956989 -0.778865 -0.6516629 0.7455973 -0.1369863 -0.7866927 0.0861062 0.6105675 0.9315069 0.09393284 -0.3522505 0.5420749 0.8336591 -0.09393346 -0.4344417 0.8649709 0.2485323 -0.4696673 0.1076324 0.8767123 0.6223097 0.7671229 -0.1604697 0.9960861 -0.07045077 0.05088063 0.5988263 0.7416825 -0.3033268 5.585251E-07 0.8317025 0.553816 0.6516639 0.7455965 -0.1369863 0.4344428 0.8649703 0.2485323 6.833719E-08 0.1017613 0.9941292 0.9471624 -0.001957583 0.3209393 0.4696674 0.1076318 0.8767123 0.7866928 0.08610515 0.6105675</float_array>
          <technique_common>
            <accessor source="#polygon2-normal-array" count="468" stride="3">
              <param name="X" type="float" />
              <param name="Y" type="float" />
              <param name="Z" type="float" />
            </accessor>
          </technique_common>
        </source>
        <source id="polygon2-texcoord">
          <float_array id="polygon2-texcoord-array" count="936">0.098702 0.526689 0.165073 0.587716 0.051449 0.587232 0.182503 0.737796 -0.176375 0.737797 0.134179 0.876428 -0.045321 0.587233 0.003063 0.513578 -0.158946 0.587716 -0.128051 0.876429 0.003064 0.967556 -0.092574 0.526689 0.098702 0.526689 0.165073 0.587716 0.051449 0.587232 0.182503 0.737796 -0.176375 0.737797 -0.045321 0.587233 0.003063 0.513578 0.134179 0.876428 -0.158946 0.587716 -0.128051 0.876429 -0.092574 0.526689 0.003064 0.967556 -0.141237 0.604435 -0.100546 0.56657 -0.083759 0.610774 -0.044314 0.573032 -0.049081 0.607259 -0.000935 0.567224 -0.000935 0.609493 0.042443 0.573031 0.047211 0.607259 0.098676 0.566569 0.081889 0.610774 0.139367 0.604435 0.220343 0.637625 0.21692 0.731174 0.218183 0.638629 0.219994 0.722661 0.224623 0.638873 0.219994 0.722661 0.220343 0.637625 0.21774 0.814589 0.220571 0.876426 0.223423 0.711018 0.226889 0.700452 0.229256 0.64482 0.223423 0.711018 0.222633 0.886436 0.22053 0.87782 0.224623 0.638873 0.219092 0.872024 0.226052 0.902752 0.226395 0.750136 0.23158 0.726863 0.226395 0.750136 0.226889 0.700452 0.227379 0.904071 0.221679 0.98272 0.219367 0.96143 0.218769 0.954534 0.229256 0.64482 0.2285 0.799223 0.2285 0.799223 0.231178 0.712862 0.23158 0.726863 0.2248 1.009966 0.229029 0.902095 0.221478 1.044847 0.219419 0.960679 0.224911 0.996581 0.232148 0.725446 0.231178 0.712862 0.226095 1.018044 0.165073 0.587716 0.098702 0.526689 0.051449 0.587232 0.182503 0.737796 0.003063 0.513578 -0.045321 0.587233 -0.176375 0.737797 0.134179 0.876428 -0.092574 0.526689 -0.158946 0.587716 -0.128051 0.876429 0.003064 0.967556 -0.138564 0.608087 -0.098464 0.556888 -0.081921 0.608087 -0.043048 0.577786 -0.047746 0.608087 -0.0003 0.559003 -0.0003 0.608087 0.042449 0.577785 0.047147 0.608087 0.097864 0.556887 0.081321 0.608087 0.137965 0.608087 0.003063 0.513578 -0.045321 0.587233 0.051449 0.587232 -0.092574 0.526689 -0.158946 0.587716 -0.176375 0.737797 0.165073 0.587716 0.098702 0.526689 0.182503 0.737796 0.134179 0.876428 -0.128051 0.876429 0.003064 0.967556 0.229256 0.64482 0.226889 0.700452 0.23158 0.726863 0.224623 0.638873 0.223423 0.711018 0.226395 0.750136 0.232148 0.725446 0.231178 0.712862 0.2285 0.799223 0.2285 0.799223 0.220343 0.637625 0.219994 0.722661 0.220571 0.876426 0.226052 0.902752 0.231178 0.712862 0.229029 0.902095 0.227379 0.904071 0.226395 0.750136 0.23158 0.726863 0.218183 0.638629 0.21692 0.731174 0.21774 0.814589 0.226095 1.018044 0.224911 0.996581 0.2248 1.009966 0.223423 0.711018 0.226889 0.700452 0.229256 0.64482 0.220343 0.637625 0.219994 0.722661 0.219092 0.872024 0.22053 0.87782 0.221478 1.044847 0.219419 0.960679 0.221679 0.98272 0.224623 0.638873 0.222633 0.886436 0.218769 0.954534 0.219367 0.96143 0.097864 0.556887 0.081321 0.608087 0.137965 0.608087 0.042449 0.577785 0.047147 0.608087 -0.0003 0.608087 -0.0003 0.559003 -0.043048 0.577786 -0.047746 0.608087 -0.081921 0.608087 -0.098464 0.556888 -0.138564 0.608087 0.231028 0.750617 0.228508 0.805773 0.232086 0.759676 0.231466 0.760696 0.225867 0.820776 0.225867 0.820776 0.228508 0.805773 0.225809 0.77745 0.231028 0.750617 0.226348 0.741682 0.22893 0.701635 0.222129 0.928246 0.226371 0.948161 0.222447 0.78587 0.231466 0.760696 0.225809 0.77745 0.223875 0.697352 0.222565 0.743833 0.221344 1.03719 0.21878 0.742864 0.215967 0.924198 0.224731 0.941067 0.226348 0.741682 0.22893 0.701635 0.224279 0.811718 0.222447 0.78587 0.219205 0.696454 0.216135 0.697177 0.215694 0.743537 0.215081 0.929564 0.221169 0.934533 0.222565 0.743833 0.223875 0.697352 0.216925 0.928436 0.21878 0.742864 0.219205 0.696454 0.467942 0.386621 0.478791 0.09984303 0.655919 0.386621 0.300317 0.386621 0.707395 0.05744898 0.48178 0.04139 0.258923 0.05138701 0.272439 0.110401 0.843097 0.09060597 0.806497 0.321333 0.085825 0.327117 0.085825 0.208129 0.085825 0.149662 0.806496 0.001172006 0.249731 0.01190799 0.480516 0.001565993 0.085825 0.03616101 0.085825 0.09122902 0.955745 0.189965 0.806497 0.365452 0.085825 0.339735 -0.001698 0.205997 0.258923 0.05138701 0.48178 0.04139 0.085825 0.09122902 0.806497 0.321333 0.843097 0.09060597 0.085825 0.327117 0.085825 0.149662 0.085825 0.208129 0.478791 0.09984303 0.272439 0.110401 0.707395 0.05744898 0.655919 0.386621 0.300317 0.386621 0.467942 0.386621 0.369553 0.67566 0.358923 0.659682 0.373798 0.649161 0.390974 0.693914 0.369553 0.67566 0.373798 0.649161 0.361386 0.632802 0.410562 0.614729 0.396125 0.679583 0.426191 0.717148 0.390974 0.693914 0.396125 0.679583 0.410562 0.614729 0.393848 0.605921 0.428966 0.65527 0.561854 0.631857 0.468203 0.697129 0.427857 0.72831 0.390974 0.693914 0.426191 0.717148 0.468203 0.697129 0.428966 0.65527 0.561854 0.631857 0.551347 0.614845 0.577509 0.668637 0.595078 0.725798 0.515923 0.768155 0.360714 0.696881 0.369553 0.67566 0.427857 0.72831 0.390974 0.693914 0.577509 0.668637 0.617694 0.821567 0.519031 0.810041 0.420522 0.739477 0.302334 0.699368 0.323873 0.644098 0.358923 0.659682 0.369553 0.67566 0.360714 0.696881 0.595078 0.725798 0.459733 0.773112 0.52214 0.84605 0.40472 0.7689 0.277941 0.744574 0.420522 0.739477 0.515923 0.768155 0.617694 0.821567 0.414089 0.796775 0.517142 0.900512 0.423514 0.866087 0.312756 0.786908 0.40472 0.7689 0.459733 0.773112 0.519031 0.810041 0.52214 0.84605 0.517142 0.900512 0.609205 0.893516 0.609205 0.893516 0.416114 0.895347 0.414089 0.796775 0.423514 0.866087 0.416114 0.895347 0.3125 0.920984 0.139367 0.604435 0.098676 0.566569 0.081889 0.610774 0.042443 0.573031 0.047211 0.607259 -0.000935 0.567224 -0.000935 0.609493 -0.044314 0.573032 -0.049081 0.607259 -0.100546 0.56657 -0.083759 0.610774 -0.141237 0.604435 0.231028 0.750617 0.232086 0.759676 0.228508 0.805773 0.231466 0.760696 0.231028 0.750617 0.228508 0.805773 0.225867 0.820776 0.225867 0.820776 0.225809 0.77745 0.226348 0.741682 0.22893 0.701635 0.231466 0.760696 0.225809 0.77745 0.224279 0.811718 0.224731 0.941067 0.226371 0.948161 0.222129 0.928246 0.222447 0.78587 0.222565 0.743833 0.223875 0.697352 0.22893 0.701635 0.226348 0.741682 0.222447 0.78587 0.221169 0.934533 0.221344 1.03719 0.215967 0.924198 0.21878 0.742864 0.219205 0.696454 0.223875 0.697352 0.222565 0.743833 0.216925 0.928436 0.21878 0.742864 0.215081 0.929564 0.215694 0.743537 0.216135 0.697177 0.219205 0.696454 0.212498 0.737509 0.211722 0.787214 0.207762 0.79466 0.211722 0.787214 0.215199 0.78517 0.212304 0.964558 0.207204 0.980957 0.217611 0.943944 0.207204 0.980957 0.20349 0.993832 0.212304 0.964558 0.217611 0.943944 0.220569 0.927577 0.938707 0.618275 0.938707 0.744967 0.923863 0.618275 0.931043 0.7487 0.923882 0.744967 0.90936 0.618275 0.916456 0.7487 0.90936 0.744967 0.894214 0.618275 0.901691 0.7487 0.894214 0.744967 0.878687 0.618275 0.886446 0.7487 0.878694 0.744967 0.863833 0.618275 0.870532 0.7487 0.86387 0.744967 0.84826 0.744967 0.848043 0.618275 0.855946 0.7487 0.84118 0.7487 0.833497 0.744967 0.833219 0.618275 0.825935 0.7487 0.817758 0.745587 0.817448 0.618275 0.879631 0.477455 0.908859 0.477455 0.879631 0.580059 0.850403 0.477455 0.938086 0.477455 0.908859 0.580059 0.879638 0.737371 0.850403 0.580059 0.821175 0.477455 0.908859 0.477455 0.908859 0.580059 0.938086 0.580059 0.879631 0.580059 0.850403 0.580059 0.821175 0.580059 0.850403 0.477455 0.879631 0.477455 2.757954 1.006243 2.767054 1.070848 2.80324 1.062382 2.798494 1.006625 2.762595 0.95928 2.865301 1.162417 2.843393 1.182718 3.000881 0.995465 2.80359 0.95694 2.836595 0.895196 2.794029 0.879021 2.933091 1.185681 2.922137 1.205623 2.891045 0.799606 2.915647 0.824203 3.000881 1.208945 3.000881 1.228527 3.000881 0.797505 3.000881 0.771473 3.068671 1.185681 3.079625 1.205623 3.086115 0.824203 3.110718 0.799606 3.158369 1.182718 3.13646 1.162417 3.165169 0.895196 3.207734 0.879021 3.234708 1.070848 3.198523 1.062382 3.198174 0.95694 3.20327 1.006625 3.239168 0.960455 3.243809 1.006243 0.843353 1.194492 0.879975 1.16084 0.921676 1.218768 0.76749 1.077179 0.821055 1.067565 1 0.999599 0.939987 1.181179 1 1.201518 1 1.243044 0.756979 1.007132 0.814674 1.006386 1.078324 1.218768 1.060013 1.182126 0.76104 0.958619 0.81675 0.968568 1.120025 1.162735 1.156648 1.194492 0.841834 0.891732 0.793642 0.870309 1.23251 1.077179 1.178946 1.067565 0.915637 0.817919 0.890256 0.784766 1.185326 1.006386 1.243021 1.007132 1.183249 0.968568 1 0.79057 1.158166 0.891732 1.084363 0.817919 1 0.755334 1.23896 0.959268 1.109745 0.784766 1.206358 0.870309</float_array>
          <technique_common>
            <accessor source="#polygon2-texcoord-array" count="468" stride="2">
              <param name="S" type="float" />
              <param name="T" type="float" />
            </accessor>
          </technique_common>
        </source>
        <vertices id="polygon2-vertex">
          <input semantic="POSITION" source="#polygon2-position" />
        </vertices>
        <triangles material="mat_met_toge_body" count="642">
          <input semantic="VERTEX" source="#polygon2-vertex" offset="0" />
          <input semantic="NORMAL" source="#polygon2-normal" offset="1" />
          <input semantic="TEXCOORD" source="#polygon2-texcoord" offset="2" set="0" />
          <p>0 0 0 1 1 1 2 2 2 1 1 1 3 3 3 2 2 2 3 3 3 4 4 4 2 2 2 3 3 3 5 5 5 4 4 4 2 2 2 4 4 4 6 6 6 2 2 2 6 6 6 7 7 7 4 4 4 8 8 8 6 6 6 4 4 4 5 5 5 9 9 9 5 5 5 10 10 10 9 9 9 6 6 6 8 8 8 11 11 11 12 12 12 13 13 13 14 14 14 13 13 13 15 15 15 14 14 14 14 14 14 16 16 16 17 17 17 14 14 14 15 15 15 16 16 16 14 14 14 17 17 17 18 18 18 15 15 15 19 19 19 16 16 16 16 16 16 20 20 20 17 17 17 16 16 16 19 19 19 21 21 21 17 17 17 20 20 20 22 22 22 19 19 19 23 23 23 21 21 21 24 24 24 25 25 25 26 26 26 25 25 25 27 27 27 26 26 26 26 26 26 27 27 27 28 28 28 27 27 27 29 29 29 30 30 30 27 27 27 30 30 30 28 28 28 29 29 29 31 31 31 30 30 30 30 30 30 31 31 31 32 32 32 31 31 31 33 33 33 34 34 34 31 31 31 34 34 34 32 32 32 33 33 33 35 35 35 34 34 34 36 36 36 37 37 37 38 38 38 36 36 36 39 39 39 37 37 37 36 36 36 40 40 40 39 39 39 37 37 37 41 41 41 42 42 42 37 37 37 43 43 43 41 41 41 37 37 37 39 39 39 43 43 43 37 37 37 42 42 42 38 38 38 39 39 39 44 44 44 43 43 43 39 39 39 45 45 45 44 44 44 39 39 39 40 40 40 45 45 45 40 40 40 46 46 46 45 45 45 40 40 40 47 47 47 46 46 46 41 41 41 48 48 48 42 42 42 41 41 41 49 49 49 48 48 48 41 41 41 50 50 50 49 49 49 41 41 41 43 43 43 50 50 50 42 42 42 48 48 48 51 51 51 43 43 43 52 52 52 50 50 50 43 43 43 44 44 44 52 52 52 45 45 45 53 53 53 44 44 44 45 45 45 54 54 54 53 53 53 45 45 45 46 46 46 54 54 54 46 46 46 47 47 47 55 55 55 46 46 46 55 55 55 54 54 54 48 48 48 56 56 56 57 57 57 48 48 48 58 58 58 56 56 56 48 48 48 49 49 49 58 58 58 48 48 48 57 57 57 51 51 51 49 49 49 59 59 59 58 58 58 49 49 49 60 60 60 59 59 59 49 49 49 50 50 50 60 60 60 50 50 50 61 61 61 60 60 60 50 50 50 52 52 52 61 61 61 51 51 51 57 57 57 62 62 62 52 52 52 44 44 44 61 61 61 54 54 54 63 63 63 53 53 53 54 54 54 55 55 55 63 63 63 55 55 55 64 64 64 63 63 63 55 55 55 65 65 65 64 64 64 57 57 57 66 66 66 62 62 62 57 57 57 56 56 56 66 66 66 56 56 56 58 58 58 64 64 64 56 56 56 64 64 64 66 66 66 58 58 58 67 67 67 68 68 68 58 58 58 59 59 59 67 67 67 58 58 58 68 68 68 64 64 64 59 59 59 60 60 60 69 69 69 59 59 59 69 69 69 67 67 67 60 60 60 61 61 61 69 69 69 61 61 61 70 70 70 69 69 69 61 61 61 44 44 44 70 70 70 44 44 44 71 71 71 70 70 70 44 44 44 53 53 53 71 71 71 63 63 63 68 68 68 53 53 53 63 63 63 64 64 64 68 68 68 64 64 64 65 65 65 72 72 72 64 64 64 73 73 73 66 66 66 64 64 64 72 72 72 73 73 73 67 67 67 74 74 74 68 68 68 67 67 67 69 69 69 74 74 74 68 68 68 74 74 74 53 53 53 69 69 69 71 71 71 74 74 74 69 69 69 70 70 70 71 71 71 71 71 71 53 53 53 74 74 74 75 75 75 76 76 76 77 77 77 75 75 75 77 77 77 78 78 78 77 77 77 79 79 79 80 80 80 77 77 77 80 80 80 78 78 78 78 78 78 80 80 80 81 81 81 78 78 78 81 81 81 82 82 82 80 80 80 83 83 83 84 84 84 80 80 80 84 84 84 81 81 81 81 81 81 85 85 85 82 82 82 82 82 82 85 85 85 86 86 86 87 87 87 88 88 88 89 89 89 88 88 88 90 90 90 89 89 89 89 89 89 90 90 90 91 91 91 90 90 90 92 92 92 93 93 93 90 90 90 93 93 93 91 91 91 92 92 92 94 94 94 93 93 93 93 93 93 94 94 94 95 95 95 94 94 94 96 96 96 97 97 97 94 94 94 97 97 97 95 95 95 96 96 96 98 98 98 97 97 97 99 99 99 100 100 100 101 101 101 100 100 100 102 102 102 103 103 103 100 100 100 103 103 103 104 104 104 100 100 100 104 104 104 101 101 101 101 101 101 105 105 105 106 106 106 101 101 101 107 107 107 105 105 105 101 101 101 104 104 104 107 107 107 104 104 104 108 108 108 107 107 107 104 104 104 109 109 109 108 108 108 108 108 108 109 109 109 110 110 110 111 111 111 112 112 112 113 113 113 111 111 111 114 114 114 112 112 112 112 112 112 114 114 114 115 115 115 112 112 112 115 115 115 116 116 116 112 112 112 116 116 116 113 113 113 113 113 113 117 117 117 118 118 118 113 113 113 119 119 119 117 117 117 113 113 113 120 120 120 119 119 119 113 113 113 116 116 116 120 120 120 114 114 114 121 121 121 122 122 122 114 114 114 122 122 122 115 115 115 115 115 115 122 122 122 123 123 123 115 115 115 123 123 123 124 124 124 115 115 115 124 124 124 116 116 116 116 116 116 124 124 124 120 120 120 117 117 117 119 119 119 125 125 125 120 120 120 126 126 126 119 119 119 120 120 120 124 124 124 126 126 126 119 119 119 127 127 127 128 128 128 119 119 119 128 128 128 129 129 129 119 119 119 129 129 129 125 125 125 119 119 119 126 126 126 127 127 127 121 121 121 130 130 130 131 131 131 121 121 121 131 131 131 122 122 122 122 122 122 131 131 131 132 132 132 122 122 122 132 132 132 123 123 123 124 124 124 133 133 133 126 126 126 124 124 124 134 134 134 133 133 133 124 124 124 123 123 123 134 134 134 126 126 126 135 135 135 127 127 127 126 126 126 133 133 133 135 135 135 128 128 128 127 127 127 136 136 136 128 128 128 137 137 137 129 129 129 128 128 128 136 136 136 137 137 137 129 129 129 137 137 137 138 138 138 130 130 130 139 139 139 131 131 131 131 131 131 140 140 140 132 132 132 131 131 131 139 139 139 140 140 140 132 132 132 141 141 141 123 123 123 132 132 132 142 142 142 141 141 141 132 132 132 140 140 140 142 142 142 133 133 133 134 134 134 143 143 143 133 133 133 143 143 143 135 135 135 134 134 134 144 144 144 143 143 143 134 134 134 123 123 123 144 144 144 135 135 135 145 145 145 127 127 127 135 135 135 143 143 143 145 145 145 137 137 137 136 136 136 146 146 146 137 137 137 146 146 146 138 138 138 139 139 139 136 136 136 140 140 140 139 139 139 146 146 146 136 136 136 140 140 140 147 147 147 142 142 142 140 140 140 136 136 136 147 147 147 136 136 136 127 127 127 147 147 147 141 141 141 148 148 148 123 123 123 141 141 141 142 142 142 148 148 148 123 123 123 148 148 148 144 144 144 142 142 142 149 149 149 148 148 148 142 142 142 147 147 147 149 149 149 143 143 143 144 144 144 148 148 148 143 143 143 148 148 148 149 149 149 143 143 143 149 149 149 145 145 145 145 145 145 149 149 149 147 147 147 145 145 145 147 147 147 127 127 127 150 150 150 151 151 151 152 152 152 150 150 150 153 153 153 151 151 151 151 151 151 153 153 153 154 154 154 153 153 153 155 155 155 154 154 154 153 153 153 156 156 156 155 155 155 155 155 155 156 156 156 157 157 157 155 155 155 157 157 157 158 158 158 157 157 157 159 159 159 158 158 158 157 157 157 160 160 160 159 159 159 159 159 159 160 160 160 161 161 161 162 162 162 163 163 163 164 164 164 162 162 162 165 165 165 163 163 163 163 163 163 166 166 166 167 167 167 163 163 163 167 167 167 168 168 168 163 163 163 168 168 168 164 164 164 163 163 163 165 165 165 169 169 169 163 163 163 169 169 169 166 166 166 164 164 164 168 168 168 170 170 170 165 165 165 171 171 171 169 169 169 165 165 165 172 172 172 171 171 171 166 166 166 173 173 173 174 174 174 166 166 166 175 175 175 173 173 173 166 166 166 169 169 169 175 175 175 166 166 166 174 174 174 167 167 167 168 168 168 176 176 176 170 170 170 168 168 168 177 177 177 176 176 176 168 168 168 167 167 167 177 177 177 169 169 169 171 171 171 175 175 175 171 171 171 172 172 172 178 178 178 171 171 171 178 178 178 179 179 179 171 171 171 179 179 179 175 175 175 173 173 173 180 180 180 174 174 174 173 173 173 175 175 175 181 181 181 173 173 173 181 181 181 182 182 182 173 173 173 182 182 182 180 180 180 174 174 174 180 180 180 183 183 183 174 174 174 183 183 183 167 167 167 175 175 175 179 179 179 181 181 181 176 176 176 184 184 184 185 185 185 176 176 176 177 177 177 184 184 184 177 177 177 167 167 167 186 186 186 177 177 177 187 187 187 184 184 184 177 177 177 186 186 186 187 187 187 178 178 178 181 181 181 179 179 179 178 178 178 188 188 188 181 181 181 181 181 181 188 188 188 189 189 189 181 181 181 189 189 189 190 190 190 181 181 181 190 190 190 182 182 182 182 182 182 191 191 191 180 180 180 182 182 182 190 190 190 191 191 191 167 167 167 183 183 183 186 186 186 183 183 183 192 192 192 187 187 187 183 183 183 180 180 180 192 192 192 183 183 183 187 187 187 186 186 186 184 184 184 193 193 193 194 194 194 184 184 184 194 194 194 185 185 185 184 184 184 187 187 187 193 193 193 187 187 187 195 195 195 196 196 196 187 187 187 192 192 192 195 195 195 187 187 187 196 196 196 193 193 193 189 189 189 196 196 196 190 190 190 189 189 189 197 197 197 196 196 196 190 190 190 196 196 196 195 195 195 190 190 190 195 195 195 191 191 191 191 191 191 195 195 195 180 180 180 192 192 192 180 180 180 195 195 195 193 193 193 196 196 196 197 197 197 193 193 193 197 197 197 194 194 194 198 198 198 199 199 199 200 200 200 198 198 198 201 201 201 199 199 199 199 199 199 202 202 202 200 200 200 199 199 199 203 203 203 202 202 202 199 199 199 204 204 204 203 203 203 199 199 199 205 205 205 204 204 204 199 199 199 201 201 201 205 205 205 200 200 200 206 206 206 207 207 207 200 200 200 202 202 202 206 206 206 201 201 201 208 208 208 209 209 209 201 201 201 209 209 209 210 210 210 201 201 201 210 210 210 205 205 205 202 202 202 203 203 203 211 211 211 202 202 202 211 211 211 206 206 206 203 203 203 204 204 204 212 212 212 203 203 203 213 213 213 211 211 211 203 203 203 212 212 212 213 213 213 204 204 204 214 214 214 212 212 212 204 204 204 215 215 215 214 214 214 204 204 204 205 205 205 215 215 215 205 205 205 210 210 210 215 215 215 206 206 206 216 216 216 207 207 207 206 206 206 211 211 211 216 216 216 207 207 207 216 216 216 217 217 217 208 208 208 218 218 218 219 219 219 208 208 208 219 219 219 209 209 209 209 209 209 219 219 219 210 210 210 210 210 210 219 219 219 215 215 215 212 212 212 214 214 214 220 220 220 212 212 212 220 220 220 221 221 221 212 212 212 221 221 221 213 213 213 213 213 213 221 221 221 211 211 211 214 214 214 222 222 222 220 220 220 214 214 214 219 219 219 222 222 222 214 214 214 215 215 215 219 219 219 216 216 216 223 223 223 217 217 217 216 216 216 224 224 224 223 223 223 216 216 216 211 211 211 224 224 224 218 218 218 225 225 225 219 219 219 219 219 219 226 226 226 222 222 222 219 219 219 227 227 227 226 226 226 219 219 219 225 225 225 227 227 227 220 220 220 228 228 228 221 221 221 220 220 220 229 229 229 228 228 228 220 220 220 222 222 222 229 229 229 221 221 221 230 230 230 211 211 211 221 221 221 228 228 228 230 230 230 222 222 222 226 226 226 229 229 229 223 223 223 224 224 224 231 231 231 224 224 224 211 211 211 230 230 230 224 224 224 230 230 230 231 231 231 225 225 225 232 232 232 227 227 227 226 226 226 227 227 227 232 232 232 226 226 226 232 232 232 229 229 229 228 228 228 231 231 231 230 230 230 228 228 228 233 233 233 231 231 231 228 228 228 232 232 232 233 233 233 228 228 228 229 229 229 232 232 232 234 234 234 235 235 235 236 236 236 234 234 234 236 236 236 237 237 237 235 235 235 238 238 238 239 239 239 235 235 235 239 239 239 240 240 240 235 235 235 240 240 240 236 236 236 236 236 236 240 240 240 241 241 241 236 236 236 241 241 241 242 242 242 236 236 236 242 242 242 237 237 237 237 237 237 242 242 242 243 243 243 238 238 238 244 244 244 239 239 239 239 239 239 244 244 244 245 245 245 239 239 239 245 245 245 246 246 246 239 239 239 246 246 246 240 240 240 240 240 240 246 246 246 247 247 247 240 240 240 247 247 247 241 241 241 241 241 241 248 248 248 242 242 242 241 241 241 249 249 249 248 248 248 241 241 241 247 247 247 249 249 249 242 242 242 250 250 250 243 243 243 242 242 242 248 248 248 250 250 250 243 243 243 251 251 251 252 252 252 243 243 243 250 250 250 251 251 251 244 244 244 253 253 253 245 245 245 245 245 245 253 253 253 254 254 254 245 245 245 254 254 254 255 255 255 245 245 245 255 255 255 246 246 246 246 246 246 255 255 255 256 256 256 246 246 246 256 256 256 247 247 247 247 247 247 257 257 257 249 249 249 247 247 247 256 256 256 257 257 257 248 248 248 249 249 249 258 258 258 248 248 248 258 258 258 250 250 250 250 250 250 258 258 258 259 259 259 250 250 250 259 259 259 260 260 260 250 250 250 260 260 260 251 251 251 252 252 252 261 261 261 262 262 262 252 252 252 251 251 251 261 261 261 253 253 253 263 263 263 254 254 254 253 253 253 264 264 264 263 263 263 255 255 255 254 254 254 265 265 265 255 255 255 265 265 265 256 256 256 259 259 259 266 266 266 260 260 260 260 260 260 266 266 266 267 267 267 260 260 260 267 267 267 251 251 251 261 261 261 268 268 268 269 269 269 261 261 261 269 269 269 270 270 270 261 261 261 270 270 270 262 262 262 261 261 261 251 251 251 268 268 268 262 262 262 270 270 270 271 271 271 264 264 264 272 272 272 273 273 273 264 264 264 273 273 273 263 263 263 265 265 265 254 254 254 274 274 274 267 267 267 275 275 275 251 251 251 267 267 267 276 276 276 275 275 275 267 267 267 266 266 266 276 276 276 251 251 251 275 275 275 268 268 268 268 268 268 277 277 277 278 278 278 268 268 268 278 278 278 269 269 269 268 268 268 275 275 275 277 277 277 270 270 270 272 272 272 271 271 271 270 270 270 273 273 273 272 272 272 270 270 270 269 269 269 273 273 273 269 269 269 279 279 279 273 273 273 269 269 269 278 278 278 279 279 279 273 273 273 279 279 279 263 263 263 254 254 254 280 280 280 274 274 274 254 254 254 263 263 263 280 280 280 274 274 274 280 280 280 281 281 281 275 275 275 282 282 282 277 277 277 275 275 275 276 276 276 282 282 282 276 276 276 266 266 266 283 283 283 276 276 276 283 283 283 284 284 284 276 276 276 284 284 284 282 282 282 277 277 277 282 282 282 285 285 285 277 277 277 285 285 285 278 278 278 278 278 278 286 286 286 279 279 279 278 278 278 285 285 285 286 286 286 279 279 279 287 287 287 263 263 263 279 279 279 286 286 286 287 287 287 263 263 263 287 287 287 288 288 288 263 263 263 288 288 288 280 280 280 280 280 280 288 288 288 281 281 281 281 281 281 288 288 288 289 289 289 281 281 281 289 289 289 290 290 290 281 281 281 290 290 290 291 291 291 282 282 282 284 284 284 285 285 285 266 266 266 292 292 292 283 283 283 283 283 283 293 293 293 284 284 284 284 284 284 293 293 293 285 285 285 286 286 286 285 285 285 294 294 294 286 286 286 294 294 294 287 287 287 287 287 287 294 294 294 289 289 289 287 287 287 289 289 289 288 288 288 289 289 289 294 294 294 295 295 295 289 289 289 295 295 295 290 290 290 290 290 290 295 295 295 296 296 296 293 293 293 297 297 297 285 285 285 294 294 294 285 285 285 295 295 295 295 295 295 285 285 285 296 296 296 285 285 285 297 297 297 296 296 296 298 298 298 299 299 299 300 300 300 299 299 299 301 301 301 300 300 300 300 300 300 301 301 301 302 302 302 301 301 301 303 303 303 304 304 304 301 301 301 304 304 304 302 302 302 303 303 303 305 305 305 304 304 304 304 304 304 305 305 305 306 306 306 305 305 305 307 307 307 308 308 308 305 305 305 308 308 308 306 306 306 307 307 307 309 309 309 308 308 308 310 310 310 311 311 311 312 312 312 310 310 310 312 312 312 313 313 313 311 311 311 314 314 314 315 315 315 311 311 311 315 315 315 312 312 312 312 312 312 315 315 315 316 316 316 312 312 312 316 316 316 317 317 317 312 312 312 318 318 318 313 313 313 312 312 312 317 317 317 318 318 318 313 313 313 318 318 318 319 319 319 313 313 313 319 319 319 320 320 320 314 314 314 321 321 321 315 315 315 315 315 315 322 322 322 316 316 316 315 315 315 321 321 321 322 322 322 316 316 316 323 323 323 324 324 324 316 316 316 322 322 322 323 323 323 316 316 316 325 325 325 317 317 317 316 316 316 324 324 324 325 325 325 317 317 317 325 325 325 326 326 326 317 317 317 326 326 326 327 327 327 317 317 317 327 327 327 318 318 318 318 318 318 327 327 327 319 319 319 319 319 319 327 327 327 328 328 328 319 319 319 328 328 328 329 329 329 319 319 319 329 329 329 320 320 320 321 321 321 330 330 330 331 331 331 321 321 321 331 331 331 322 322 322 322 322 322 331 331 331 332 332 332 322 322 322 332 332 332 323 323 323 323 323 323 332 332 332 324 324 324 324 324 324 332 332 332 333 333 333 324 324 324 333 333 333 334 334 334 324 324 324 334 334 334 325 325 325 325 325 325 334 334 334 326 326 326 326 326 326 334 334 334 335 335 335 326 326 326 335 335 335 336 336 336 326 326 326 336 336 336 327 327 327 327 327 327 336 336 336 328 328 328 328 328 328 336 336 336 329 329 329 329 329 329 336 336 336 337 337 337 330 330 330 338 338 338 331 331 331 331 331 331 339 339 339 332 332 332 331 331 331 338 338 338 339 339 339 332 332 332 340 340 340 333 333 333 332 332 332 341 341 341 340 340 340 332 332 332 339 339 339 341 341 341 333 333 333 340 340 340 334 334 334 334 334 334 342 342 342 335 335 335 334 334 334 340 340 340 342 342 342 335 335 335 343 343 343 336 336 336 335 335 335 342 342 342 343 343 343 336 336 336 344 344 344 337 337 337 336 336 336 343 343 343 344 344 344 338 338 338 345 345 345 339 339 339 339 339 339 345 345 345 341 341 341 340 340 340 343 343 343 342 342 342 340 340 340 341 341 341 343 343 343 341 341 341 344 344 344 343 343 343 341 341 341 345 345 345 344 344 344 346 346 346 347 347 347 348 348 348 346 346 346 348 348 348 349 349 349 346 346 346 349 349 349 350 350 350 346 346 346 350 350 350 347 347 347 347 347 347 351 351 351 352 352 352 347 347 347 353 353 353 351 351 351 347 347 347 350 350 350 353 353 353 347 347 347 352 352 352 348 348 348 348 348 348 354 354 354 349 349 349 348 348 348 355 355 355 354 354 354 348 348 348 352 352 352 355 355 355 349 349 349 356 356 356 357 357 357 349 349 349 354 354 354 356 356 356 349 349 349 357 357 357 350 350 350 350 350 350 358 358 358 353 353 353 350 350 350 357 357 357 358 358 358 359 359 359 360 360 360 361 361 361 360 360 360 362 362 362 363 363 363 360 360 360 363 363 363 361 361 361 361 361 361 363 363 363 364 364 364 363 363 363 365 365 365 366 366 366 363 363 363 366 366 366 364 364 364 364 364 364 366 366 366 367 367 367 366 366 366 368 368 368 369 369 369 366 366 366 369 369 369 367 367 367 367 367 367 369 369 369 370 370 370 369 369 369 371 371 371 372 372 372 369 369 369 372 372 372 370 370 370 370 370 370 372 372 372 373 373 373 372 372 372 374 374 374 375 375 375 372 372 372 375 375 375 373 373 373 373 373 373 375 375 375 376 376 376 373 373 373 376 376 376 377 377 377 375 375 375 378 378 378 376 376 376 376 376 376 379 379 379 380 380 380 376 376 376 380 380 380 377 377 377 377 377 377 380 380 380 381 381 381 380 380 380 382 382 382 383 383 383 380 380 380 383 383 383 381 381 381 381 381 381 383 383 383 384 384 384 385 385 385 386 386 386 387 387 387 385 385 385 387 387 387 388 388 388 386 386 386 389 389 389 390 390 390 386 386 386 390 390 390 387 387 387 387 387 387 390 390 390 391 391 391 387 387 387 391 391 391 392 392 392 387 387 387 392 392 392 388 388 388 388 388 388 392 392 392 393 393 393 389 389 389 394 394 394 395 395 395 389 389 389 395 395 395 396 396 396 389 389 389 396 396 396 390 390 390 390 390 390 396 396 396 391 391 391 391 391 391 397 397 397 398 398 398 391 391 391 398 398 398 399 399 399 391 391 391 399 399 399 392 392 392 391 391 391 396 396 396 395 395 395 391 391 391 395 395 395 397 397 397 392 392 392 399 399 399 393 393 393 393 393 393 399 399 399 398 398 398 393 393 393 398 398 398 400 400 400 394 394 394 401 401 401 397 397 397 394 394 394 397 397 397 395 395 395 397 397 397 401 401 401 400 400 400 397 397 397 400 400 400 398 398 398 402 402 402 403 403 403 404 404 404 402 402 402 404 404 404 405 405 405 402 402 402 405 405 405 406 406 406 403 403 403 407 407 407 404 404 404 403 403 403 408 408 408 407 407 407 404 404 404 409 409 409 405 405 405 404 404 404 407 407 407 409 409 409 405 405 405 410 410 410 406 406 406 405 405 405 409 409 409 410 410 410 406 406 406 411 411 411 412 412 412 406 406 406 410 410 410 411 411 411 407 407 407 408 408 408 413 413 413 407 407 407 413 413 413 409 409 409 408 408 408 414 414 414 413 413 413 410 410 410 409 409 409 411 411 411 411 411 411 415 415 415 412 412 412 411 411 411 416 416 416 415 415 415 411 411 411 409 409 409 416 416 416 413 413 413 417 417 417 409 409 409 413 413 413 414 414 414 417 417 417 414 414 414 418 418 418 417 417 417 415 415 415 419 419 419 420 420 420 415 415 415 416 416 416 419 419 419 416 416 416 409 409 409 419 419 419 417 417 417 421 421 421 409 409 409 417 417 417 418 418 418 421 421 421 418 418 418 422 422 422 421 421 421 419 419 419 409 409 409 423 423 423 419 419 419 423 423 423 424 424 424 419 419 419 424 424 424 420 420 420 421 421 421 425 425 425 426 426 426 421 421 421 422 422 422 425 425 425 421 421 421 426 426 426 409 409 409 423 423 423 427 427 427 424 424 424 423 423 423 409 409 409 427 427 427 424 424 424 427 427 427 428 428 428 425 425 425 429 429 429 426 426 426 426 426 426 429 429 429 430 430 430 426 426 426 430 430 430 409 409 409 409 409 409 431 431 431 427 427 427 409 409 409 432 432 432 431 431 431 409 409 409 430 430 430 432 432 432 427 427 427 433 433 433 428 428 428 427 427 427 431 431 431 433 433 433 429 429 429 434 434 434 430 430 430 430 430 430 434 434 434 432 432 432 431 431 431 432 432 432 433 433 433 432 432 432 434 434 434 433 433 433 435 435 435 436 436 436 437 437 437 435 435 435 438 438 438 436 436 436 436 436 436 439 439 439 440 440 440 436 436 436 440 440 440 441 441 441 436 436 436 441 441 441 437 437 437 436 436 436 438 438 438 439 439 439 437 437 437 441 441 441 442 442 442 437 437 437 442 442 442 443 443 443 438 438 438 444 444 444 445 445 445 438 438 438 445 445 445 439 439 439 439 439 439 445 445 445 440 440 440 441 441 441 440 440 440 442 442 442 442 442 442 446 446 446 443 443 443 442 442 442 440 440 440 447 447 447 442 442 442 447 447 447 446 446 446 444 444 444 448 448 448 445 445 445 445 445 445 448 448 448 449 449 449 445 445 445 449 449 449 440 440 440 446 446 446 447 447 447 450 450 450 446 446 446 450 450 450 451 451 451 447 447 447 440 440 440 450 450 450 448 448 448 452 452 452 449 449 449 448 448 448 453 453 453 452 452 452 449 449 449 452 452 452 440 440 440 450 450 450 454 454 454 451 451 451 450 450 450 455 455 455 454 454 454 450 450 450 440 440 440 455 455 455 452 452 452 456 456 456 440 440 440 452 452 452 453 453 453 456 456 456 453 453 453 457 457 457 456 456 456 454 454 454 455 455 455 458 458 458 454 454 454 458 458 458 459 459 459 455 455 455 440 440 440 458 458 458 440 440 440 460 460 460 458 458 458 440 440 440 456 456 456 461 461 461 440 440 440 462 462 462 460 460 460 440 440 440 463 463 463 462 462 462 440 440 440 461 461 461 463 463 463 456 456 456 457 457 457 461 461 461 457 457 457 464 464 464 461 461 461 458 458 458 460 460 460 465 465 465 458 458 458 465 465 465 459 459 459 460 460 460 462 462 462 465 465 465 461 461 461 466 466 466 463 463 463 461 461 461 464 464 464 466 466 466 462 462 462 467 467 467 465 465 465 462 462 462 463 463 463 467 467 467 463 463 463 466 466 466 467 467 467 </p>
        </triangles>
      </mesh>
    </geometry>
    <geometry id="polygon3-mesh" name="polygon3">
      <mesh>
        <source id="polygon3-position">
          <float_array id="polygon3-position-array" count="144">2.509769 6.009481 5.570313 2.306645 7.329794 5.609375 2.494144 6.107137 6.113281 2.230472 5.474325 6.359375 2.267581 5.181356 5.753906 2.509769 6.009481 5.570313 1.928714 6.044638 6.539063 1.70801 4.704794 6.105469 1.885745 5.30245 6.546875 1.343753 5.986044 6.570313 1.43555 5.650107 6.601563 1.259768 5.169638 6.269531 1.008792 5.896201 6.238281 1.343753 5.986044 6.570313 1.008792 5.896201 6.238281 1.343753 5.986044 6.570313 2.306645 7.329794 5.609375 1.008792 5.896201 6.238281 1.928714 6.044638 6.539063 2.306645 7.329794 5.609375 1.343753 5.986044 6.570313 2.494144 6.107137 6.113281 2.306645 7.329794 5.609375 1.928714 6.044638 6.539063 -2.509762 6.009485 5.570313 -2.494137 6.107141 6.113281 -2.306636 7.329797 5.609375 -2.230466 5.474328 6.359375 -1.928707 6.044641 6.539063 -2.267575 5.181359 5.753906 -2.509762 6.009485 5.570313 -1.885739 5.302453 6.546875 -1.708005 4.704796 6.105469 -1.435544 5.650109 6.601563 -1.343747 5.986046 6.570313 -1.259763 5.16964 6.269531 -1.008786 5.896202 6.238281 -1.008786 5.896202 6.238281 -1.343747 5.986046 6.570313 -1.343747 5.986046 6.570313 -1.008786 5.896202 6.238281 -2.306636 7.329797 5.609375 -1.928707 6.044641 6.539063 -1.343747 5.986046 6.570313 -2.306636 7.329797 5.609375 -2.494137 6.107141 6.113281 -1.928707 6.044641 6.539063 -2.306636 7.329797 5.609375</float_array>
          <technique_common>
            <accessor source="#polygon3-position-array" count="48" stride="3">
              <param name="X" type="float" />
              <param name="Y" type="float" />
              <param name="Z" type="float" />
            </accessor>
          </technique_common>
        </source>
        <source id="polygon3-normal">
          <float_array id="polygon3-normal-array" count="144">0.9882584 0.1526412 0.001956947 0.9021529 0.3913888 0.18591 0.821918 0.3072401 0.479452 0.8336594 -0.1585133 0.5283757 0.9275928 -0.283758 0.2426614 0.9628178 -0.2622316 0.07436399 0.4227006 0.08414844 0.9021527 0.3248528 -0.6555775 0.6810176 0.3913892 -0.4070453 0.8258317 0.04500986 0.1037182 0.9941292 -0.1252447 -0.1722113 0.9765166 -0.4011744 -0.2994126 0.8649706 -0.7025442 -0.2093929 0.6810176 -0.6829746 -0.1193733 0.7201566 -0.6829746 -0.1193733 0.7201566 -0.5831698 0.7064583 0.4031311 -0.5831698 0.7064583 0.4031311 -0.5831698 0.7064583 0.4031311 -0.01565518 0.5890411 0.8082192 -0.01565518 0.5890411 0.8082192 -0.01565518 0.5890411 0.8082192 0.5244621 0.393346 0.7553816 0.5244621 0.393346 0.7553816 0.5244621 0.393346 0.7553816 -0.9882582 0.1526425 0.001956947 -0.8219177 0.3072413 0.479452 -0.9021524 0.39139 0.18591 -0.8336596 -0.1585122 0.5283757 -0.4227005 0.08414901 0.9021527 -0.9275931 -0.2837567 0.2426614 -0.9628182 -0.2622303 0.07436399 -0.3913897 -0.4070447 0.8258317 -0.3248537 -0.6555771 0.6810176 0.1252445 -0.1722114 0.9765166 -0.04500971 0.1037182 0.9941292 0.4011739 -0.2994132 0.8649706 0.7025439 -0.2093938 0.6810176 0.6829745 -0.1193742 0.7201566 0.6829745 -0.1193742 0.7201566 0.5831707 0.7064575 0.4031311 0.5831707 0.7064575 0.4031311 0.5831707 0.7064575 0.4031311 0.01565597 0.5890411 0.8082192 0.01565597 0.5890411 0.8082192 0.01565597 0.5890411 0.8082192 -0.5244616 0.3933467 0.7553816 -0.5244616 0.3933467 0.7553816 -0.5244616 0.3933467 0.7553816</float_array>
          <technique_common>
            <accessor source="#polygon3-normal-array" count="48" stride="3">
              <param name="X" type="float" />
              <param name="Y" type="float" />
              <param name="Z" type="float" />
            </accessor>
          </technique_common>
        </source>
        <source id="polygon3-texcoord">
          <float_array id="polygon3-texcoord-array" count="96">0.4588235 0.4745098 0.4588235 0.4745098 0.4588235 0.4745098 0.4588235 0.4745098 0.4588235 0.4745098 0.4588235 0.4745098 0.4588235 0.4745098 0.4588235 0.4745098 0.4588235 0.4745098 0.4588235 0.4745098 0.4588235 0.4745098 0.4588235 0.4745098 0.4588235 0.4745098 0.4588235 0.4745098 0.4588235 0.4745098 0.4588235 0.4745098 0.4588235 0.4745098 0.4588235 0.4745098 0.4588235 0.4745098 0.4588235 0.4745098 0.4588235 0.4745098 0.4588235 0.4745098 0.4588235 0.4745098 0.4588235 0.4745098 0.4588235 0.4745098 0.4588235 0.4745098 0.4588235 0.4745098 0.4588235 0.4745098 0.4588235 0.4745098 0.4588235 0.4745098 0.4588235 0.4745098 0.4588235 0.4745098 0.4588235 0.4745098 0.4588235 0.4745098 0.4588235 0.4745098 0.4588235 0.4745098 0.4588235 0.4745098 0.4588235 0.4745098 0.4588235 0.4745098 0.4588235 0.4745098 0.4588235 0.4745098 0.4588235 0.4745098 0.4588235 0.4745098 0.4588235 0.4745098 0.4588235 0.4745098 0.4588235 0.4745098 0.4588235 0.4745098 0.4588235 0.4745098</float_array>
          <technique_common>
            <accessor source="#polygon3-texcoord-array" count="48" stride="2">
              <param name="S" type="float" />
              <param name="T" type="float" />
            </accessor>
          </technique_common>
        </source>
        <vertices id="polygon3-vertex">
          <input semantic="POSITION" source="#polygon3-position" />
        </vertices>
        <triangles material="mat_met_toge_eye" count="32">
          <input semantic="VERTEX" source="#polygon3-vertex" offset="0" />
          <input semantic="NORMAL" source="#polygon3-normal" offset="1" />
          <input semantic="TEXCOORD" source="#polygon3-texcoord" offset="2" set="0" />
          <p>0 0 0 1 1 1 2 2 2 2 2 2 3 3 3 4 4 4 2 2 2 4 4 4 5 5 5 2 2 2 6 6 6 3 3 3 4 4 4 3 3 3 7 7 7 3 3 3 8 8 8 7 7 7 3 3 3 6 6 6 8 8 8 6 6 6 9 9 9 10 10 10 6 6 6 10 10 10 8 8 8 7 7 7 8 8 8 11 11 11 8 8 8 10 10 10 11 11 11 10 10 10 12 12 12 11 11 11 10 10 10 13 13 13 14 14 14 15 15 15 16 16 16 17 17 17 18 18 18 19 19 19 20 20 20 21 21 21 22 22 22 23 23 23 24 24 24 25 25 25 26 26 26 25 25 25 27 27 27 28 28 28 25 25 25 29 29 29 27 27 27 25 25 25 30 30 30 29 29 29 27 27 27 31 31 31 28 28 28 27 27 27 29 29 29 32 32 32 27 27 27 32 32 32 31 31 31 28 28 28 31 31 31 33 33 33 28 28 28 33 33 33 34 34 34 31 31 31 35 35 35 33 33 33 31 31 31 32 32 32 35 35 35 33 33 33 35 35 35 36 36 36 33 33 33 37 37 37 38 38 38 39 39 39 40 40 40 41 41 41 42 42 42 43 43 43 44 44 44 45 45 45 46 46 46 47 47 47 </p>
        </triangles>
      </mesh>
    </geometry>
    <geometry id="polygon1-mesh" name="polygon1">
      <mesh>
        <source id="polygon1-position">
          <float_array id="polygon1-position-array" count="138">9.475071E-06 15.04464 0.1309814 1.747079 14.54464 2.166016 2.466806 14.48214 0.1561279 9.155038E-06 14.56808 2.886719 -1.747061 14.54464 2.166016 1.805673 14.42745 -1.692383 9.044863E-06 14.40401 -2.474609 -2.466788 14.48214 0.1561279 -1.805655 14.42745 -1.692383 -3.210929 13.31027 3.841797 -4.601554 13.20089 0.1789551 8.34184E-06 13.35714 5.246094 3.404305 13.09151 -3.361328 4.601571 13.20089 0.1789551 3.210946 13.31026 3.841797 8.131982E-06 13.04464 -4.851563 -3.404289 13.09152 -3.361328 -5.976556 11.20089 0.2250977 -4.082024 11.34933 4.921875 -4.421868 11.06027 -4.496094 7.03023E-06 11.40401 6.824219 4.421882 11.06026 -4.496094 5.976569 11.20088 0.2250977 4.082038 11.34932 4.921875 6.757415E-06 10.99776 -6.445313 -6.593745 8.739956 0.2824707 -4.902339 8.579799 -4.890625 -4.550776 8.958704 5.34375 5.089047E-06 8.513389 -7.199219 5.498269E-06 9.122764 7.527344 4.550786 8.958698 5.34375 4.902349 8.579792 -4.890625 6.593755 8.739947 0.2824707 -6.144528 6.193081 3.619141 -6.941403 6.103238 0.3430176 -5.195309 6.138392 -4.929688 -4.902339 7.200892 5.558594 3.761698E-06 6.536827 -7.421875 5.195316 6.138386 -4.929688 4.902348 7.200886 5.558594 6.144535 6.193072 3.619141 6.94141 6.103228 0.3430176 -6.910154 4.427456 0.371582 -4.996091 4.325892 -4.871094 4.996096 4.325886 -4.871094 6.910159 4.427447 0.371582</float_array>
          <technique_common>
            <accessor source="#polygon1-position-array" count="46" stride="3">
              <param name="X" type="float" />
              <param name="Y" type="float" />
              <param name="Z" type="float" />
            </accessor>
          </technique_common>
        </source>
        <source id="polygon1-normal">
          <float_array id="polygon1-normal-array" count="138">6.715443E-07 1 -0.0332681 0.2661454 0.9393345 0.2191781 0.3796484 0.9256358 -0.02348337 6.347474E-07 0.9452055 0.3248532 -0.2661442 0.9393348 0.2191781 0.2641885 0.9256358 -0.2700587 6.216056E-07 0.925636 -0.3776908 -0.3796471 0.9256362 -0.02348337 -0.2641872 0.9256362 -0.2700587 -0.5029349 0.7397264 0.4481409 -0.6966727 0.7162431 -0.003913894 5.112148E-07 0.7612525 0.6497065 0.4911942 0.7377687 -0.4637965 0.6966737 0.7162422 -0.003913894 0.5029359 0.7397256 0.4481409 5.007014E-07 0.7455969 -0.6653621 -0.4911932 0.7377694 -0.4637965 -0.9158511 0.3992178 0.01761252 -0.6673187 0.4207441 0.6144814 -0.6692756 0.424658 -0.6105675 2.996323E-07 0.4461839 0.8962818 0.6692762 0.4246571 -0.6105675 0.9158515 0.3992166 0.01761252 0.6673193 0.4207432 0.6144814 2.943756E-07 0.4383562 -0.8982387 -0.9765165 0.2035232 0.0665362 -0.735812 0.1741688 -0.6555773 -0.7475536 0.2446189 0.6183953 1.156476E-07 0.1722113 -0.9843444 1.577012E-07 0.2348337 0.9726027 0.747554 0.2446179 0.6183953 0.7358122 0.1741678 -0.6555773 0.9765167 0.2035218 0.0665362 -0.9354206 0.1545995 0.3189824 -0.9980431 0.04109656 -0.04500978 -0.7475538 0.01174218 -0.6653621 -0.6829745 0.2074369 0.7005871 0 0 -1 0.7475538 0.01174118 -0.6653621 0.6829747 0.2074359 0.7005871 0.9354209 0.1545982 0.3189824 0.9980431 0.04109522 -0.04500978 -0.9980431 -0.04305217 -0.04696673 -0.741683 -0.08023433 -0.6653621 0.7416829 -0.08023533 -0.6653621 0.9980431 -0.04305351 -0.04696673</float_array>
          <technique_common>
            <accessor source="#polygon1-normal-array" count="46" stride="3">
              <param name="X" type="float" />
              <param name="Y" type="float" />
              <param name="Z" type="float" />
            </accessor>
          </technique_common>
        </source>
        <source id="polygon1-texcoord">
          <float_array id="polygon1-texcoord-array" count="92">-2.496092 0.900034 -2.624957 0.887028 -2.498496 0.886674 -2.689669 0.887155 -2.624957 0.887028 -2.289833 0.886341 -2.173384 0.886203 -2.498496 0.886674 -2.289833 0.886341 -2.753537 0.739355 -2.497454 0.877964 -2.884169 0.662645 -2.244162 0.844355 -2.497454 0.877964 -2.753537 0.739355 -2.104004 0.81111 -2.244162 0.844355 -2.500537 0.759477 -2.748767 0.367672 -2.195723 0.630649 -2.89255 0.294168 -2.195723 0.630649 -2.500537 0.759477 -2.748767 0.367672 -2.032365 0.544044 -2.490813 0.463328 -2.169208 0.344855 -2.751297 0.150463 -2.014749 0.279165 -2.897391 0.06525099 -2.751297 0.150463 -2.169208 0.344855 -2.490813 0.463328 -2.612936 0.06525099 -2.4884 0.159887 -2.166641 0.136637 -2.765785 0.06525099 -2.014658 0.06525099 -2.166641 0.136637 -2.765785 0.06525099 -2.612936 0.06525099 -2.4884 0.159887 -2.488108 0.06525099 -2.170633 0.06525099 -2.170633 0.06525099 -2.488108 0.06525099</float_array>
          <technique_common>
            <accessor source="#polygon1-texcoord-array" count="46" stride="2">
              <param name="S" type="float" />
              <param name="T" type="float" />
            </accessor>
          </technique_common>
        </source>
        <vertices id="polygon1-vertex">
          <input semantic="POSITION" source="#polygon1-position" />
        </vertices>
        <triangles material="mat_met_toge_shell" count="80">
          <input semantic="VERTEX" source="#polygon1-vertex" offset="0" />
          <input semantic="NORMAL" source="#polygon1-normal" offset="1" />
          <input semantic="TEXCOORD" source="#polygon1-texcoord" offset="2" set="0" />
          <p>0 0 0 1 1 1 2 2 2 0 0 0 3 3 3 1 1 1 0 0 0 4 4 4 3 3 3 0 0 0 2 2 2 5 5 5 0 0 0 5 5 5 6 6 6 0 0 0 7 7 7 4 4 4 0 0 0 8 8 8 7 7 7 0 0 0 6 6 6 8 8 8 4 4 4 9 9 9 3 3 3 4 4 4 10 10 10 9 9 9 4 4 4 7 7 7 10 10 10 3 3 3 9 9 9 11 11 11 3 3 3 11 11 11 1 1 1 5 5 5 12 12 12 6 6 6 5 5 5 13 13 13 12 12 12 5 5 5 2 2 2 13 13 13 2 2 2 14 14 14 13 13 13 2 2 2 1 1 1 14 14 14 1 1 1 11 11 11 14 14 14 6 6 6 12 12 12 15 15 15 6 6 6 15 15 15 8 8 8 7 7 7 16 16 16 10 10 10 7 7 7 8 8 8 16 16 16 8 8 8 15 15 15 16 16 16 9 9 9 10 10 10 17 17 17 9 9 9 17 17 17 18 18 18 9 9 9 18 18 18 11 11 11 10 10 10 19 19 19 17 17 17 10 10 10 16 16 16 19 19 19 11 11 11 18 18 18 20 20 20 11 11 11 20 20 20 14 14 14 12 12 12 21 21 21 15 15 15 12 12 12 22 22 22 21 21 21 12 12 12 13 13 13 22 22 22 13 13 13 23 23 23 22 22 22 13 13 13 14 14 14 23 23 23 14 14 14 20 20 20 23 23 23 15 15 15 21 21 21 24 24 24 15 15 15 24 24 24 16 16 16 16 16 16 24 24 24 19 19 19 17 17 17 25 25 25 18 18 18 17 17 17 26 26 26 25 25 25 17 17 17 19 19 19 26 26 26 18 18 18 27 27 27 20 20 20 18 18 18 25 25 25 27 27 27 19 19 19 28 28 28 26 26 26 19 19 19 24 24 24 28 28 28 20 20 20 29 29 29 30 30 30 20 20 20 27 27 27 29 29 29 20 20 20 30 30 30 23 23 23 21 21 21 31 31 31 24 24 24 21 21 21 32 32 32 31 31 31 21 21 21 22 22 22 32 32 32 22 22 22 23 23 23 32 32 32 23 23 23 30 30 30 32 32 32 24 24 24 31 31 31 28 28 28 25 25 25 33 33 33 27 27 27 25 25 25 34 34 34 33 33 33 25 25 25 35 35 35 34 34 34 25 25 25 26 26 26 35 35 35 26 26 26 28 28 28 35 35 35 27 27 27 36 36 36 29 29 29 27 27 27 33 33 33 36 36 36 28 28 28 37 37 37 35 35 35 28 28 28 38 38 38 37 37 37 28 28 28 31 31 31 38 38 38 29 29 29 39 39 39 30 30 30 30 30 30 39 39 39 40 40 40 30 30 30 40 40 40 32 32 32 31 31 31 41 41 41 38 38 38 31 31 31 32 32 32 41 41 41 32 32 32 40 40 40 41 41 41 33 33 33 34 34 34 42 42 42 34 34 34 35 35 35 43 43 43 34 34 34 43 43 43 42 42 42 35 35 35 37 37 37 43 43 43 37 37 37 38 38 38 44 44 44 38 38 38 41 41 41 45 45 45 38 38 38 45 45 45 44 44 44 40 40 40 45 45 45 41 41 41 </p>
        </triangles>
      </mesh>
    </geometry>
  </library_geometries>
  <library_controllers>
    <controller id="Armature_polygon2-mesh">
      <skin source="#polygon2-mesh">
        <bind_shape_matrix>1 0 0 0 0 1 0 0 0 0 1 0 0 0 0 1</bind_shape_matrix>
        <source id="polygon2-mesh-joint">
          <Name_array id="polygon2-mesh-joint-array" count="5">foot_L hand_L foot_R hand_R skl_root</Name_array>
          <technique_common>
            <accessor source="#polygon2-mesh-joint-array" count="5" stride="1">
              <param name="JOINT" type="name" />
            </accessor>
          </technique_common>
        </source>
        <source id="polygon2-mesh-inv_bind_matrix">
          <float_array id="polygon2-mesh-inv_bind_matrix-array" count="80">-5.841216E-07 -1 0 3.785173 1 -5.841216E-07 0 -4.088768 0 0 1 4.083804 0 0 0 1 -5.841216E-07 -1 0 4.202324 1 -5.841216E-07 0 -4.088768 0 0 1 -1.181171 0 0 0 1 -6.715443E-07 -1 8.742278E-08 3.785174 -1 6.715443E-07 0 -4.088768 -5.870827E-14 -8.742278E-08 -1 -4.083804 0 0 0 1 -6.715443E-07 -1 8.742278E-08 4.202325 -1 6.715443E-07 0 -4.088768 -5.870827E-14 -8.742278E-08 -1 1.181171 0 0 0 1 6.715443E-07 1 0 -0.935264 -1 6.715443E-07 0 -6.280712E-07 0 0 1 0 0 0 0 1</float_array>
          <technique_common>
            <accessor source="#polygon2-mesh-inv_bind_matrix-array" count="5" stride="16">
              <param name="TRANSFORM" type="float4x4" />
            </accessor>
          </technique_common>
        </source>
        <source id="polygon2-mesh-weight">
          <float_array id="polygon2-mesh-weight-array" count="1">1</float_array>
          <technique_common>
            <accessor source="#polygon2-mesh-weight-array" count="1" stride="1">
              <param name="WEIGHT" type="float" />
            </accessor>
          </technique_common>
        </source>
        <joints>
          <input semantic="JOINT" source="#polygon2-mesh-joint" />
          <input semantic="INV_BIND_MATRIX" source="#polygon2-mesh-inv_bind_matrix" />
        </joints>
        <vertex_weights count="468">
          <input semantic="JOINT" source="#polygon2-mesh-joint" offset="0" />
          <input semantic="WEIGHT" source="#polygon2-mesh-weight" offset="1" />
          <vcount>1 1 1 1 1 1 1 1 1 1 1 1 1 1 1 1 1 1 1 1 1 1 1 1 1 1 1 1 1 1 1 1 1 1 1 1 1 1 1 1 1 1 1 1 1 1 1 1 1 1 1 1 1 1 1 1 1 1 1 1 1 1 1 1 1 1 1 1 1 1 1 1 1 1 1 1 1 1 1 1 1 1 1 1 1 1 1 1 1 1 1 1 1 1 1 1 1 1 1 1 1 1 1 1 1 1 1 1 1 1 1 1 1 1 1 1 1 1 1 1 1 1 1 1 1 1 1 1 1 1 1 1 1 1 1 1 1 1 1 1 1 1 1 1 1 1 1 1 1 1 1 1 1 1 1 1 1 1 1 1 1 1 1 1 1 1 1 1 1 1 1 1 1 1 1 1 1 1 1 1 1 1 1 1 1 1 1 1 1 1 1 1 1 1 1 1 1 1 1 1 1 1 1 1 1 1 1 1 1 1 1 1 1 1 1 1 1 1 1 1 1 1 1 1 1 1 1 1 1 1 1 1 1 1 1 1 1 1 1 1 1 1 1 1 1 1 1 1 1 1 1 1 1 1 1 1 1 1 1 1 1 1 1 1 1 1 1 1 1 1 1 1 1 1 1 1 1 1 1 1 1 1 1 1 1 1 1 1 1 1 1 1 1 1 1 1 1 1 1 1 1 1 1 1 1 1 1 1 1 1 1 1 1 1 1 1 1 1 1 1 1 1 1 1 1 1 1 1 1 1 1 1 1 1 1 1 1 1 1 1 1 1 1 1 1 1 1 1 1 1 1 1 1 1 1 1 1 1 1 1 1 1 1 1 1 1 1 1 1 1 1 1 1 1 1 1 1 1 1 1 1 1 1 1 1 1 1 1 1 1 1 1 1 1 1 1 1 1 1 1 1 1 1 1 1 1 1 1 1 1 1 1 1 1 1 1 1 1 1 1 1 1 1 1 1 1 1 1 1 1 1 1 1 1 1 1 1 1 1 1 1 1 1 1 1 1 1 1 1 1 1 1 1 1 1 1 1 1 1 1 1 1 1 1 1 1 1 1 </vcount>
          <v>0 0 0 0 0 0 0 0 0 0 0 0 0 0 0 0 0 0 0 0 0 0 0 0 1 0 1 0 1 0 1 0 1 0 1 0 1 0 1 0 1 0 1 0 1 0 1 0 2 0 2 0 2 0 2 0 2 0 2 0 2 0 2 0 2 0 2 0 2 0 2 0 0 0 0 0 0 0 0 0 0 0 0 0 0 0 0 0 0 0 0 0 0 0 0 0 0 0 0 0 0 0 0 0 0 0 0 0 0 0 0 0 0 0 0 0 0 0 0 0 0 0 0 0 0 0 0 0 0 0 0 0 0 0 0 0 0 0 0 0 0 0 0 0 0 0 0 0 0 0 2 0 2 0 2 0 2 0 2 0 2 0 2 0 2 0 2 0 2 0 2 0 2 0 3 0 3 0 3 0 3 0 3 0 3 0 3 0 3 0 3 0 3 0 3 0 3 0 3 0 3 0 3 0 3 0 3 0 3 0 3 0 3 0 3 0 3 0 3 0 3 0 2 0 2 0 2 0 2 0 2 0 2 0 2 0 2 0 2 0 2 0 2 0 2 0 2 0 2 0 2 0 2 0 2 0 2 0 2 0 2 0 2 0 2 0 2 0 2 0 2 0 2 0 2 0 2 0 2 0 2 0 2 0 2 0 2 0 2 0 2 0 2 0 2 0 2 0 2 0 1 0 1 0 1 0 1 0 1 0 1 0 1 0 1 0 1 0 1 0 1 0 1 0 3 0 3 0 3 0 3 0 3 0 3 0 3 0 3 0 3 0 3 0 3 0 3 0 3 0 3 0 3 0 3 0 3 0 3 0 3 0 3 0 3 0 3 0 3 0 3 0 3 0 3 0 3 0 3 0 3 0 3 0 3 0 3 0 3 0 3 0 3 0 3 0 4 0 4 0 4 0 4 0 4 0 4 0 4 0 4 0 4 0 4 0 4 0 4 0 4 0 4 0 4 0 4 0 4 0 4 0 4 0 4 0 4 0 4 0 4 0 4 0 4 0 4 0 4 0 4 0 4 0 4 0 4 0 4 0 4 0 4 0 4 0 4 0 4 0 4 0 4 0 4 0 4 0 4 0 4 0 4 0 4 0 4 0 4 0 4 0 4 0 4 0 4 0 4 0 4 0 4 0 4 0 4 0 4 0 4 0 4 0 4 0 4 0 4 0 4 0 4 0 4 0 4 0 4 0 4 0 4 0 4 0 4 0 4 0 4 0 4 0 4 0 4 0 4 0 4 0 4 0 4 0 4 0 4 0 4 0 4 0 4 0 4 0 4 0 4 0 4 0 4 0 4 0 4 0 4 0 4 0 4 0 4 0 4 0 4 0 4 0 4 0 0 0 0 0 0 0 0 0 0 0 0 0 0 0 0 0 0 0 0 0 0 0 0 0 1 0 1 0 1 0 1 0 1 0 1 0 1 0 1 0 1 0 1 0 1 0 1 0 1 0 1 0 1 0 1 0 1 0 1 0 1 0 1 0 1 0 1 0 1 0 1 0 1 0 1 0 1 0 1 0 1 0 1 0 1 0 1 0 1 0 1 0 1 0 1 0 4 0 4 0 4 0 4 0 4 0 4 0 4 0 4 0 4 0 4 0 4 0 4 0 4 0 4 0 4 0 4 0 4 0 4 0 4 0 4 0 4 0 4 0 4 0 4 0 4 0 4 0 4 0 4 0 4 0 4 0 4 0 4 0 4 0 4 0 4 0 4 0 4 0 4 0 4 0 4 0 4 0 4 0 4 0 4 0 4 0 4 0 4 0 4 0 4 0 4 0 4 0 4 0 4 0 4 0 4 0 4 0 4 0 4 0 4 0 4 0 4 0 4 0 4 0 4 0 4 0 4 0 4 0 4 0 4 0 4 0 4 0 4 0 4 0 4 0 4 0 4 0 4 0 4 0 4 0 4 0 4 0 4 0 4 0 4 0 4 0 4 0 4 0 4 0 4 0 4 0 4 0 4 0 4 0 4 0 4 0 4 0 4 0 4 0 4 0 4 0 4 0 4 0 4 0 4 0 4 0 4 0 4 0 4 0 4 0 4 0 4 0 4 0 4 0 4 0 4 0 4 0 4 0 4 0 4 0 4 0 4 0 4 0 </v>
        </vertex_weights>
      </skin>
    </controller>
    <controller id="Armature_polygon3-mesh">
      <skin source="#polygon3-mesh">
        <bind_shape_matrix>1 0 0 0 0 1 0 0 0 0 1 0 0 0 0 1</bind_shape_matrix>
        <source id="polygon3-mesh-joint">
          <Name_array id="polygon3-mesh-joint-array" count="1">skl_root</Name_array>
          <technique_common>
            <accessor source="#polygon3-mesh-joint-array" count="1" stride="1">
              <param name="JOINT" type="name" />
            </accessor>
          </technique_common>
        </source>
        <source id="polygon3-mesh-inv_bind_matrix">
          <float_array id="polygon3-mesh-inv_bind_matrix-array" count="16">6.715443E-07 1 0 -0.935264 -1 6.715443E-07 0 -6.280712E-07 0 0 1 0 0 0 0 1</float_array>
          <technique_common>
            <accessor source="#polygon3-mesh-inv_bind_matrix-array" count="1" stride="16">
              <param name="TRANSFORM" type="float4x4" />
            </accessor>
          </technique_common>
        </source>
        <source id="polygon3-mesh-weight">
          <float_array id="polygon3-mesh-weight-array" count="1">1</float_array>
          <technique_common>
            <accessor source="#polygon3-mesh-weight-array" count="1" stride="1">
              <param name="WEIGHT" type="float" />
            </accessor>
          </technique_common>
        </source>
        <joints>
          <input semantic="JOINT" source="#polygon3-mesh-joint" />
          <input semantic="INV_BIND_MATRIX" source="#polygon3-mesh-inv_bind_matrix" />
        </joints>
        <vertex_weights count="48">
          <input semantic="JOINT" source="#polygon3-mesh-joint" offset="0" />
          <input semantic="WEIGHT" source="#polygon3-mesh-weight" offset="1" />
          <vcount>1 1 1 1 1 1 1 1 1 1 1 1 1 1 1 1 1 1 1 1 1 1 1 1 1 1 1 1 1 1 1 1 1 1 1 1 1 1 1 1 1 1 1 1 1 1 1 1 </vcount>
          <v>0 0 0 0 0 0 0 0 0 0 0 0 0 0 0 0 0 0 0 0 0 0 0 0 0 0 0 0 0 0 0 0 0 0 0 0 0 0 0 0 0 0 0 0 0 0 0 0 0 0 0 0 0 0 0 0 0 0 0 0 0 0 0 0 0 0 0 0 0 0 0 0 0 0 0 0 0 0 0 0 0 0 0 0 0 0 0 0 0 0 0 0 0 0 0 0 </v>
        </vertex_weights>
      </skin>
    </controller>
    <controller id="Armature_polygon1-mesh">
      <skin source="#polygon1-mesh">
        <bind_shape_matrix>1 0 0 0 0 1 0 0 0 0 1 0 0 0 0 1</bind_shape_matrix>
        <source id="polygon1-mesh-joint">
          <Name_array id="polygon1-mesh-joint-array" count="1">skl_root</Name_array>
          <technique_common>
            <accessor source="#polygon1-mesh-joint-array" count="1" stride="1">
              <param name="JOINT" type="name" />
            </accessor>
          </technique_common>
        </source>
        <source id="polygon1-mesh-inv_bind_matrix">
          <float_array id="polygon1-mesh-inv_bind_matrix-array" count="16">6.715443E-07 1 0 -0.935264 -1 6.715443E-07 0 -6.280712E-07 0 0 1 0 0 0 0 1</float_array>
          <technique_common>
            <accessor source="#polygon1-mesh-inv_bind_matrix-array" count="1" stride="16">
              <param name="TRANSFORM" type="float4x4" />
            </accessor>
          </technique_common>
        </source>
        <source id="polygon1-mesh-weight">
          <float_array id="polygon1-mesh-weight-array" count="1">1</float_array>
          <technique_common>
            <accessor source="#polygon1-mesh-weight-array" count="1" stride="1">
              <param name="WEIGHT" type="float" />
            </accessor>
          </technique_common>
        </source>
        <joints>
          <input semantic="JOINT" source="#polygon1-mesh-joint" />
          <input semantic="INV_BIND_MATRIX" source="#polygon1-mesh-inv_bind_matrix" />
        </joints>
        <vertex_weights count="46">
          <input semantic="JOINT" source="#polygon1-mesh-joint" offset="0" />
          <input semantic="WEIGHT" source="#polygon1-mesh-weight" offset="1" />
          <vcount>1 1 1 1 1 1 1 1 1 1 1 1 1 1 1 1 1 1 1 1 1 1 1 1 1 1 1 1 1 1 1 1 1 1 1 1 1 1 1 1 1 1 1 1 1 1 </vcount>
          <v>0 0 0 0 0 0 0 0 0 0 0 0 0 0 0 0 0 0 0 0 0 0 0 0 0 0 0 0 0 0 0 0 0 0 0 0 0 0 0 0 0 0 0 0 0 0 0 0 0 0 0 0 0 0 0 0 0 0 0 0 0 0 0 0 0 0 0 0 0 0 0 0 0 0 0 0 0 0 0 0 0 0 0 0 0 0 0 0 0 0 0 0 </v>
        </vertex_weights>
      </skin>
    </controller>
  </library_controllers>
  <library_visual_scenes>
    <visual_scene id="Scene" name="Scene">
      <node id="Armature" name="Armature" type="NODE">
        <matrix sid="transform">1 0 0 0 0 1 0 0 0 0 1 0 0 0 0 1</matrix>
        <node id="Armature_skl_root" name="skl_root" sid="skl_root" type="JOINT">
          <matrix sid="transform">6.715443E-07 -1 0 0 1 6.715443E-07 0 0.935264 0 0 1 0 0 0 0 1</matrix>
          <node id="Armature_foot_L" name="foot_L" sid="foot_L" type="JOINT">
            <matrix sid="transform">-1 8.742278E-08 0 2.84991 -8.742278E-08 -1 0 -4.088768 0 0 1 -4.083804 0 0 0 1</matrix>
          </node>
          <node id="Armature_foot_R" name="foot_R" sid="foot_R" type="JOINT">
            <matrix sid="transform">-1 0 -8.742278E-08 2.84991 0 1 0 4.088768 8.742278E-08 0 -1 -4.083804 0 0 0 1</matrix>
          </node>
          <node id="Armature_hand_L" name="hand_L" sid="hand_L" type="JOINT">
            <matrix sid="transform">-1 8.742278E-08 0 3.267061 -8.742278E-08 -1 0 -4.088768 0 0 1 1.181171 0 0 0 1</matrix>
          </node>
          <node id="Armature_hand_R" name="hand_R" sid="hand_R" type="JOINT">
            <matrix sid="transform">-1 0 -8.742278E-08 3.267061 0 1 0 4.088768 8.742278E-08 0 -1 1.181171 0 0 0 1</matrix>
          </node>
        </node>
      </node>
      <node id="polygon2" name="polygon2" type="NODE">
        <instance_controller url="#Armature_polygon2-mesh">
          <skeleton>#Armature_skl_root</skeleton>
          <bind_material>
            <technique_common>
              <instance_material symbol="mat_met_toge_body" target="#mat_met_toge_body" />
              <bind_vertex_input semantic="CHANNEL0" input_semantic="TEXCOORD" input_set="0" />
              <bind_vertex_input semantic="CHANNEL1" input_semantic="TEXCOORD" input_set="1" />
              <bind_vertex_input semantic="CHANNEL2" input_semantic="TEXCOORD" input_set="2" />
            </technique_common>
          </bind_material>
        </instance_controller>
      </node>
      <node id="polygon3" name="polygon3" type="NODE">
        <instance_controller url="#Armature_polygon3-mesh">
          <skeleton>#Armature_skl_root</skeleton>
          <bind_material>
            <technique_common>
              <instance_material symbol="mat_met_toge_eye" target="#mat_met_toge_eye" />
              <bind_vertex_input semantic="CHANNEL0" input_semantic="TEXCOORD" input_set="0" />
              <bind_vertex_input semantic="CHANNEL1" input_semantic="TEXCOORD" input_set="1" />
              <bind_vertex_input semantic="CHANNEL2" input_semantic="TEXCOORD" input_set="2" />
            </technique_common>
          </bind_material>
        </instance_controller>
      </node>
      <node id="polygon1" name="polygon1" type="NODE">
        <instance_controller url="#Armature_polygon1-mesh">
          <skeleton>#Armature_skl_root</skeleton>
          <bind_material>
            <technique_common>
              <instance_material symbol="mat_met_toge_shell" target="#mat_met_toge_shell" />
              <bind_vertex_input semantic="CHANNEL0" input_semantic="TEXCOORD" input_set="0" />
              <bind_vertex_input semantic="CHANNEL1" input_semantic="TEXCOORD" input_set="1" />
              <bind_vertex_input semantic="CHANNEL2" input_semantic="TEXCOORD" input_set="2" />
            </technique_common>
          </bind_material>
        </instance_controller>
      </node>
    </visual_scene>
  </library_visual_scenes>
  <scene>
    <instance_visual_scene url="#Scene" />
  </scene>
</COLLADA>