mtllib APC.mtl
o Apwheel.dat
v -0.106933 0.063416 0.125602
v -0.195067 0.000000 0.189276
v -0.195067 0.063416 0.125602
v -0.106933 0.217194 0.278693
v -0.195067 0.216995 0.188819
v -0.195067 0.217194 0.278693
v -0.106933 0.216995 0.188819
v -0.106933 0.153305 0.125418
v -0.195067 0.153305 0.125418
v -0.106933 0.000000 0.189276
v -0.195067 0.000199 0.279151
v -0.106933 0.000199 0.279151
v -0.106933 0.063889 0.342582
v -0.195067 0.063889 0.342582
v -0.106933 0.153763 0.342383
v -0.195067 0.153763 0.342383
vn -0.0000 -0.5072 -0.8619
vn -0.0000 -0.8639 -0.5036
vn -0.0000 -0.2547 -0.9670
vn -0.0000 0.9681 0.2507
vn -0.0000 0.9670 -0.2549
vn -0.0000 0.8639 0.5036
vn -0.0000 0.8617 -0.5074
vn -0.0000 0.2507 -0.9681
vn -0.0000 0.5035 -0.8640
vn -0.0000 -0.9681 -0.2507
vn -0.0000 -0.9670 0.2548
vn -0.0000 -0.8618 0.5072
vn -0.0000 -0.2507 0.9681
vn -0.0000 -0.5036 0.8639
vn -0.0000 0.5072 0.8618
vn -0.0000 0.2548 0.9670
vn -1.0000 -0.0000 -0.0000
vn 1.0000 -0.0000 -0.0000
vt 0.000870 0.291946
vt 0.294037 0.000000
vt 0.705841 1.000000
vt 0.291962 0.999130
vt 0.000000 0.705887
vt 0.707916 0.000885
vt 0.999985 0.294128
vt 0.999115 0.707962
s 1
usemtl APCWHEEL
f 1/1/1 2/2/2 3/1/3
f 4/3/4 5/4/5 6/3/6
f 7/4/7 8/5/8 9/5/9
f 7/4/7 9/5/9 5/4/5
f 8/5/8 1/1/1 3/1/3
f 8/5/8 3/1/3 9/5/9
f 1/1/1 10/2/10 2/2/2
f 4/3/4 7/4/7 5/4/5
f 10/2/10 11/6/11 2/2/2
f 10/2/10 12/6/12 11/6/11
f 12/6/12 13/7/13 14/7/14
f 12/6/12 14/7/14 11/6/11
f 13/7/13 15/8/15 16/8/16
f 13/7/13 16/8/16 14/7/14
f 15/8/15 4/3/4 6/3/6
f 15/8/15 6/3/6 16/8/16
f 14/7/17 9/5/17 11/6/17
f 11/6/17 9/5/17 2/2/17
f 2/2/17 9/5/17 3/1/17
f 14/7/17 16/8/17 9/5/17
f 16/8/17 6/3/17 9/5/17
f 6/3/17 5/4/17 9/5/17
f 13/7/18 12/6/18 10/2/18
f 13/7/18 10/2/18 1/1/18
f 13/7/18 1/1/18 8/5/18
f 13/7/18 8/5/18 7/4/18
f 13/7/18 7/4/18 4/3/18
f 13/7/18 4/3/18 15/8/18
o APC.DAT
v 0.092682 0.122153 0.082901
v 0.097397 0.226676 0.190399
v 0.108994 0.226676 0.275879
v -0.093918 0.122153 0.082901
v -0.099350 0.081626 0.387909
v -0.100281 0.163169 0.344406
v 0.100937 0.233100 -0.123566
v 0.100937 0.089088 -0.406357
v 0.100937 0.165580 -0.406357
v 0.100937 0.233100 -0.335495
v 0.100937 0.056830 -0.123566
v -0.098282 0.233100 -0.335495
v -0.098282 0.056830 -0.123566
v -0.098282 0.233100 -0.123566
v -0.098282 0.165580 -0.406357
v -0.098282 0.089088 -0.406357
v 0.100327 0.163169 0.344406
v 0.098633 0.057502 0.082901
v -0.100342 0.057502 0.082901
v -0.109421 0.226676 0.275879
v -0.098389 0.226676 0.190399
v 0.099106 0.081626 0.387909
v 0.100632 0.166999 0.380554
v -0.100586 0.166999 0.380554
v -0.184311 0.341163 -0.234726
v -0.168549 0.307975 -0.245453
v -0.168549 0.288993 -0.120102
v -0.168549 0.374320 -0.223099
v -0.184311 0.331672 -0.120102
v -0.168549 0.374320 -0.120102
v -0.098465 0.374320 -0.239960
v -0.098465 0.374320 -0.120102
v -0.098465 0.307456 -0.262314
v -0.098465 0.288505 -0.120102
v -0.158432 0.345786 0.055481
v -0.130188 0.306876 0.055481
v -0.112717 0.330924 0.055481
v -0.158432 0.316062 0.055481
v -0.130188 0.354972 0.055481
v -0.158432 0.345786 -0.128830
v -0.158432 0.316062 -0.128830
v -0.130280 0.306876 -0.128830
v -0.130280 0.306876 0.055481
v -0.130173 0.306907 -0.128830
v -0.112717 0.330924 -0.128830
v -0.130173 0.306907 0.055481
v -0.130188 0.354972 -0.128830
v -0.194153 0.226676 -0.326874
v -0.201233 0.147574 -0.395752
v 0.202942 0.147574 -0.395752
v -0.206299 0.122153 -0.129166
v 0.184891 0.048499 -0.129166
v -0.183075 0.048499 -0.129166
v 0.195862 0.226676 -0.236664
v 0.208008 0.122153 -0.129166
v -0.206421 0.122153 -0.129166
v -0.194260 0.226676 -0.236664
v 0.195862 0.226676 -0.326874
v 0.195969 0.226676 -0.236664
v -0.194153 0.226676 -0.236664
v -0.194260 0.226676 -0.326874
v 0.195969 0.226676 -0.326874
v 0.208130 0.122153 -0.129166
v -0.206299 0.122153 0.082901
v -0.183075 0.048499 0.082901
v -0.201157 0.147574 -0.395752
v -0.181473 0.069449 -0.394333
v 0.183304 0.069449 -0.394333
v 0.184891 0.048499 0.082901
v 0.208130 0.122153 0.082901
v -0.206421 0.122153 0.082901
v -0.180130 0.226676 0.190399
v -0.094025 0.122153 0.082901
v 0.202835 0.147574 -0.395752
v 0.092606 0.122153 0.082901
v 0.208008 0.122153 0.082901
v 0.181946 0.226676 0.190399
v -0.180222 0.226676 0.190399
v -0.098465 0.226676 0.190399
v -0.182770 0.226676 0.275879
v -0.183899 0.166999 0.380554
v -0.185654 0.163169 0.344406
v 0.185318 0.163169 0.344406
v 0.100220 0.163169 0.344406
v 0.184494 0.226676 0.275879
v 0.185425 0.163169 0.344406
v 0.185669 0.166999 0.380554
v 0.097321 0.226676 0.190399
v 0.181839 0.226676 0.190399
v 0.184601 0.226676 0.275879
v -0.182892 0.226676 0.275879
v -0.109543 0.226676 0.275879
v -0.185730 0.163169 0.344406
v -0.100388 0.163169 0.344406
v 0.108887 0.226676 0.275879
v -0.175812 0.095740 -0.423630
v 0.177643 0.095740 -0.423630
v 0.218445 0.149802 0.425308
v 0.206543 0.143668 0.348984
v 0.111374 0.143668 0.348984
v -0.090790 0.341834 0.086792
v 0.091782 0.346717 -0.182358
v -0.089966 0.346717 -0.182358
v 0.218445 0.088477 0.425308
v 0.099457 0.088477 0.425308
v 0.111374 0.094611 0.348984
v 0.114151 0.313453 -0.228714
v 0.192688 0.252158 -0.342026
v -0.190857 0.252158 -0.342026
v -0.111359 0.094611 0.348984
v -0.218445 0.088477 0.425308
v -0.206543 0.094611 0.348984
v -0.111359 0.143668 0.348984
v -0.206543 0.143668 0.348984
v -0.218445 0.149802 0.425308
v -0.099457 0.088477 0.425308
v 0.206543 0.094611 0.348984
v 0.078232 0.251197 0.214249
v 0.102402 0.252158 0.288559
v 0.095978 0.293815 0.083618
v -0.189209 0.166068 -0.425308
v -0.120636 0.295051 -0.213440
v 0.124817 0.295051 -0.213440
v 0.092270 0.295051 -0.352707
v 0.091675 0.346717 -0.182358
v -0.112320 0.313453 -0.228714
v -0.097153 0.295051 -0.352707
v 0.092194 0.295051 -0.352707
v 0.124817 0.175452 -0.415314
v -0.097046 0.295051 -0.352707
v 0.191009 0.166068 -0.425308
v -0.090042 0.346717 -0.182358
v -0.099457 0.149802 0.425308
v 0.099457 0.149802 0.425308
v 0.181519 0.252158 0.288559
v 0.114151 0.313453 0.076050
v 0.095978 0.293815 0.083527
v 0.102402 0.252158 0.288666
v -0.071152 0.213706 0.410126
v -0.078461 0.251197 0.214249
v -0.102829 0.252158 0.288559
v 0.181595 0.252158 0.288559
v -0.179596 0.252158 0.288559
v -0.102631 0.252158 0.288559
v -0.096161 0.293815 0.083618
v 0.078125 0.251197 0.214249
v -0.070938 0.213706 0.410126
v 0.071472 0.213706 0.410126
v -0.179703 0.252158 0.288559
v -0.100693 0.166999 0.380554
v 0.181412 0.252158 0.288559
v 0.095886 0.293815 0.083527
v 0.102478 0.252158 0.288559
v -0.112320 0.313453 0.076050
v -0.179810 0.252158 0.288559
v -0.096283 0.293815 0.083527
v 0.092606 0.341834 0.086792
v -0.071045 0.213706 0.410126
v -0.102707 0.252158 0.288559
v 0.096100 0.293815 0.083527
v -0.078354 0.251197 0.214249
v -0.096161 0.293815 0.083527
v 0.071274 0.213706 0.410126
v 0.100525 0.166999 0.380554
v 0.102295 0.252158 0.288559
v 0.071396 0.213706 0.410126
v -0.096085 0.293815 0.083527
v -0.120636 0.175452 -0.415314
v 0.111252 0.143668 0.348984
v 0.111252 0.094611 0.348984
v -0.111435 0.094611 0.348984
v -0.111435 0.143668 0.348984
v -0.177094 0.252158 -0.211548
v -0.177094 0.252158 0.066757
v -0.177170 0.252158 0.066757
v -0.177170 0.252158 -0.211548
v -0.189301 0.166068 -0.425308
v 0.098999 0.081626 0.387909
v -0.099457 0.081626 0.387909
v 0.178879 0.252158 -0.211548
v 0.178879 0.252158 0.066757
v 0.190903 0.166068 -0.425308
v -0.112427 0.313453 0.076050
v 0.114044 0.313453 0.076050
vn 0.9868 0.0913 -0.1340
vn 0.9866 0.0932 -0.1338
vn 0.9966 0.0822 -0.0018
vn -0.9992 0.0054 -0.0388
vn -0.9928 0.0236 0.1171
vn -0.9981 -0.0606 -0.0097
vn 1.0000 -0.0000 -0.0000
vn -1.0000 -0.0000 -0.0000
vn 0.9979 -0.0435 0.0471
vn 0.9973 -0.0314 -0.0660
vn -0.9951 0.0989 -0.0046
vn -0.9975 -0.0279 -0.0650
vn -0.9879 0.0889 -0.1275
vn 0.9998 -0.0189 -0.0000
vn 0.9998 -0.0184 -0.0065
vn -0.9041 0.0237 0.4267
vn -0.9923 -0.1221 -0.0203
vn -0.9092 -0.4117 -0.0623
vn -0.9242 -0.3793 -0.0455
vn -0.9235 0.3833 0.0174
vn -0.9888 0.1490 0.0021
vn -0.9380 0.3467 -0.0000
vn -0.0000 1.0000 -0.0000
vn -0.0251 -0.9897 -0.1409
vn -0.0069 -0.9912 -0.1321
vn -0.0433 -0.9878 -0.1496
vn -0.0000 -0.0000 1.0000
vn -0.2030 0.2564 -0.9450
vn -0.2278 0.1998 -0.9530
vn -0.2070 0.3093 -0.9282
vn -0.1956 0.3626 -0.9112
vn -0.2131 0.4120 -0.8859
vn -0.9246 0.3808 -0.0001
vn -0.6481 0.7615 -0.0001
vn -0.9248 -0.3806 -0.0000
vn -0.5043 -0.5475 0.6677
vn -0.3102 -0.9507 -0.0000
vn 0.8089 -0.5879 -0.0000
vn 0.9719 -0.2355 -0.0000
vn 0.0763 0.9971 -0.0000
vn 0.5241 0.8517 0.0001
vn 0.9719 0.2353 -0.0000
vn -0.0000 -0.6567 0.7542
vn -0.0000 -0.0000 -1.0000
vn -0.0000 -0.7170 -0.6971
vn -0.0000 -1.0000 -0.0000
vn -0.0000 0.0182 0.9998
vn -0.0000 -0.7170 0.6971
vn -0.0000 -0.9944 0.1054
vn -0.0000 -0.7335 -0.6797
vn -0.0000 -0.7443 -0.6679
vn -0.0000 -0.9969 0.0788
vn -0.0000 -0.9936 -0.1133
vn -0.0000 0.9968 -0.0801
vn -0.0000 0.9998 0.0181
vn -0.0000 -0.9968 -0.0801
vn 0.0448 0.8392 -0.5419
vn 0.1289 0.8070 -0.5763
vn -0.1430 0.7673 -0.6252
vn -0.5365 0.8279 0.1638
vn -0.5829 0.7925 0.1794
vn -0.0000 0.6953 -0.7187
vn -0.0000 0.8125 -0.5830
vn 0.0471 0.8702 -0.4905
vn -0.0000 0.4638 -0.8860
vn -0.5964 0.7009 0.3912
vn 0.0003 0.7336 0.6796
vn 0.0002 0.7335 0.6797
vn -0.0000 0.7335 0.6797
vn 0.4829 0.8632 0.1472
vn 0.5331 0.8300 0.1641
vn 0.3796 0.8526 0.3591
vn 0.0009 0.7339 0.6793
vn -0.0000 0.9800 0.1992
vn -0.0000 0.9734 0.2290
vn -0.0000 0.9822 0.1880
vn 0.3795 0.8526 0.3591
vn -0.0000 0.7338 0.6793
vn -0.0000 0.9800 0.1991
vn 0.6330 0.6667 0.3934
vn -0.8774 0.3418 0.3366
vn -0.0000 0.9507 0.3100
vn -0.0000 0.9629 0.2698
vn 0.8796 0.3406 0.3322
vn -0.4881 0.8602 0.1476
vn 0.5812 0.7935 0.1803
vn -0.9880 -0.0000 -0.1543
vn 0.9879 -0.0000 -0.1550
vn -0.0000 -0.0239 -0.9997
vn -0.9560 0.2921 0.0257
vn -0.9560 0.2930 0.0161
vn -0.8202 0.5703 0.0451
vn -0.9537 -0.3007 -0.0000
vn -0.9585 -0.0936 0.2694
vn -0.9693 -0.1216 -0.2135
vn -0.9560 0.2929 0.0161
vn -0.9701 0.2408 0.0316
vn -0.7769 0.6295 0.0059
vn -0.9474 0.3200 -0.0059
vn -0.8305 0.5570 -0.0000
vn -0.9440 0.3290 -0.0253
vn -0.9766 0.1662 -0.1363
vn -0.9453 0.2179 -0.2429
vn -0.8701 -0.1364 -0.4736
vn -0.9213 -0.1837 -0.3428
vn -0.8884 -0.2744 -0.3681
vn -0.9952 0.0976 0.0009
vn -0.9950 0.0976 -0.0210
vn -0.9942 0.1065 0.0178
vn -0.8144 0.5803 0.0042
vn -0.7535 0.6560 -0.0429
vn -0.7321 0.6761 -0.0826
vn -0.9954 0.0874 0.0391
vn -0.9948 0.0924 0.0419
vn -0.7769 0.6296 0.0059
vn -0.6867 0.7269 -0.0084
vn -0.7982 0.6023 0.0085
vn -0.8464 -0.2229 -0.4838
vn -0.9881 -0.0000 -0.1541
vn -0.9490 0.2713 -0.1607
vn 0.7424 0.0434 0.6685
vn -0.0000 -0.1659 0.9861
vn -0.7427 0.0468 0.6680
vn 0.9359 0.3514 -0.0226
vn 0.7568 0.6529 0.0330
vn 0.9454 0.3244 0.0317
vn 0.9538 -0.3006 0.0004
vn 0.9540 -0.2998 0.0001
vn 0.9541 -0.2995 -0.0000
vn 0.9851 0.1721 0.0042
vn 0.9699 0.2435 -0.0006
vn 0.9805 0.1956 0.0160
vn 0.8717 0.4900 0.0024
vn 0.9537 -0.3009 0.0005
vn 0.9927 0.1194 -0.0141
vn 0.9768 0.1650 -0.1367
vn 0.9456 0.2165 -0.2429
vn 0.8891 -0.2735 -0.3670
vn 0.9221 -0.1820 -0.3415
vn 0.8705 -0.1345 -0.4734
vn 0.9757 0.2190 0.0014
vn 0.9937 0.1109 0.0187
vn 0.8160 0.5781 0.0037
vn 0.7165 0.6976 -0.0020
vn 0.7530 0.6577 0.0199
vn 0.9993 0.0372 -0.0107
vn 0.9977 0.0618 0.0287
vn 0.8346 0.5509 0.0074
vn 0.8468 -0.2216 -0.4836
vn 0.9881 -0.0000 -0.1541
vn 0.9090 0.3586 -0.2124
vn -0.0000 -0.3540 0.9353
vn -0.0000 0.3558 0.9346
vt 0.629425 0.074539
vt 0.036438 0.052948
vt 0.036438 0.000000
vt 0.629425 0.928970
vt 0.859421 0.953903
vt 0.396866 0.958099
vt 0.000000 0.036743
vt 0.817017 0.036743
vt 0.383179 0.036743
vt 1.000000 0.036743
vt 0.000000 0.949020
vt 1.000000 0.949020
vt 0.383179 0.949020
vt 0.817017 0.949020
vt 0.396866 0.039688
vt 0.996277 0.047455
vt 0.996277 0.958450
vt 0.036438 1.000000
vt 0.036438 0.949371
vt 0.859421 0.045212
vt 0.375122 0.038284
vt 0.375122 0.959503
vt 0.611206 0.914337
vt 0.222275 1.000000
vt 0.000000 0.000000
vt 1.000000 0.821594
vt 0.500000 0.000000
vt 1.000000 0.000000
vt 0.842804 1.000000
vt 0.724228 0.000000
vt 0.000000 1.000000
vt 1.000000 1.000000
vt 0.881531 0.000000
vt 0.830811 0.014160
vt -0.004715 0.595764
vt 0.477890 0.999542
vt 0.213364 -0.013138
vt 0.994278 0.639938
vt 0.779007 0.000000
vt 0.000000 0.157196
vt 0.000000 0.497070
vt 0.183914 0.994156
vt 0.183914 0.000000
vt 0.992447 0.816086
vt 0.496109 1.000000
vt 0.000000 0.816086
vt 0.374985 0.000000
vt 0.374985 1.000000
vt 0.198761 1.000000
vt 0.198761 0.000000
vt 0.999893 1.000000
vt 0.786865 1.000000
vt 0.999893 0.000000
vt 0.573761 0.000000
vt 0.573761 1.000000
vt 0.786865 0.000000
vt 0.970642 1.000000
vt 0.987503 0.556015
vt 0.012451 0.556015
vt 1.000000 0.413345
vt 0.056061 0.000000
vt 0.943924 0.000000
vt 0.029312 1.000000
vt 0.000000 0.413345
vt 0.744339 0.050461
vt 0.940094 0.117584
vt 0.059891 0.117584
vt 0.264191 0.050461
vt 0.728806 0.413345
vt 0.936783 1.000000
vt 0.739563 1.000000
vt 0.278473 0.413345
vt 0.063156 1.000000
vt 0.943207 1.000000
vt 0.267090 1.000000
vt 0.744873 0.664932
vt 0.945862 0.664932
vt 0.950104 0.643448
vt 0.744156 0.643448
vt 0.054718 0.643448
vt 0.260086 0.643448
vt 0.056717 1.000000
vt 0.259369 0.664932
vt 0.054184 0.664932
vt 0.766251 1.000000
vt 0.239182 1.000000
vt 0.995682 0.036148
vt 0.980301 0.000000
vt 0.019638 0.000000
vt 1.000000 0.362854
vt 0.000000 0.624222
vt 1.000000 0.624222
vt 0.004303 0.036148
vt 0.000000 0.362854
vt 0.772507 1.000000
vt 0.775208 0.624222
vt 0.234406 0.624222
vt 0.233078 1.000000
vt 0.228058 0.021332
vt 0.228058 0.369766
vt 0.769608 0.369766
vt 0.769608 0.021332
vt 0.027237 0.910278
vt 0.245087 0.910278
vt 0.707779 0.602066
vt 0.289917 0.285614
vt 0.705887 0.285614
vt 0.272324 1.000000
vt 0.238678 0.231140
vt 0.058960 0.097946
vt 0.936890 0.097946
vt 0.754868 0.910278
vt 0.972748 0.910278
vt 0.727631 1.000000
vt 0.320908 0.751892
vt 0.265625 0.839264
vt 0.280243 0.598221
vt 0.933029 0.000000
vt 0.776093 0.249069
vt 0.214325 0.249069
vt 0.288727 0.085388
vt 0.757126 0.231140
vt 0.722122 0.085388
vt 0.214325 0.011795
vt 0.062805 0.000000
vt 0.084549 0.839264
vt 0.238678 0.589447
vt 0.075043 0.947418
vt 0.269669 0.947418
vt 0.662613 0.982147
vt 0.679352 0.751892
vt 0.735138 0.839264
vt 0.911316 0.839264
vt 0.720154 0.598221
vt 0.336563 0.982147
vt 0.730240 0.947418
vt 0.920868 0.947418
vt 0.757126 0.589447
vt 0.288025 0.602066
vt 0.776093 0.011795
vt 0.035095 0.000000
vt 0.964844 0.000000
vt 0.115723 0.597473
vt 0.221756 0.597473
vt 0.251282 0.682968
vt 0.348145 0.000000
vt 0.597458 0.246979
vt 0.348145 0.246979
vt 0.723831 0.597473
vt 0.578476 0.682968
vt 0.597458 0.000000
vt 0.097916 0.682968
vt 0.034760 0.332199
vt 0.000000 0.394165
vt 0.001953 0.158401
vt 0.036423 0.070251
vt 0.839218 0.682968
vt 0.824295 0.597473
vt 0.285599 1.000000
vt 0.231125 0.888443
vt 0.589417 0.888443
vt 0.904892 0.384445
vt 0.947388 0.397293
vt 0.602051 0.983658
vt 0.910248 0.319046
vt 0.910248 0.154587
vt 1.000000 0.134018
vt 1.000000 0.339676
vt 0.011765 0.425613
vt 0.249054 0.826721
vt 0.085358 0.826721
vt 0.663391 1.000000
vt 0.726837 0.000000
vt 0.730301 0.646393
vt 0.337357 1.000000
vt 0.272522 0.000000
vt 0.269745 0.646393
vt 0.000000 0.516296
vt 0.272339 0.051895
vt 0.272339 0.516296
vt 0.000000 0.051895
vt 0.727646 0.051895
vt 1.000000 0.051895
vt 1.000000 0.516296
vt 0.727646 0.516296
vt 0.904816 1.000000
vt 1.000000 0.408844
vt 0.000000 0.408844
vt 0.095154 1.000000
vt 0.080139 0.000000
vt 0.928650 0.000000
s 1
usemtl ANUNDER
f 64/65/61 65/66/61 66/67/61
f 67/68/62 68/69/62 69/70/62
f 70/71/63 71/72/63 72/68/63
f 72/68/63 73/65/63 70/71/63
f 74/71/64 75/71/64 76/65/64
f 76/65/64 77/65/64 74/71/64
f 66/67/61 78/71/61 64/65/61
f 67/68/62 79/72/62 68/69/62
f 35/73/45 80/68/45 81/70/45
f 82/66/65 83/74/65 84/75/65
f 81/70/45 85/69/45 34/76/45
f 85/69/45 86/72/45 34/76/45
f 81/70/45 34/76/45 35/73/45
f 87/68/66 20/77/66 88/78/66
f 80/68/45 35/73/45 89/77/45
f 84/75/65 90/67/65 82/66/65
f 88/78/66 20/77/66 37/79/66
f 86/72/45 91/80/45 34/76/45
f 17/80/66 92/72/66 93/81/66
f 94/78/64 95/79/64 96/82/64
f 93/81/66 18/83/66 17/80/66
f 40/84/67 97/85/67 98/86/67
f 98/86/67 22/87/67 40/84/67
f 99/88/68 100/89/68 101/90/68
f 39/91/67 102/88/67 103/92/67
f 102/88/67 39/91/67 33/89/67
f 95/79/64 36/93/64 96/82/64
f 104/83/64 105/81/64 106/90/64
f 107/82/68 108/93/68 109/86/68
f 106/90/64 19/94/64 104/83/64
f 109/86/68 108/93/68 110/87/68
f 111/94/68 101/90/68 100/89/68
f 83/95/69 112/96/69 113/97/69
f 69/98/64 85/99/64 81/100/64
f 113/97/69 84/101/69 83/95/69
f 69/98/64 68/102/64 85/99/64
f 21/103/70 35/104/70 34/105/70
f 34/105/70 38/106/70 21/103/70
f 24/107/71 27/108/71 29/109/71
f 24/107/71 29/109/71 32/110/71
usemtl GUNLSIDE
f 48/39/25 50/40/25 49/47/25
f 48/39/25 49/47/25 47/48/25
usemtl UNDRWING
f 17/9/19 18/10/20 19/11/21
f 20/12/22 21/13/23 22/14/24
f 23/15/25 24/16/25 25/17/25
f 23/15/25 25/17/25 26/15/25
f 23/15/25 27/18/25 24/16/25
f 28/19/26 29/20/26 30/19/26
f 31/21/26 32/22/26 29/20/26
f 33/23/27 34/24/28 19/11/21
f 34/24/28 17/9/19 19/11/21
f 21/13/23 20/12/22 35/25/29
f 36/26/30 37/27/31 20/12/22
f 20/12/22 22/14/24 36/26/30
f 38/28/32 33/23/27 39/29/33
f 38/28/32 34/24/28 33/23/27
f 21/13/23 40/30/34 22/14/24
f 28/19/26 31/21/26 29/20/26
usemtl XAPCCAB
f 117/194/170 199/195/170 152/196/170
f 152/196/170 173/197/170 117/194/170
f 200/196/171 170/195/171 153/198/171
f 170/195/171 178/199/171 153/198/171
usemtl XAPCLSID
f 124/160/142 196/153/143 75/152/144
f 68/154/145 92/155/146 85/159/147
f 93/157/148 86/155/149 71/156/150
f 71/156/150 75/152/144 93/157/148
f 197/158/151 93/157/148 75/152/144
f 68/154/145 79/156/152 92/155/146
f 75/152/144 196/153/143 197/158/151
f 75/152/144 78/151/153 124/160/142
f 78/151/153 90/161/154 124/160/142
f 147/162/155 124/160/142 90/161/154
f 84/164/156 113/163/157 198/162/158
f 93/157/148 197/158/151 151/165/159
f 151/165/159 106/166/160 93/157/148
f 173/172/161 152/169/162 123/168/163
f 151/165/159 103/171/164 102/170/165
f 152/169/162 197/158/151 196/153/143
f 196/153/143 123/168/163 152/169/162
f 123/168/163 196/153/143 124/160/142
f 102/170/165 106/166/160 151/165/159
f 197/158/151 152/169/162 151/165/159
f 123/168/163 118/167/166 173/172/161
f 198/162/158 66/161/167 84/164/156
f 120/175/168 133/174/168 115/173/168
f 114/176/168 120/175/168 115/173/168
f 145/177/169 140/179/169 139/178/169
usemtl XAPCNOSE
f 179/180/139 194/181/139 39/182/139
f 155/183/140 38/181/140 182/180/140
f 21/184/23 174/183/141 40/185/34
f 155/183/140 195/184/140 38/181/140
f 131/186/45 132/187/45 149/188/45
f 131/186/45 127/189/45 132/187/45
f 121/190/45 120/191/45 114/192/45
f 150/193/45 121/190/45 114/192/45
usemtl XAPCSIDE
f 64/151/108 76/152/109 189/153/110
f 69/154/111 80/155/112 67/156/113
f 76/152/114 67/156/113 80/155/112
f 80/155/112 94/157/115 76/152/114
f 76/152/114 94/157/115 190/158/116
f 69/154/111 81/159/111 80/155/112
f 191/158/117 192/153/118 73/152/118
f 189/153/110 125/160/119 64/151/108
f 82/161/120 64/151/108 125/160/119
f 82/161/120 125/160/119 193/162/121
f 137/162/122 112/163/123 83/164/124
f 165/165/125 191/158/117 88/157/126
f 88/157/126 96/166/127 165/165/125
f 119/167/128 142/168/129 170/169/130
f 96/166/127 98/170/131 97/171/132
f 142/168/129 189/153/110 190/158/133
f 190/158/133 170/169/130 142/168/129
f 142/168/129 125/160/119 189/153/110
f 97/171/132 165/165/125 96/166/127
f 170/169/130 190/158/133 171/165/134
f 170/169/130 117/172/135 119/167/128
f 137/162/122 83/164/124 65/161/136
f 130/173/137 128/174/137 127/175/137
f 130/173/137 127/175/137 131/176/137
f 184/177/138 138/178/138 146/179/138
usemtl XAPCTAIL
f 147/39/107 113/149/107 112/150/107
f 147/39/107 112/150/107 137/40/107
usemtl XAPCTOP
f 114/39/72 115/111/72 116/112/72
f 117/113/73 118/114/73 119/115/73
f 120/39/74 121/116/74 122/112/74
f 123/117/75 124/118/76 125/119/77
f 126/120/74 127/40/74 128/121/74
f 129/120/72 130/121/72 131/40/72
f 126/120/74 132/122/74 127/40/74
f 133/111/74 120/39/74 122/112/74
f 134/123/78 135/124/78 136/125/79
f 137/126/80 125/119/77 124/118/76
f 138/127/41 139/128/41 140/129/41
f 141/114/81 123/117/75 142/130/82
f 143/131/83 144/129/83 145/132/83
f 138/127/41 140/129/41 146/131/41
f 137/126/80 124/118/76 147/133/80
f 125/119/77 142/130/82 123/117/75
f 142/130/82 148/115/81 141/114/81
f 129/120/72 131/40/72 149/122/72
f 150/116/72 114/39/72 116/112/72
f 151/134/84 152/135/84 153/125/84
f 103/136/85 154/124/86 39/137/87
f 155/138/88 156/139/89 157/140/90
f 158/134/91 154/124/86 103/136/85
f 159/141/92 160/140/92 161/142/92
f 162/123/93 163/138/94 164/143/94
f 157/140/95 165/141/96 166/144/96
f 97/145/96 166/144/96 165/141/96
f 167/134/97 168/125/97 169/124/97
f 170/146/98 171/141/98 172/142/98
f 117/113/73 173/147/73 118/114/73
f 40/144/99 174/138/99 175/140/99
f 162/123/93 176/125/100 177/139/101
f 177/139/101 176/125/100 178/142/100
f 179/143/102 180/137/102 181/124/102
f 182/143/103 135/124/78 134/123/78
f 177/139/101 163/138/94 162/123/93
f 156/139/89 183/142/104 157/140/90
f 143/131/83 145/132/83 184/148/83
f 115/39/62 133/39/62 185/39/62
f 129/39/62 128/39/62 130/39/62
f 122/39/105 121/39/105 150/39/105
f 133/39/62 186/39/62 185/39/62
f 129/39/62 126/39/62 128/39/62
f 149/39/106 187/39/106 188/39/106
f 149/39/106 132/39/106 187/39/106
f 116/39/105 122/39/105 150/39/105
usemtl XGNBAREL
f 51/55/51 56/56/52 57/57/53
f 54/58/54 57/57/53 58/39/55
f 59/33/55 54/58/54 58/39/55
f 60/59/56 61/60/57 62/61/56
f 55/62/58 63/63/59 56/56/52
f 54/58/54 51/55/51 57/57/53
f 51/55/51 55/62/58 56/56/52
f 53/64/60 61/60/57 63/63/59
f 55/62/58 53/64/60 63/63/59
f 53/64/60 62/61/56 61/60/57
usemtl XGUNBAK
f 45/49/45 43/50/45 50/40/45
f 48/36/45 46/51/45 45/49/45
f 45/49/45 50/40/45 48/36/45
f 49/36/46 42/52/47 41/53/48
f 47/33/49 41/53/48 44/54/50
f 41/53/48 47/33/49 49/36/46
usemtl XGUNSID
f 41/31/35 42/32/36 43/33/37
f 44/34/38 45/35/39 46/36/40
f 41/31/35 43/33/37 45/35/39
f 45/35/39 44/34/38 41/31/35
f 47/37/41 44/38/41 46/33/41
f 47/37/41 46/33/41 48/39/41
f 49/40/42 50/39/43 43/33/42
f 49/40/42 43/33/42 42/41/44
usemtl XMUZZLE
f 51/42/45 52/43/45 53/44/45
f 51/42/45 54/45/45 52/43/45
f 51/42/45 53/44/45 55/46/45
o Apwheel.dat.001
v 0.195067 0.063416 0.125602
v 0.106933 0.000000 0.189276
v 0.106933 0.063416 0.125602
v 0.195067 0.217194 0.278693
v 0.106933 0.216995 0.188819
v 0.106933 0.217194 0.278693
v 0.195067 0.216995 0.188819
v 0.195067 0.153305 0.125418
v 0.106933 0.153305 0.125418
v 0.195067 0.000000 0.189276
v 0.106933 0.000199 0.279151
v 0.195067 0.000199 0.279151
v 0.195067 0.063889 0.342582
v 0.106933 0.063889 0.342582
v 0.195067 0.153763 0.342383
v 0.106933 0.153763 0.342383
vn -0.0000 -0.5072 -0.8619
vn -0.0000 -0.8639 -0.5036
vn -0.0000 -0.2547 -0.9670
vn -0.0000 0.9681 0.2507
vn -0.0000 0.9670 -0.2549
vn -0.0000 0.8639 0.5036
vn -0.0000 0.8617 -0.5074
vn -0.0000 0.2507 -0.9681
vn -0.0000 0.5035 -0.8640
vn -0.0000 -0.9681 -0.2507
vn -0.0000 -0.9670 0.2548
vn -0.0000 -0.8618 0.5072
vn -0.0000 -0.2507 0.9681
vn -0.0000 -0.5036 0.8639
vn -0.0000 0.5072 0.8618
vn -0.0000 0.2548 0.9670
vn -1.0000 -0.0000 -0.0000
vn 1.0000 -0.0000 -0.0000
vt 0.000870 0.291946
vt 0.294037 0.000000
vt 0.705841 1.000000
vt 0.291962 0.999130
vt 0.000000 0.705887
vt 0.707916 0.000885
vt 0.999985 0.294128
vt 0.999115 0.707962
s 1
usemtl APCWHEEL
f 201/200/172 202/201/173 203/200/174
f 204/202/175 205/203/176 206/202/177
f 207/203/178 208/204/179 209/204/180
f 207/203/178 209/204/180 205/203/176
f 208/204/179 201/200/172 203/200/174
f 208/204/179 203/200/174 209/204/180
f 201/200/172 210/201/181 202/201/173
f 204/202/175 207/203/178 205/203/176
f 210/201/181 211/205/182 202/201/173
f 210/201/181 212/205/183 211/205/182
f 212/205/183 213/206/184 214/206/185
f 212/205/183 214/206/185 211/205/182
f 213/206/184 215/207/186 216/207/187
f 213/206/184 216/207/187 214/206/185
f 215/207/186 204/202/175 206/202/177
f 215/207/186 206/202/177 216/207/187
f 214/206/188 209/204/188 211/205/188
f 211/205/188 209/204/188 202/201/188
f 202/201/188 209/204/188 203/200/188
f 214/206/188 216/207/188 209/204/188
f 216/207/188 206/202/188 209/204/188
f 206/202/188 205/203/188 209/204/188
f 213/206/189 212/205/189 210/201/189
f 213/206/189 210/201/189 201/200/189
f 213/206/189 201/200/189 208/204/189
f 213/206/189 208/204/189 207/203/189
f 213/206/189 207/203/189 204/202/189
f 213/206/189 204/202/189 215/207/189
o Apwheel.dat.002
v -0.106933 0.063416 -0.385398
v -0.195067 0.000000 -0.321724
v -0.195067 0.063416 -0.385398
v -0.106933 0.217194 -0.232307
v -0.195067 0.216995 -0.322181
v -0.195067 0.217194 -0.232307
v -0.106933 0.216995 -0.322181
v -0.106933 0.153305 -0.385582
v -0.195067 0.153305 -0.385582
v -0.106933 0.000000 -0.321724
v -0.195067 0.000199 -0.231849
v -0.106933 0.000199 -0.231849
v -0.106933 0.063889 -0.168418
v -0.195067 0.063889 -0.168418
v -0.106933 0.153763 -0.168617
v -0.195067 0.153763 -0.168617
vn -0.0000 -0.5072 -0.8619
vn -0.0000 -0.8639 -0.5036
vn -0.0000 -0.2547 -0.9670
vn -0.0000 0.9681 0.2507
vn -0.0000 0.9670 -0.2549
vn -0.0000 0.8639 0.5036
vn -0.0000 0.8617 -0.5074
vn -0.0000 0.2507 -0.9681
vn -0.0000 0.5035 -0.8640
vn -0.0000 -0.9681 -0.2507
vn -0.0000 -0.9670 0.2548
vn -0.0000 -0.8618 0.5072
vn -0.0000 -0.2507 0.9681
vn -0.0000 -0.5036 0.8639
vn -0.0000 0.5072 0.8618
vn -0.0000 0.2548 0.9670
vn -1.0000 -0.0000 -0.0000
vn 1.0000 -0.0000 -0.0000
vt 0.000870 0.291946
vt 0.294037 0.000000
vt 0.705841 1.000000
vt 0.291962 0.999130
vt 0.000000 0.705887
vt 0.707916 0.000885
vt 0.999985 0.294128
vt 0.999115 0.707962
s 1
usemtl APCWHEEL
f 217/208/190 218/209/191 219/208/192
f 220/210/193 221/211/194 222/210/195
f 223/211/196 224/212/197 225/212/198
f 223/211/196 225/212/198 221/211/194
f 224/212/197 217/208/190 219/208/192
f 224/212/197 219/208/192 225/212/198
f 217/208/190 226/209/199 218/209/191
f 220/210/193 223/211/196 221/211/194
f 226/209/199 227/213/200 218/209/191
f 226/209/199 228/213/201 227/213/200
f 228/213/201 229/214/202 230/214/203
f 228/213/201 230/214/203 227/213/200
f 229/214/202 231/215/204 232/215/205
f 229/214/202 232/215/205 230/214/203
f 231/215/204 220/210/193 222/210/195
f 231/215/204 222/210/195 232/215/205
f 230/214/206 225/212/206 227/213/206
f 227/213/206 225/212/206 218/209/206
f 218/209/206 225/212/206 219/208/206
f 230/214/206 232/215/206 225/212/206
f 232/215/206 222/210/206 225/212/206
f 222/210/206 221/211/206 225/212/206
f 229/214/207 228/213/207 226/209/207
f 229/214/207 226/209/207 217/208/207
f 229/214/207 217/208/207 224/212/207
f 229/214/207 224/212/207 223/211/207
f 229/214/207 223/211/207 220/210/207
f 229/214/207 220/210/207 231/215/207
o Apwheel.dat.003
v 0.195067 0.063416 -0.385398
v 0.106933 0.000000 -0.321724
v 0.106933 0.063416 -0.385398
v 0.195067 0.217194 -0.232307
v 0.106933 0.216995 -0.322181
v 0.106933 0.217194 -0.232307
v 0.195067 0.216995 -0.322181
v 0.195067 0.153305 -0.385582
v 0.106933 0.153305 -0.385582
v 0.195067 0.000000 -0.321724
v 0.106933 0.000199 -0.231849
v 0.195067 0.000199 -0.231849
v 0.195067 0.063889 -0.168418
v 0.106933 0.063889 -0.168418
v 0.195067 0.153763 -0.168617
v 0.106933 0.153763 -0.168617
vn -0.0000 -0.5072 -0.8619
vn -0.0000 -0.8639 -0.5036
vn -0.0000 -0.2547 -0.9670
vn -0.0000 0.9681 0.2507
vn -0.0000 0.9670 -0.2549
vn -0.0000 0.8639 0.5036
vn -0.0000 0.8617 -0.5074
vn -0.0000 0.2507 -0.9681
vn -0.0000 0.5035 -0.8640
vn -0.0000 -0.9681 -0.2507
vn -0.0000 -0.9670 0.2548
vn -0.0000 -0.8618 0.5072
vn -0.0000 -0.2507 0.9681
vn -0.0000 -0.5036 0.8639
vn -0.0000 0.5072 0.8618
vn -0.0000 0.2548 0.9670
vn -1.0000 -0.0000 -0.0000
vn 1.0000 -0.0000 -0.0000
vt 0.000870 0.291946
vt 0.294037 0.000000
vt 0.705841 1.000000
vt 0.291962 0.999130
vt 0.000000 0.705887
vt 0.707916 0.000885
vt 0.999985 0.294128
vt 0.999115 0.707962
s 1
usemtl APCWHEEL
f 233/216/208 234/217/209 235/216/210
f 236/218/211 237/219/212 238/218/213
f 239/219/214 240/220/215 241/220/216
f 239/219/214 241/220/216 237/219/212
f 240/220/215 233/216/208 235/216/210
f 240/220/215 235/216/210 241/220/216
f 233/216/208 242/217/217 234/217/209
f 236/218/211 239/219/214 237/219/212
f 242/217/217 243/221/218 234/217/209
f 242/217/217 244/221/219 243/221/218
f 244/221/219 245/222/220 246/222/221
f 244/221/219 246/222/221 243/221/218
f 245/222/220 247/223/222 248/223/223
f 245/222/220 248/223/223 246/222/221
f 247/223/222 236/218/211 238/218/213
f 247/223/222 238/218/213 248/223/223
f 246/222/224 241/220/224 243/221/224
f 243/221/224 241/220/224 234/217/224
f 234/217/224 241/220/224 235/216/224
f 246/222/224 248/223/224 241/220/224
f 248/223/224 238/218/224 241/220/224
f 238/218/224 237/219/224 241/220/224
f 245/222/225 244/221/225 242/217/225
f 245/222/225 242/217/225 233/216/225
f 245/222/225 233/216/225 240/220/225
f 245/222/225 240/220/225 239/219/225
f 245/222/225 239/219/225 236/218/225
f 245/222/225 236/218/225 247/223/225
