<?xml version="1.0" encoding="utf-8"?>
<COLLADA xmlns="http://www.collada.org/2005/11/COLLADASchema" version="1.4.1" xmlns:xsi="http://www.w3.org/2001/XMLSchema-instance">
  <asset>
    <contributor>
      <author>Blender User</author>
      <authoring_tool>Blender 4.3.0 commit date:2024-11-19, commit time:08:52, hash:2b18cad88b13</authoring_tool>
    </contributor>
    <created>2025-02-19T20:48:20</created>
    <modified>2025-02-19T20:48:20</modified>
    <unit name="meter" meter="1"/>
    <up_axis>Z_UP</up_axis>
  </asset>
  <library_effects>
    <effect id="ANUNDER-effect">
      <profile_COMMON>
        <newparam sid="anunder_png-surface">
          <surface type="2D">
            <init_from>anunder_png</init_from>
          </surface>
        </newparam>
        <newparam sid="anunder_png-sampler">
          <sampler2D>
            <source>anunder_png-surface</source>
          </sampler2D>
        </newparam>
        <technique sid="common">
          <lambert>
            <emission>
              <color sid="emission">0 0 0 1</color>
            </emission>
            <diffuse>
              <texture texture="anunder_png-sampler" texcoord="map1"/>
            </diffuse>
            <index_of_refraction>
              <float sid="ior">1</float>
            </index_of_refraction>
          </lambert>
        </technique>
      </profile_COMMON>
    </effect>
    <effect id="GUNLSIDE-effect">
      <profile_COMMON>
        <newparam sid="gunlside_png-surface">
          <surface type="2D">
            <init_from>gunlside_png</init_from>
          </surface>
        </newparam>
        <newparam sid="gunlside_png-sampler">
          <sampler2D>
            <source>gunlside_png-surface</source>
          </sampler2D>
        </newparam>
        <technique sid="common">
          <lambert>
            <emission>
              <color sid="emission">0 0 0 1</color>
            </emission>
            <diffuse>
              <texture texture="gunlside_png-sampler" texcoord="map1"/>
            </diffuse>
            <index_of_refraction>
              <float sid="ior">1</float>
            </index_of_refraction>
          </lambert>
        </technique>
      </profile_COMMON>
    </effect>
    <effect id="UNDRWING-effect">
      <profile_COMMON>
        <newparam sid="undrwing_png-surface">
          <surface type="2D">
            <init_from>undrwing_png</init_from>
          </surface>
        </newparam>
        <newparam sid="undrwing_png-sampler">
          <sampler2D>
            <source>undrwing_png-surface</source>
          </sampler2D>
        </newparam>
        <technique sid="common">
          <lambert>
            <emission>
              <color sid="emission">0 0 0 1</color>
            </emission>
            <diffuse>
              <texture texture="undrwing_png-sampler" texcoord="map1"/>
            </diffuse>
            <index_of_refraction>
              <float sid="ior">1</float>
            </index_of_refraction>
          </lambert>
        </technique>
      </profile_COMMON>
    </effect>
    <effect id="XAPCCAB-effect">
      <profile_COMMON>
        <newparam sid="xapccab_png-surface">
          <surface type="2D">
            <init_from>xapccab_png</init_from>
          </surface>
        </newparam>
        <newparam sid="xapccab_png-sampler">
          <sampler2D>
            <source>xapccab_png-surface</source>
          </sampler2D>
        </newparam>
        <technique sid="common">
          <lambert>
            <emission>
              <color sid="emission">0 0 0 1</color>
            </emission>
            <diffuse>
              <texture texture="xapccab_png-sampler" texcoord="map1"/>
            </diffuse>
            <index_of_refraction>
              <float sid="ior">1</float>
            </index_of_refraction>
          </lambert>
        </technique>
      </profile_COMMON>
    </effect>
    <effect id="XAPCLSID-effect">
      <profile_COMMON>
        <newparam sid="xapclsid_png-surface">
          <surface type="2D">
            <init_from>xapclsid_png</init_from>
          </surface>
        </newparam>
        <newparam sid="xapclsid_png-sampler">
          <sampler2D>
            <source>xapclsid_png-surface</source>
          </sampler2D>
        </newparam>
        <technique sid="common">
          <lambert>
            <emission>
              <color sid="emission">0 0 0 1</color>
            </emission>
            <diffuse>
              <texture texture="xapclsid_png-sampler" texcoord="map1"/>
            </diffuse>
            <index_of_refraction>
              <float sid="ior">1</float>
            </index_of_refraction>
          </lambert>
        </technique>
      </profile_COMMON>
    </effect>
    <effect id="XAPCNOSE-effect">
      <profile_COMMON>
        <newparam sid="xapcnose_png-surface">
          <surface type="2D">
            <init_from>xapcnose_png</init_from>
          </surface>
        </newparam>
        <newparam sid="xapcnose_png-sampler">
          <sampler2D>
            <source>xapcnose_png-surface</source>
          </sampler2D>
        </newparam>
        <technique sid="common">
          <lambert>
            <emission>
              <color sid="emission">0 0 0 1</color>
            </emission>
            <diffuse>
              <texture texture="xapcnose_png-sampler" texcoord="map1"/>
            </diffuse>
            <index_of_refraction>
              <float sid="ior">1</float>
            </index_of_refraction>
          </lambert>
        </technique>
      </profile_COMMON>
    </effect>
    <effect id="XAPCSIDE-effect">
      <profile_COMMON>
        <newparam sid="xapcside_png-surface">
          <surface type="2D">
            <init_from>xapcside_png</init_from>
          </surface>
        </newparam>
        <newparam sid="xapcside_png-sampler">
          <sampler2D>
            <source>xapcside_png-surface</source>
          </sampler2D>
        </newparam>
        <technique sid="common">
          <lambert>
            <emission>
              <color sid="emission">0 0 0 1</color>
            </emission>
            <diffuse>
              <texture texture="xapcside_png-sampler" texcoord="map1"/>
            </diffuse>
            <index_of_refraction>
              <float sid="ior">1</float>
            </index_of_refraction>
          </lambert>
        </technique>
      </profile_COMMON>
    </effect>
    <effect id="XAPCTAIL-effect">
      <profile_COMMON>
        <newparam sid="xapctail_png-surface">
          <surface type="2D">
            <init_from>xapctail_png</init_from>
          </surface>
        </newparam>
        <newparam sid="xapctail_png-sampler">
          <sampler2D>
            <source>xapctail_png-surface</source>
          </sampler2D>
        </newparam>
        <technique sid="common">
          <lambert>
            <emission>
              <color sid="emission">0 0 0 1</color>
            </emission>
            <diffuse>
              <texture texture="xapctail_png-sampler" texcoord="map1"/>
            </diffuse>
            <index_of_refraction>
              <float sid="ior">1</float>
            </index_of_refraction>
          </lambert>
        </technique>
      </profile_COMMON>
    </effect>
    <effect id="XAPCTOP-effect">
      <profile_COMMON>
        <newparam sid="xapctop_png-surface">
          <surface type="2D">
            <init_from>xapctop_png</init_from>
          </surface>
        </newparam>
        <newparam sid="xapctop_png-sampler">
          <sampler2D>
            <source>xapctop_png-surface</source>
          </sampler2D>
        </newparam>
        <technique sid="common">
          <lambert>
            <emission>
              <color sid="emission">0 0 0 1</color>
            </emission>
            <diffuse>
              <texture texture="xapctop_png-sampler" texcoord="map1"/>
            </diffuse>
            <index_of_refraction>
              <float sid="ior">1</float>
            </index_of_refraction>
          </lambert>
        </technique>
      </profile_COMMON>
    </effect>
    <effect id="XGNBAREL-effect">
      <profile_COMMON>
        <newparam sid="xgnbarel_png-surface">
          <surface type="2D">
            <init_from>xgnbarel_png</init_from>
          </surface>
        </newparam>
        <newparam sid="xgnbarel_png-sampler">
          <sampler2D>
            <source>xgnbarel_png-surface</source>
          </sampler2D>
        </newparam>
        <technique sid="common">
          <lambert>
            <emission>
              <color sid="emission">0 0 0 1</color>
            </emission>
            <diffuse>
              <texture texture="xgnbarel_png-sampler" texcoord="map1"/>
            </diffuse>
            <index_of_refraction>
              <float sid="ior">1</float>
            </index_of_refraction>
          </lambert>
        </technique>
      </profile_COMMON>
    </effect>
    <effect id="XGUNBAK-effect">
      <profile_COMMON>
        <newparam sid="xgunbak_png-surface">
          <surface type="2D">
            <init_from>xgunbak_png</init_from>
          </surface>
        </newparam>
        <newparam sid="xgunbak_png-sampler">
          <sampler2D>
            <source>xgunbak_png-surface</source>
          </sampler2D>
        </newparam>
        <technique sid="common">
          <lambert>
            <emission>
              <color sid="emission">0 0 0 1</color>
            </emission>
            <diffuse>
              <texture texture="xgunbak_png-sampler" texcoord="map1"/>
            </diffuse>
            <index_of_refraction>
              <float sid="ior">1</float>
            </index_of_refraction>
          </lambert>
        </technique>
      </profile_COMMON>
    </effect>
    <effect id="XGUNSID-effect">
      <profile_COMMON>
        <newparam sid="xgunsid_png-surface">
          <surface type="2D">
            <init_from>xgunsid_png</init_from>
          </surface>
        </newparam>
        <newparam sid="xgunsid_png-sampler">
          <sampler2D>
            <source>xgunsid_png-surface</source>
          </sampler2D>
        </newparam>
        <technique sid="common">
          <lambert>
            <emission>
              <color sid="emission">0 0 0 1</color>
            </emission>
            <diffuse>
              <texture texture="xgunsid_png-sampler" texcoord="map1"/>
            </diffuse>
            <index_of_refraction>
              <float sid="ior">1</float>
            </index_of_refraction>
          </lambert>
        </technique>
      </profile_COMMON>
    </effect>
    <effect id="XMUZZLE-effect">
      <profile_COMMON>
        <newparam sid="xmuzzle_png-surface">
          <surface type="2D">
            <init_from>xmuzzle_png</init_from>
          </surface>
        </newparam>
        <newparam sid="xmuzzle_png-sampler">
          <sampler2D>
            <source>xmuzzle_png-surface</source>
          </sampler2D>
        </newparam>
        <technique sid="common">
          <lambert>
            <emission>
              <color sid="emission">0 0 0 1</color>
            </emission>
            <diffuse>
              <texture texture="xmuzzle_png-sampler" texcoord="map1"/>
            </diffuse>
            <index_of_refraction>
              <float sid="ior">1</float>
            </index_of_refraction>
          </lambert>
        </technique>
      </profile_COMMON>
    </effect>
    <effect id="APCWHEEL-effect">
      <profile_COMMON>
        <newparam sid="apcwheel_png-surface">
          <surface type="2D">
            <init_from>apcwheel_png</init_from>
          </surface>
        </newparam>
        <newparam sid="apcwheel_png-sampler">
          <sampler2D>
            <source>apcwheel_png-surface</source>
          </sampler2D>
        </newparam>
        <technique sid="common">
          <lambert>
            <emission>
              <color sid="emission">0 0 0 1</color>
            </emission>
            <diffuse>
              <texture texture="apcwheel_png-sampler" texcoord="map1"/>
            </diffuse>
            <index_of_refraction>
              <float sid="ior">1</float>
            </index_of_refraction>
          </lambert>
        </technique>
      </profile_COMMON>
    </effect>
  </library_effects>
  <library_images>
    <image id="anunder_png" name="anunder_png">
      <init_from>anunder.png</init_from>
    </image>
    <image id="apcwheel_png" name="apcwheel_png">
      <init_from>apcwheel.png</init_from>
    </image>
    <image id="gunlside_png" name="gunlside_png">
      <init_from>gunlside.png</init_from>
    </image>
    <image id="undrwing_png" name="undrwing_png">
      <init_from>undrwing.png</init_from>
    </image>
    <image id="xapccab_png" name="xapccab_png">
      <init_from>xapccab.png</init_from>
    </image>
    <image id="xapclsid_png" name="xapclsid_png">
      <init_from>xapclsid.png</init_from>
    </image>
    <image id="xapcnose_png" name="xapcnose_png">
      <init_from>xapcnose.png</init_from>
    </image>
    <image id="xapcside_png" name="xapcside_png">
      <init_from>xapcside.png</init_from>
    </image>
    <image id="xapctail_png" name="xapctail_png">
      <init_from>xapctail.png</init_from>
    </image>
    <image id="xapctop_png" name="xapctop_png">
      <init_from>xapctop.png</init_from>
    </image>
    <image id="xgnbarel_png" name="xgnbarel_png">
      <init_from>xgnbarel.png</init_from>
    </image>
    <image id="xgunbak_png" name="xgunbak_png">
      <init_from>xgunbak.png</init_from>
    </image>
    <image id="xgunsid_png" name="xgunsid_png">
      <init_from>xgunsid.png</init_from>
    </image>
    <image id="xmuzzle_png" name="xmuzzle_png">
      <init_from>xmuzzle.png</init_from>
    </image>
  </library_images>
  <library_materials>
    <material id="ANUNDER-material" name="ANUNDER">
      <instance_effect url="#ANUNDER-effect"/>
    </material>
    <material id="GUNLSIDE-material" name="GUNLSIDE">
      <instance_effect url="#GUNLSIDE-effect"/>
    </material>
    <material id="UNDRWING-material" name="UNDRWING">
      <instance_effect url="#UNDRWING-effect"/>
    </material>
    <material id="XAPCCAB-material" name="XAPCCAB">
      <instance_effect url="#XAPCCAB-effect"/>
    </material>
    <material id="XAPCLSID-material" name="XAPCLSID">
      <instance_effect url="#XAPCLSID-effect"/>
    </material>
    <material id="XAPCNOSE-material" name="XAPCNOSE">
      <instance_effect url="#XAPCNOSE-effect"/>
    </material>
    <material id="XAPCSIDE-material" name="XAPCSIDE">
      <instance_effect url="#XAPCSIDE-effect"/>
    </material>
    <material id="XAPCTAIL-material" name="XAPCTAIL">
      <instance_effect url="#XAPCTAIL-effect"/>
    </material>
    <material id="XAPCTOP-material" name="XAPCTOP">
      <instance_effect url="#XAPCTOP-effect"/>
    </material>
    <material id="XGNBAREL-material" name="XGNBAREL">
      <instance_effect url="#XGNBAREL-effect"/>
    </material>
    <material id="XGUNBAK-material" name="XGUNBAK">
      <instance_effect url="#XGUNBAK-effect"/>
    </material>
    <material id="XGUNSID-material" name="XGUNSID">
      <instance_effect url="#XGUNSID-effect"/>
    </material>
    <material id="XMUZZLE-material" name="XMUZZLE">
      <instance_effect url="#XMUZZLE-effect"/>
    </material>
    <material id="APCWHEEL-material" name="APCWHEEL">
      <instance_effect url="#APCWHEEL-effect"/>
    </material>
  </library_materials>
  <library_geometries>
    <geometry id="Mesh_005-mesh" name="Mesh.005">
      <mesh>
        <source id="Mesh_005-mesh-positions">
          <float_array id="Mesh_005-mesh-positions-array" count="552">0.09268188 -0.08290094 0.1221532 0.09739685 -0.1903991 0.2266759 0.1089935 -0.2758789 0.2266759 -0.09391784 -0.082901 0.1221532 -0.09934991 -0.3879089 0.08162587 -0.1002807 -0.3444061 0.1631689 0.1009368 0.1235657 0.2330999 0.1009368 0.4063568 0.08908748 0.1009368 0.4063568 0.1655798 0.1009368 0.335495 0.2330999 0.1009368 0.1235657 0.0568304 -0.09828186 0.335495 0.2330999 -0.09828186 0.1235656 0.0568304 -0.09828186 0.1235656 0.2330999 -0.09828186 0.4063568 0.1655798 -0.09828186 0.4063568 0.08908748 0.1003265 -0.3444061 0.1631689 0.09863281 -0.08290094 0.05750173 -0.1003417 -0.082901 0.05750173 -0.1094207 -0.2758789 0.2266759 -0.09838861 -0.1903992 0.2266759 0.09910583 -0.3879089 0.08162587 0.1006317 -0.3805541 0.1669988 -0.1005859 -0.3805542 0.1669988 -0.1843109 0.2347259 0.3411627 -0.1685486 0.2454528 0.3079748 -0.1685486 0.1201019 0.2889929 -0.1685486 0.2230987 0.37432 -0.1843109 0.1201019 0.3316717 -0.1685486 0.1201019 0.37432 -0.09846496 0.2399597 0.37432 -0.09846496 0.1201019 0.37432 -0.09846496 0.2623139 0.307456 -0.09846496 0.1201019 0.2885046 -0.158432 -0.05548095 0.3457861 -0.1301879 -0.05548095 0.3068762 -0.1127166 -0.05548095 0.330924 -0.158432 -0.05548095 0.316062 -0.1301879 -0.05548095 0.3549719 -0.158432 0.1288299 0.3457861 -0.158432 0.1288299 0.316062 -0.1302796 0.1288299 0.3068762 -0.1302795 -0.05548095 0.3068762 -0.1301727 0.1288299 0.3069067 -0.1127167 0.1288299 0.330924 -0.1301727 -0.05548095 0.3069067 -0.130188 0.1288299 0.3549719 -0.1941528 0.3268738 0.226676 -0.2012329 0.395752 0.1475744 0.2029418 0.395752 0.1475744 -0.2062988 0.1291656 0.1221532 0.1848907 0.1291657 0.0484991 -0.183075 0.1291656 0.0484991 0.1958618 0.2366638 0.2266759 0.2080078 0.1291657 0.1221532 -0.2064209 0.1291656 0.1221532 -0.1942597 0.2366638 0.2266759 0.1958618 0.3268738 0.226676 0.1959686 0.2366638 0.2266759 -0.1941528 0.2366638 0.2266759 -0.1942597 0.3268738 0.226676 0.1959686 0.3268738 0.226676 0.2081298 0.1291657 0.1221532 -0.2062988 -0.082901 0.1221532 -0.1830749 -0.082901 0.04849904 -0.2011566 0.395752 0.1475744 -0.1814728 0.3943329 0.06944942 0.1833038 0.3943329 0.06944942 0.1848907 -0.08290094 0.04849904 0.2081298 -0.08290094 0.1221532 -0.2064208 -0.082901 0.1221532 -0.18013 -0.1903992 0.2266759 -0.09402465 -0.082901 0.1221532 0.202835 0.395752 0.1475744 0.09260559 -0.08290094 0.1221532 0.2080078 -0.08290094 0.1221532 0.1819458 -0.1903991 0.2266759 -0.1802215 -0.1903992 0.2266759 -0.0984649 -0.1903992 0.2266759 -0.1827697 -0.2758789 0.2266759 -0.1838989 -0.3805542 0.1669988 -0.1856536 -0.3444061 0.1631689 0.185318 -0.3444061 0.1631689 0.1002197 -0.3444061 0.1631689 0.184494 -0.2758789 0.2266759 0.1854248 -0.3444061 0.1631689 0.185669 -0.3805541 0.1669988 0.09732055 -0.1903991 0.2266759 0.181839 -0.1903991 0.2266759 0.1846008 -0.2758789 0.2266759 -0.1828918 -0.2758789 0.2266759 -0.1095428 -0.2758789 0.2266759 -0.1857299 -0.3444061 0.1631689 -0.1003875 -0.3444061 0.1631689 0.1088867 -0.2758789 0.2266759 -0.1758118 0.4236298 0.09574031 0.1776428 0.4236298 0.09574031 0.2184448 -0.4253082 0.1498022 0.206543 -0.3489837 0.1436681 0.1113739 -0.3489837 0.1436681 -0.09078979 -0.08679199 0.3418341 0.09178155 0.1823577 0.3467169 -0.08996582 0.1823577 0.3467169 0.2184448 -0.4253082 0.08847707 0.09945678 -0.4253082 0.08847707 0.1113739 -0.3489837 0.0946111 0.114151 0.2287139 0.3134527 0.1926879 0.3420258 0.2521582 -0.1908569 0.3420258 0.2521582 -0.1113586 -0.3489838 0.0946111 -0.2184448 -0.4253082 0.08847707 -0.2065429 -0.3489838 0.0946111 -0.1113586 -0.3489838 0.1436681 -0.2065429 -0.3489838 0.1436681 -0.2184448 -0.4253082 0.1498022 -0.09945672 -0.4253082 0.08847707 0.206543 -0.3489837 0.0946111 0.07823181 -0.2142486 0.2511968 0.1024017 -0.2885589 0.2521581 0.09597778 -0.08361816 0.2938147 -0.189209 0.4253082 0.1660681 -0.120636 0.2134399 0.2950506 0.1248168 0.2134399 0.2950506 0.09226983 0.3527069 0.2950506 0.09167474 0.1823577 0.3467169 -0.11232 0.2287139 0.3134527 -0.0971527 0.3527069 0.2950506 0.09219354 0.3527069 0.2950506 0.1248168 0.4153137 0.1754522 -0.09704589 0.3527069 0.2950506 0.1910095 0.4253082 0.1660681 -0.09004211 0.1823577 0.3467169 -0.09945672 -0.4253082 0.1498022 0.09945678 -0.4253082 0.1498022 0.1815186 -0.2885589 0.2521581 0.114151 -0.0760498 0.3134527 0.09597778 -0.08352661 0.2938147 0.1024017 -0.2886657 0.2521581 -0.07115167 -0.4101257 0.213706 -0.07846063 -0.2142487 0.2511968 -0.1028289 -0.288559 0.2521581 0.1815949 -0.2885589 0.2521581 -0.1795959 -0.288559 0.2521581 -0.1026306 -0.288559 0.2521581 -0.09616088 -0.08361816 0.2938147 0.078125 -0.2142486 0.2511968 -0.07093805 -0.4101257 0.213706 0.07147216 -0.4101257 0.213706 -0.1797027 -0.288559 0.2521581 -0.1006927 -0.3805542 0.1669988 0.1814118 -0.2885589 0.2521581 0.09588623 -0.08352661 0.2938147 0.102478 -0.2885589 0.2521581 -0.1123199 -0.0760498 0.3134527 -0.1798095 -0.288559 0.2521581 -0.09628295 -0.08352661 0.2938147 0.09260559 -0.08679199 0.3418341 -0.07104486 -0.4101257 0.213706 -0.1027069 -0.288559 0.2521581 0.09609985 -0.08352661 0.2938147 -0.07835382 -0.2142487 0.2511968 -0.09616088 -0.08352661 0.2938147 0.0712738 -0.4101257 0.213706 0.1005249 -0.3805541 0.1669988 0.1022949 -0.2885589 0.2521581 0.07139587 -0.4101257 0.213706 -0.09608459 -0.08352661 0.2938147 -0.120636 0.4153137 0.1754522 0.1112518 -0.3489837 0.1436681 0.1112518 -0.3489837 0.0946111 -0.1114349 -0.3489838 0.0946111 -0.1114349 -0.3489838 0.1436681 -0.1770935 0.2115478 0.2521582 -0.1770935 -0.0667572 0.2521582 -0.1771697 -0.0667572 0.2521582 -0.1771698 0.2115478 0.2521582 -0.1893005 0.4253082 0.1660681 0.09899902 -0.3879089 0.08162587 -0.09945672 -0.3879089 0.08162587 0.1788787 0.2115479 0.2521582 0.1788787 -0.06675714 0.2521582 0.1909027 0.4253082 0.1660681 -0.1124267 -0.0760498 0.3134527 0.1140442 -0.0760498 0.3134527</float_array>
          <technique_common>
            <accessor source="#Mesh_005-mesh-positions-array" count="184" stride="3">
              <param name="X" type="float"/>
              <param name="Y" type="float"/>
              <param name="Z" type="float"/>
            </accessor>
          </technique_common>
        </source>
        <source id="Mesh_005-mesh-normals">
          <float_array id="Mesh_005-mesh-normals-array" count="870">0.9867569 0.1340389 0.09134727 0.9866137 0.1338497 0.09315454 0.9966124 0.001816928 0.08222222 -0.9992318 0.03882157 0.005357384 -0.99284 -0.1170956 0.02361238 -0.9981127 0.009727358 -0.06063342 1 0 0 1 0 0 1 0 0 1 0 0 1 0 0 -1 0 0 -1 0 0 -1 0 0 -1 -1.45035e-7 0 -1 -1.5069e-7 0 0.9979422 -0.0470975 -0.04351067 0.9973242 0.06600075 -0.0314368 -0.9950893 0.004584431 0.0988748 -0.9974932 0.06504714 -0.02786546 -0.9878502 0.127493 0.08886831 0.999822 2.18913e-5 -0.01886922 0.9998092 0.006487667 -0.0184285 -0.9040736 -0.4267209 0.02367252 -0.9923118 0.02028918 -0.122089 -0.9091991 0.06233894 -0.4116684 -0.9241614 0.04554063 -0.3792782 -0.9234725 -0.01737868 0.3832709 -0.9888289 -0.002132058 0.1490403 -0.9379873 0 0.3466696 0 -2.73216e-7 1 0 -2.89352e-7 1 1.47849e-7 -2.62358e-7 1 2.22948e-7 -2.48647e-7 1 -0.02510291 0.1408637 -0.9897108 -0.006906211 0.1320911 -0.9912136 -0.02510112 0.1408631 -0.9897109 -0.04329997 0.1495832 -0.9878007 1.23486e-7 -1 0 0 -1 0 1.37038e-7 -1 0 0 -1 0 1.4744e-7 -1 0 1 0 0 1 0 0 1 0 0 1 0 0 0 -1 -3.37804e-7 0 -1 -6.24338e-7 1.22716e-7 -1 -1.8323e-7 1.22992e-7 -1 -1.37193e-7 0 -1 -4.67383e-7 -0.2030028 0.9450013 0.2564423 -0.2277933 0.952983 0.1998341 -0.2070271 0.9281542 0.3093051 -0.1956112 0.9111765 0.3626206 -0.2131366 0.8859142 0.4119816 -0.9246485 8.11564e-5 0.3808219 -0.6481313 9.00723e-5 0.7615287 -0.9247518 -2.22308e-7 -0.380571 -0.5043479 -0.6677248 -0.5475188 -0.3101941 0 -0.9506733 -0.3101937 0 -0.9506734 0.8089139 0 -0.5879271 0.9718787 2.92713e-7 -0.2354822 0.8089139 0 -0.5879273 0.07632493 0 0.997083 0.5240966 -9.01722e-5 0.8516589 0.9719224 0 0.2353017 0 -0.7541606 -0.6566901 0 -0.7541607 -0.6566901 0 -0.7541608 -0.65669 0 1 4.46529e-7 0 1 0 0 1 5.49814e-7 0 0.6971147 -0.7169596 0 0.6971147 -0.7169596 0 0.6971148 -0.7169595 0 0.6971148 -0.7169595 0 1.65183e-7 -1 0 1.65183e-7 -1 0 1.65183e-7 -1 0 1.65183e-7 -1 0 -0.7541608 -0.6566899 0 1 -1.52554e-7 0 -1 1.29602e-6 0 -1 -1.32974e-7 0 -1 -2.47702e-7 0 -0.9998351 0.01816165 0 -0.9998351 0.01816189 0 -0.9998352 0.01816076 0 -1 -3.30415e-7 0 -1 -7.49217e-7 0 -1 -2.03605e-7 2.20846e-7 -0.6971149 -0.7169595 1.50332e-7 -0.6971147 -0.7169596 0 -0.6971147 -0.7169596 1.32721e-7 -1 1.28304e-7 0 -0.9998351 0.01816058 0 -0.6971147 -0.7169597 0 -1 0 1.44685e-7 -0.6971146 -0.7169597 2.1544e-7 -0.6971147 -0.7169597 0 -0.6971146 -0.7169598 0 0 -1 0 -0.6971146 -0.7169598 0 -0.1053621 -0.994434 0 -0.1053621 -0.994434 0 0.6797305 -0.733462 0 0.6797305 -0.733462 0 0.6797305 -0.733462 0 -0.1053621 -0.994434 0 -0.1053621 -0.9944339 0 -0.1053622 -0.994434 0 -0.1053621 -0.994434 0 0.6797307 -0.7334619 0 0.6797305 -0.7334619 0 0.6797306 -0.7334619 0 0.6797304 -0.7334621 0 0.6678923 -0.744258 0 0.6678922 -0.7442581 0 0.6678932 -0.7442572 0 0 -1 0 0 -1 0 0 -1 0 0.6678932 -0.7442571 0 0 -1 0 -0.07884716 -0.9968867 0 -0.07884716 -0.9968868 0 -0.07884716 -0.9968867 0 -0.07884716 -0.9968868 0 0.1133319 -0.9935572 0 0.1133319 -0.9935572 0 0.1133319 -0.9935572 0 0.1133319 -0.9935573 0 0.08010953 0.9967861 0 0.08010953 0.9967861 0 -0.01813858 0.9998356 0 -0.01813858 0.9998355 0 -0.01813858 0.9998355 0 0.08010953 -0.9967861 0 0.08010953 -0.9967861 0 0.08010953 -0.9967862 0.0448178 0.541926 0.8392304 0.1289178 0.5763221 0.8069902 -0.1429623 0.625192 0.7672659 0 0.08010953 -0.9967862 0 0.08010947 -0.9967861 0 0.08010953 0.9967862 0 0.08010947 0.9967861 0 0.08010953 0.9967862 0 0.08010959 -0.9967861 -0.536484 -0.1637856 0.8278643 -0.5364572 -0.1637769 0.8278834 -0.5829356 -0.1793521 0.7924764 0 0.7187295 0.6952898 0 0 1 0 0 1 0 0 1 0 0.5830073 0.812467 0.04713338 0.490516 0.8701567 0 0.8859534 0.4637743 -1.45743e-7 0.8859531 0.4637748 0 0.8859533 0.4637745 -1.80742e-7 0 1 0 0.7187298 0.6952896 0 0.5830076 0.8124668 0 0.08010959 0.9967861 -0.596415 -0.3912261 0.700879 3.30065e-4 -0.6795799 0.7336015 1.69719e-4 -0.6796579 0.7335293 0 -0.6797407 0.7334526 0.4829243 -0.1471969 0.8632017 0.5331374 -0.1640912 0.829963 0.3795747 -0.3590593 0.8526426 9.16313e-4 -0.6792939 0.7338657 0 -0.1991881 0.9799613 1.6049e-6 -0.2290427 0.9734165 0 -0.1879875 0.9821714 0 -0.1879876 0.9821714 0.3795333 -0.3591053 0.8526418 0 -0.6793159 0.733846 0 -0.6793158 0.733846 0 -0.6793158 0.7338462 0 -0.1991028 0.9799787 0.6330485 -0.393352 0.6667262 0 -0.01813858 0.9998355 -0.8774089 -0.3366351 0.341805 0 -0.309962 0.950749 3.41155e-7 -0.2697798 0.9629222 0 -0.3099619 0.950749 0.8795941 -0.3321714 0.3405532 -0.4880599 -0.1476164 0.8602367 0.581231 -0.1803358 0.7935046 0 0.8859536 0.4637742 0 1 0 -0.988029 0.1542684 0 -0.988029 0.1542682 0 -0.988029 0.1542683 0 0.9879083 0.1550397 0 0.9879083 0.1550396 0 0.9879083 0.1550394 0 0.9879083 0.1550398 0 -0.9880291 0.1542685 0 0 0.9997154 -0.02385896 0 0.9997155 -0.02385884 0 0.9997153 -0.02385938 0 0.9997154 -0.02385944 -0.956042 -0.02573108 0.2920986 -0.9559894 -0.01606309 0.292961 -0.8202333 -0.04507708 0.5702505 -0.9537141 0 -0.3007153 -0.9584636 -0.2694324 -0.0935626 -0.9693479 0.2135051 -0.1215745 -0.9560078 -0.01608288 0.2929003 -0.9700584 -0.03164416 0.2408015 -0.7769492 -0.005912721 0.6295357 -0.953714 0 -0.3007153 -0.9473869 0.005893588 0.3200365 -0.830517 -2.18133e-7 0.5569934 -0.9440026 0.02530056 0.3289667 -0.976624 0.1363133 0.1662057 -0.9452791 0.2428685 0.2178587 -0.8700918 0.4736275 -0.1364455 -0.9212591 0.3428463 -0.1836794 -0.8883802 0.3681057 -0.2743701 -0.9952266 -9.47579e-4 0.09758687 -0.9474147 0.005899369 0.3199542 -0.9950034 0.02100783 0.09760665 -0.9941573 -0.01777744 0.1064681 -0.8144123 -0.004242062 0.5802712 -0.753513 0.04289299 0.6560322 -0.7321392 0.08262902 0.6761248 -0.9954109 -0.03906542 0.08735585 -0.9948416 -0.0419296 0.0923689 -0.7769044 -0.005890905 0.6295911 -0.6866706 0.008408367 0.7269201 -0.798213 -0.00848335 0.6023157 -0.8463562 0.4837527 -0.2228556 -0.9880591 0.1540757 0 -0.9880591 0.1540759 0 -0.9880592 0.1540756 0 -0.9880591 0.1540754 0 -0.9489704 0.1607437 0.2713242 0.742425 -0.6685223 0.04339396 0 -0.9861465 -0.1658772 0 -0.9861465 -0.165877 1.95121e-7 -0.9861465 -0.1658766 -0.7426834 -0.6680057 0.04679518 0 -0.9861465 -0.1658774 0 -1 0 0.9359449 0.02260994 0.3514201 0.7567502 -0.0329526 0.6528731 0.9453974 -0.03174245 0.3243705 0.953758 -4.26858e-4 -0.3005753 0.9540096 -1.22098e-4 -0.2997764 0.95411 0 -0.2994565 0.9850755 -0.004182338 0.1720722 0.9698902 5.58345e-4 0.2435422 0.980548 -0.01598161 0.1956279 0.8717083 -0.002431094 0.4900194 0.9536572 -5.48795e-4 -0.3008949 0.9927452 0.01413512 0.1194031 0.9767787 0.1366862 0.1649856 0.9455909 0.2428633 0.2165071 0.8891001 0.3670196 -0.2734916 0.9220896 0.3415042 -0.1820048 0.8705445 0.4733573 -0.1344814 0.9757313 -0.001379251 0.218967 0.9936561 -0.01866918 0.1109008 0.8159874 -0.003723919 0.578058 0.7164703 0.002048552 0.6976147 0.7530284 -0.01985847 0.6576883 0.9992523 0.01068574 0.03715687 0.9976755 -0.02870106 0.06180548 0.8345651 -0.00743848 0.5508591 0.8467677 0.4835941 -0.2216333 0.9880592 0.1540756 0 0.9880592 0.1540753 0 0.9880591 0.1540755 0 0.9880591 0.1540758 0 0.9090063 0.2124366 0.3585783 0 -0.9352502 -0.3539876 0 -0.9352502 -0.3539877 1.38332e-7 -0.9352504 -0.3539867 1.51953e-7 -0.9352505 -0.3539866 0 -0.9345567 0.3558142 0 -0.9345567 0.3558141 0 -0.9345567 0.3558142 0 -0.9345568 0.3558142</float_array>
          <technique_common>
            <accessor source="#Mesh_005-mesh-normals-array" count="290" stride="3">
              <param name="X" type="float"/>
              <param name="Y" type="float"/>
              <param name="Z" type="float"/>
            </accessor>
          </technique_common>
        </source>
        <source id="Mesh_005-mesh-map-0">
          <float_array id="Mesh_005-mesh-map-0-array" count="1170">0.6294251 0.07453918 0.03643798 0.05294799 0.03643798 0 0.6294251 0.9289703 0.8594208 0.9539032 0.3968659 0.9580994 0 0.03674316 0.8170166 0.03674316 0.3831787 0.03674316 0 0.03674316 0.3831787 0.03674316 0 0.03674316 0 0.03674316 1 0.03674316 0.8170166 0.03674316 0 0.9490204 1 0.9490204 0 0.9490204 0.3831787 0.9490204 0.8170166 0.9490204 1 0.9490204 0.3968659 0.03968811 0.9962769 0.04745483 0.03643798 0 0.9962769 0.04745483 0.6294251 0.07453918 0.03643798 0 0.8594208 0.9539032 0.6294251 0.9289703 0.9962769 0.9584503 0.03643798 1 0.03643798 0.9493713 0.6294251 0.9289703 0.6294251 0.9289703 0.3968659 0.9580994 0.03643798 1 0.8594208 0.04521179 0.3968659 0.03968811 0.3751221 0.0382843 0.8594208 0.04521179 0.9962769 0.04745483 0.3968659 0.03968811 0.8594208 0.9539032 0.3751221 0.9595032 0.3968659 0.9580994 0 0.9490204 0.3831787 0.9490204 1 0.9490204 0.6112061 0.9143372 0.2222747 1 0 0 1 0.8215942 0.5 0 1 0 0.6112061 0.9143372 0 0 0.5 0 0.5 0 1 0.8215942 0.6112061 0.9143372 0.842804 1 0.7242279 0 0 0 0.842804 1 0 0 0 1 1 1 0 1 0 0 1 1 0 0 0.8815308 0 0.8308106 0.01416015 -0.004714965 0.5957642 0.47789 0.9995422 0.8308106 0.01416015 0.2133636 -0.01313781 -0.004714965 0.5957642 0.8308106 0.01416015 0.47789 0.9995422 0.994278 0.6399384 0 1 1 1 0.779007 0 0 1 0.779007 0 0 0.157196 0 0.4970703 0.1839141 0.9941559 1 1 1 0 0.1839141 0 0 0.4970703 0 0.4970703 1 1 1 0 1 0 0.9924469 0.8160858 0.496109 1 0 0 0.496109 1 0 0.8160858 0.496109 1 0 0 1 0 0.3749848 0 0.3749848 1 0.1987609 1 0.1987609 0 0.1987609 1 0 1 0 0 0.1987609 0 0 1 0.9998932 1 0.7868652 1 0.9998932 0 0.573761 0 0.573761 1 0.3749848 1 0.1987609 0 0.3749848 0 0.1987609 1 0.3749848 0 0.573761 0 0.3749848 1 0.7868652 0 0.7868652 1 0.573761 1 0.573761 0 0.7868652 0 0.573761 1 0.7868652 0 0.9998932 0 0.7868652 1 0.9706421 1 0.9875031 0.556015 0.01245117 0.556015 1 0.4133453 0.05606079 0 0.943924 0 0.02931213 1 0 0.4133453 1 0.4133453 1 0.4133453 0.9706421 1 0.02931213 1 0.02931213 1 0.02931213 1 0.9706421 1 0.9706421 1 0.9706421 1 0.02931213 1 0.01245117 0.556015 0.02931213 1 0.9706421 1 1 0.4133453 0 0.4133453 0.05606079 0 0.744339 0.05046081 1 0.4133453 0.943924 0 0.9875031 0.556015 0.940094 0.1175842 0.05989074 0.1175842 0.943924 0 0.05606079 0 0.2641907 0.05046081 0.05606079 0 0 0.4133453 0.2641907 0.05046081 0.943924 0 0.2641907 0.05046081 0.744339 0.05046081 1 0.4133453 0.7288056 0.4133453 0.9367828 1 1 0.4133453 0.744339 0.05046081 0.7288056 0.4133453 0.05989074 0.1175842 0.01245117 0.556015 0.9875031 0.556015 0.9367828 1 0.7288056 0.4133453 0.739563 1 0 0.4133453 0.2784729 0.4133453 0.2641907 0.05046081 0.2784729 0.4133453 0 0.4133453 0.06315612 1 0.9367828 1 0.739563 1 0.9432068 1 0.06315612 1 0.2670899 1 0.2784729 0.4133453 0.7448731 0.6649323 0.9458618 0.6649323 0.9501038 0.6434479 0.9501038 0.6434479 0.7441559 0.6434479 0.7448731 0.6649323 0.05471801 0.6434479 0.2600861 0.6434479 0.05671691 1 0.2593689 0.6649323 0.05471801 0.6434479 0.05418395 0.6649323 0.05471801 0.6434479 0.2593689 0.6649323 0.2600861 0.6434479 0.739563 1 0.7662506 1 0.9432068 1 0.2670899 1 0.06315612 1 0.05671691 1 0.9432068 1 0.7662506 1 0.9501038 0.6434479 0.05671691 1 0.2391815 1 0.2670899 1 0.9501038 0.6434479 0.7662506 1 0.7441559 0.6434479 0.2391815 1 0.05671691 1 0.2600861 0.6434479 0.9956818 0.03614807 0.9803009 0 0.01963806 0 1 0.362854 0 0.6242218 1 0.6242218 0.01963806 0 0.004302978 0.03614807 0.9956818 0.03614807 1 0.362854 0 0.362854 0 0.6242218 0.7725067 1 0.7752075 0.6242218 0.2344055 0.6242218 0.2344055 0.6242218 0.233078 1 0.7725067 1 0.2280578 0.02133178 0.2280578 0.3697662 0.7696076 0.3697662 0.2280578 0.02133178 0.7696076 0.3697662 0.7696076 0.02133178 0 1 0.02723693 0.9102783 0.2450866 0.9102783 0.7077789 0.602066 0.289917 0.285614 0.7058869 0.285614 0 1 0.2723236 1 0.2450866 0.9102783 0.2386779 0.2311401 0.05895996 0.09794616 0.9368897 0.09794616 0.7548676 0.9102783 1 1 0.9727478 0.9102783 0.7548676 0.9102783 0.9727478 0.9102783 1 1 0.7548676 0.9102783 0.7276306 1 1 1 0.02723693 0.9102783 0 1 0.2450866 0.9102783 0.3209076 0.7518921 0.265625 0.8392639 0.2802429 0.5982208 0.9330292 0 0.9368897 0.09794616 0.05895996 0.09794616 0.7760925 0.2490692 0.2143249 0.2490692 0.2887268 0.08538818 0.289917 0.285614 0.2386779 0.2311401 0.7571259 0.2311401 0.7221222 0.08538818 0.2887268 0.08538818 0.2143249 0.01179504 0.7760925 0.2490692 0.2887268 0.08538818 0.7221222 0.08538818 0.9330292 0 0.05895996 0.09794616 0.06280517 0 0.9368897 0.09794616 0.7571259 0.2311401 0.2386779 0.2311401 0.7571259 0.2311401 0.7058869 0.285614 0.289917 0.285614 0.7548676 0.9102783 1 1 0.7276306 1 0.2723236 1 0 1 0.2450866 0.9102783 0.08454895 0.8392639 0.2386779 0.589447 0.2802429 0.5982208 0.07504272 0.9474182 0.265625 0.8392639 0.2696686 0.9474182 0.6626129 0.9821472 0.6793518 0.7518921 0.7351379 0.8392639 0.08454895 0.8392639 0.265625 0.8392639 0.07504272 0.9474182 0.9113159 0.8392639 0.7351379 0.8392639 0.7201538 0.5982208 0.3209076 0.7518921 0.6626129 0.9821472 0.3365631 0.9821472 0.7351379 0.8392639 0.9113159 0.8392639 0.7302399 0.9474182 0.9208679 0.9474182 0.7302399 0.9474182 0.9113159 0.8392639 0.08454895 0.8392639 0.2802429 0.5982208 0.265625 0.8392639 0.7571259 0.589447 0.9113159 0.8392639 0.7201538 0.5982208 0.7077789 0.602066 0.2880249 0.602066 0.289917 0.285614 0.7302399 0.9474182 0.6626129 0.9821472 0.7351379 0.8392639 0.3209076 0.7518921 0.2802429 0.5982208 0.6793518 0.7518921 0.6793518 0.7518921 0.2802429 0.5982208 0.7201538 0.5982208 0.3365631 0.9821472 0.2696686 0.9474182 0.265625 0.8392639 0.3365631 0.9821472 0.265625 0.8392639 0.3209076 0.7518921 0.6793518 0.7518921 0.6626129 0.9821472 0.3209076 0.7518921 0.6793518 0.7518921 0.7201538 0.5982208 0.7351379 0.8392639 0.7221222 0.08538818 0.2143249 0.01179504 0.7760925 0.01179504 0 1 0 1 0 1 0 1 0 1 0 1 0 1 0 1 0 1 0 1 0 1 0 1 0 1 0 1 0 1 0 1 0 1 0 1 0 1 0 1 0 1 0 1 0 1 0 1 0 1 0.03509521 0 0.9648438 0 0 1 0.9648438 0 1 1 0.1157226 0.5974732 0.2217559 0.5974732 0.2512817 0.6829681 0.3481445 0 0.5974579 0.2469787 0.3481445 0.2469787 0.2217559 0.5974732 0.3481445 0.2469787 0.5974579 0.2469787 0.5974579 0.2469787 0.7238312 0.5974732 0.2217559 0.5974732 0.2217559 0.5974732 0.7238312 0.5974732 0.578476 0.6829681 0.3481445 0 0.5974579 0 0.5974579 0.2469787 0.578476 0.6829681 0.2512817 0.6829681 0.2217559 0.5974732 0.2512817 0.6829681 0.09791564 0.6829681 0.1157226 0.5974732 0.03475952 0.3321991 0.1157226 0.5974732 0.09791564 0.6829681 0.03475952 0.3321991 0.09791564 0.6829681 0 0.394165 0 0.394165 0.001953125 0.1584014 0.03642272 0.07025146 0.8392181 0.6829681 0.578476 0.6829681 0.7238312 0.5974732 0.7238312 0.5974732 0.8242951 0.5974732 0.8392181 0.6829681 0.2855988 1 0.2311248 0.888443 0.5894165 0.888443 0.8242951 0.5974732 0.904892 0.3844452 0.9473877 0.3972931 0.2311248 0.888443 0.2512817 0.6829681 0.578476 0.6829681 0.578476 0.6829681 0.5894165 0.888443 0.2311248 0.888443 0.2311248 0.888443 0.09791564 0.6829681 0.2512817 0.6829681 0.9473877 0.3972931 0.8392181 0.6829681 0.8242951 0.5974732 0.5894165 0.888443 0.578476 0.6829681 0.8392181 0.6829681 0.5894165 0.888443 0.6020508 0.9836578 0.2855988 1 0 0.394165 0.03642272 0.07025146 0.03475952 0.3321991 0.9102478 0.319046 0.9102478 0.1545867 1 0.1340179 0.9102478 0.319046 1 0.1340179 1 0.3396759 0.01176452 0.4256134 0.2490539 0.8267212 0.08535766 0.8267212 0.6633911 1 0.7268372 0 0.7303009 0.6463928 0.3373566 1 0.7268372 0 0.6633911 1 0.272522 0 0.3373566 1 0.2697449 0.6463928 0.3373566 1 0.272522 0 0.7268372 0 0 0.5162964 0.2723389 0.05189514 0.2723389 0.5162964 0 0.5162964 0 0.05189514 0.2723389 0.05189514 0.7276459 0.05189514 1 0.05189514 1 0.5162964 0.7276459 0.5162964 0.7276459 0.05189514 1 0.5162964 0.09791564 0.6829681 0.2512817 0.6829681 0.2217559 0.5974732 0.3481445 0 0.5974579 0.2469787 0.5974579 0 0.7238312 0.5974732 0.5974579 0.2469787 0.3481445 0.2469787 0.3481445 0.2469787 0.2217559 0.5974732 0.7238312 0.5974732 0.578476 0.6829681 0.7238312 0.5974732 0.2217559 0.5974732 0.3481445 0 0.3481445 0.2469787 0.5974579 0.2469787 0.2217559 0.5974732 0.2512817 0.6829681 0.578476 0.6829681 0.2217559 0.5974732 0.1157226 0.5974732 0.09791564 0.6829681 0.1157226 0.5974732 0.03475952 0.3321991 0.09791564 0.6829681 0 0.394165 0.09791564 0.6829681 0.03475952 0.3321991 0.03642272 0.07025146 0.001953125 0.1584014 0 0.394165 0.7238312 0.5974732 0.578476 0.6829681 0.8392181 0.6829681 0.8392181 0.6829681 0.8242951 0.5974732 0.7238312 0.5974732 0.6020508 0.9836578 0.5894165 0.888443 0.2311248 0.888443 0.8392181 0.6829681 0.9473877 0.3972931 0.904892 0.3844452 0.5894165 0.888443 0.578476 0.6829681 0.2512817 0.6829681 0.2512817 0.6829681 0.2311248 0.888443 0.5894165 0.888443 0.2311248 0.888443 0.2512817 0.6829681 0.09791564 0.6829681 0.904892 0.3844452 0.8242951 0.5974732 0.8392181 0.6829681 0.578476 0.6829681 0.5894165 0.888443 0.8392181 0.6829681 0.2311248 0.888443 0.2855988 1 0.6020508 0.9836578 0 0.394165 0.03475952 0.3321991 0.03642272 0.07025146 1 0.1340179 0.9102478 0.1545867 0.9102478 0.319046 1 0.3396759 1 0.1340179 0.9102478 0.319046 0.01176452 0.4256134 0.08535766 0.8267212 0.2490539 0.8267212 0.9048157 1 1 0.408844 0 0.408844 0 0.408844 0.0951538 1 0.9048157 1 0 0.408844 1 0.408844 0.08013916 0 1 0.408844 0.9286499 0 0.08013916 0</float_array>
          <technique_common>
            <accessor source="#Mesh_005-mesh-map-0-array" count="585" stride="2">
              <param name="S" type="float"/>
              <param name="T" type="float"/>
            </accessor>
          </technique_common>
        </source>
        <source id="Mesh_005-mesh-colors-Attribute" name="Attribute">
          <float_array id="Mesh_005-mesh-colors-Attribute-array" count="2340">0 0 0 0 0 0 0 0 0 0 0 0 0 0 0 0 0 0 0 0 0 0 0 0 0 0 0 0 0 0 0 0 0 0 0 0 0 0 0 0 0 0 0 0 0 0 0 0 0 0 0 0 0 0 0 0 0 0 0 0 0 0 0 0 0 0 0 0 0 0 0 0 0 0 0 0 0 0 0 0 0 0 0 0 0 0 0 0 0 0 0 0 0 0 0 0 0 0 0 0 0 0 0 0 0 0 0 0 0 0 0 0 0 0 0 0 0 0 0 0 0 0 0 0 0 0 0 0 0 0 0 0 0 0 0 0 0 0 0 0 0 0 0 0 0 0 0 0 0 0 0 0 0 0 0 0 0 0 0 0 0 0 0 0 0 0 0 0 0 0 0 0 0 0 0 0 0 0 0 0 0 0 0 0 0 0 0 0 0 0 0 0 0 0 0 0 0 0 0 0 0 0 0 0 0 0 0 0 0 0 0 0 0 0 0 0 0 0 0 0 0 0 0 0 0 0 0 0 0 0 0 0 0 0 0 0 0 0 0 0 0 0 0 0 0 0 0 0 0 0 0 0 0 0 0 0 0 0 0 0 0 0 0 0 0 0 0 0 0 0 0 0 0 0 0 0 0 0 0 0 0 0 0 0 0 0 0 0 0 0 0 0 0 0 0 0 0 0 0 0 0 0 0 0 0 0 0 0 0 0 0 0 0 0 0 0 0 0 0 0 0 0 0 0 0 0 0 0 0 0 0 0 0 0 0 0 0 0 0 0 0 0 0 0 0 0 0 0 0 0 0 0 0 0 0 0 0 0 0 0 0 0 0 0 0 0 0 0 0 0 0 0 0 0 0 0 0 0 0 0 0 0 0 0 0 0 0 0 0 0 0 0 0 0 0 0 0 0 0 0 0 0 0 0 0 0 0 0 0 0 0 0 0 0 0 0 0 0 0 0 0 0 0 0 0 0 0 0 0 0 0 0 0 0 0 0 0 0 0 0 0 0 0 0 0 0 0 0 0 0 0 0 0 0 0 0 0 0 0 0 0 0 0 0 0 0 0 0 0 0 0 0 0 0 0 0 0 0 0 0 0 0 0 0 0 0 0 0 0 0 0 0 0 0 0 0 0 0 0 0 0 0 0 0 0 0 0 0 0 0 0 0 0 0 0 0 0 0 0 0 0 0 0 0 0 0 0 0 0 0 0 0 0 0 0 0 0 0 0 0 0 0 0 0 0 0 0 0 0 0 0 0 0 0 0 0 0 0 0 0 0 0 0 0 0 0 0 0 0 0 0 0 0 0 0 0 0 0 0 0 0 0 0 0 0 0 0 0 0 0 0 0 0 0 0 0 0 0 0 0 0 0 0 0 0 0 0 0 0 0 0 0 0 0 0 0 0 0 0 0 0 0 0 0 0 0 0 0 0 0 0 0 0 0 0 0 0 0 0 0 0 0 0 0 0 0 0 0 0 0 0 0 0 0 0 0 0 0 0 0 0 0 0 0 0 0 0 0 0 0 0 0 0 0 0 0 0 0 0 0 0 0 0 0 0 0 0 0 0 0 0 0 0 0 0 0 0 0 0 0 0 0 0 0 0 0 0 0 0 0 0 0 0 0 0 0 0 0 0 0 0 0 0 0 0 0 0 0 0 0 0 0 0 0 0 0 0 0 0 0 0 0 0 0 0 0 0 0 0 0 0 0 0 0 0 0 0 0 0 0 0 0 0 0 0 0 0 0 0 0 0 0 0 0 0 0 0 0 0 0 0 0 0 0 0 0 0 0 0 0 0 0 0 0 0 0 0 0 0 0 0 0 0 0 0 0 0 0 0 0 0 0 0 0 0 0 0 0 0 0 0 0 0 0 0 0 0 0 0 0 0 0 0 0 0 0 0 0 0 0 0 0 0 0 0 0 0 0 0 0 0 0 0 0 0 0 0 0 0 0 0 0 0 0 0 0 0 0 0 0 0 0 0 0 0 0 0 0 0 0 0 0 0 0 0 0 0 0 0 0 0 0 0 0 0 0 0 0 0 0 0 0 0 0 0 0 0 0 0 0 0 0 0 0 0 0 0 0 0 0 0 0 0 0 0 0 0 0 0 0 0 0 0 0 0 0 0 0 0 0 0 0 0 0 0 0 0 0 0 0 0 0 0 0 0 0 0 0 0 0 0 0 0 0 0 0 0 0 0 0 0 0 0 0 0 0 0 0 0 0 0 0 0 0 0 0 0 0 0 0 0 0 0 0 0 0 0 0 0 0 0 0 0 0 0 0 0 0 0 0 0 0 0 0 0 0 0 0 0 0 0 0 0 0 0 0 0 0 0 0 0 0 0 0 0 0 0 0 0 0 0 0 0 0 0 0 0 0 0 0 0 0 0 0 0 0 0 0 0 0 0 0 0 0 0 0 0 0 0 0 0 0 0 0 0 0 0 0 0 0 0 0 0 0 0 0 0 0 0 0 0 0 0 0 0 0 0 0 0 0 0 0 0 0 0 0 0 0 0 0 0 0 0 0 0 0 0 0 0 0 0 0 0 0 0 0 0 0 0 0 0 0 0 0 0 0 0 0 0 0 0 0 0 0 0 0 0 0 0 0 0 0 0 0 0 0 0 0 0 0 0 0 0 0 0 0 0 0 0 0 0 0 0 0 0 0 0 0 0 0 0 0 0 0 0 0 0 0 0 0 0 0 0 0 0 0 0 0 0 0 0 0 0 0 0 0 0 0 0 0 0 0 0 0 0 0 0 0 0 0 0 0 0 0 0 0 0 0 0 0 0 0 0 0 0 0 0 0 0 0 0 0 0 0 0 0 0 0 0 0 0 0 0 0 0 0 0 0 0 0 0 0 0 0 0 0 0 0 0 0 0 0 0 0 0 0 0 0 0 0 0 0 0 0 0 0 0 0 0 0 0 0 0 0 0 0 0 0 0 0 0 0 0 0 0 0 0 0 0 0 0 0 0 0 0 0 0 0 0 0 0 0 0 0 0 0 0 0 0 0 0 0 0 0 0 0 0 0 0 0 0 0 0 0 0 0 0 0 0 0 0 0 0 0 0 0 0 0 0 0 0 0 0 0 0 0 0 0 0 0 0 0 0 0 0 0 0 0 0 0 0 0 0 0 0 0 0 0 0 0 0 0 0 0 0 0 0 0 0 0 0 0 0 0 0 0 0 0 0 0 0 0 0 0 0 0 0 0 0 0 0 0 0 0 0 0 0 0 0 0 0 0 0 0 0 0 0 0 0 0 0 0 0 0 0 0 0 0 0 0 0 0 0 0 0 0 0 0 0 0 0 0 0 0 0 0 0 0 0 0 0 0 0 0 0 0 0 0 0 0 0 0 0 0 0 0 0 0 0 0 0 0 0 0 0 0 0 0 0 0 0 0 0 0 0 0 0 0 0 0 0 0 0 0 0 0 0 0 0 0 0 0 0 0 0 0 0 0 0 0 0 0 0 0 0 0 0 0 0 0 0 0 0 0 0 0 0 0 0 0 0 0 0 0 0 0 0 0 0 0 0 0 0 0 0 0 0 0 0 0 0 0 0 0 0 0 0 0 0 0 0 0 0 0 0 0 0 0 0 0 0 0 0 0 0 0 0 0 0 0 0 0 0 0 0 0 0 0 0 0 0 0 0 0 0 0 0 0 0 0 0 0 0 0 0 0 0 0 0 0 0 0 0 0 0 0 0 0 0 0 0 0 0 0 0 0 0 0 0 0 0 0 0 0 0 0 0 0 0 0 0 0 0 0 0 0 0 0 0 0 0 0 0 0 0 0 0 0 0 0 0 0 0 0 0 0 0 0 0 0 0 0 0 0 0 0 0 0 0 0 0 0 0 0 0 0 0 0 0 0 0 0 0 0 0 0 0 0 0 0 0 0 0 0 0 0 0 0 0 0 0 0 0 0 0 0 0 0 0 0 0 0 0 0 0 0 0 0 0 0 0 0 0 0 0 0 0 0 0 0 0 0 0 0 0 0 0 0 0 0 0 0 0 0 0 0 0 0 0 0 0 0 0 0 0 0 0 0 0 0 0 0 0 0 0 0 0 0 0 0 0 0 0 0 0 0 0 0 0 0 0 0 0 0 0 0 0 0 0 0 0 0 0 0 0 0 0 0 0 0 0 0 0 0 0 0 0 0 0 0 0 0 0 0 0 0 0 0 0 0 0 0 0 0 0 0 0 0 0 0 0 0 0 0 0 0 0 0 0 0 0 0 0 0 0 0 0 0 0 0 0 0 0 0 0 0 0 0 0 0 0 0 0 0 0 0 0 0 0 0 0 0 0 0 0 0 0 0 0 0 0 0 0 0 0 0 0 0 0 0 0 0 0 0 0 0 0 0 0 0 0 0 0 0 0 0 0 0 0 0 0 0 0 0 0 0 0 0 0 0 0 0 0 0 0 0 0 0 0 0 0 0 0 0 0 0 0 0 0 0 0 0 0 0 0 0 0 0 0 0 0 0 0 0 0 0 0 0 0 0 0 0 0 0 0 0 0 0 0 0 0 0 0 0 0 0 0 0 0 0 0 0 0 0 0 0 0 0 0 0 0 0 0 0 0 0 0 0 0 0 0 0 0 0 0 0 0 0 0 0 0 0 0 0 0 0 0 0 0 0 0 0 0 0 0 0 0 0 0 0 0 0 0 0 0 0 0 0 0 0 0 0 0 0 0 0 0 0 0 0 0 0 0 0 0 0 0 0 0 0 0 0 0 0 0 0 0 0 0 0 0 0 0 0 0 0 0 0 0 0 0 0 0 0 0 0 0 0 0 0 0 0 0 0 0 0 0 0 0 0 0 0 0 0 0 0 0 0 0 0 0 0 0 0 0 0 0 0 0 0 0 0 0 0 0 0 0 0 0 0 0 0 0 0 0 0 0 0 0 0 0 0 0 0 0 0 0 0 0 0 0 0 0 0 0 0 0 0 0 0 0 0 0 0 0 0 0 0 0 0 0 0 0 0 0 0 0 0 0 0 0 0 0 0 0 0 0 0 0 0 0 0 0 0 0 0 0 0 0 0 0 0 0 0 0 0 0 0 0 0 0 0 0 0 0 0 0 0 0 0 0 0 0 0 0 0 0 0 0 0 0 0 0 0 0 0 0 0 0 0 0 0 0 0 0 0 0 0 0 0 0 0 0 0 0 0 0 0 0 0 0 0 0 0 0 0 0 0 0 0 0 0 0 0 0 0 0 0 0 0 0 0 0 0 0 0 0 0 0 0 0 0 0 0 0 0 0 0 0 0 0 0 0 0 0 0 0 0 0 0</float_array>
          <technique_common>
            <accessor source="#Mesh_005-mesh-colors-Attribute-array" count="585" stride="4">
              <param name="R" type="float"/>
              <param name="G" type="float"/>
              <param name="B" type="float"/>
              <param name="A" type="float"/>
            </accessor>
          </technique_common>
        </source>
        <vertices id="Mesh_005-mesh-vertices">
          <input semantic="POSITION" source="#Mesh_005-mesh-positions"/>
        </vertices>
        <triangles material="ANUNDER-material" count="40">
          <input semantic="VERTEX" source="#Mesh_005-mesh-vertices" offset="0"/>
          <input semantic="NORMAL" source="#Mesh_005-mesh-normals" offset="1"/>
          <input semantic="TEXCOORD" source="#Mesh_005-mesh-map-0" offset="2" set="0"/>
          <input semantic="COLOR" source="#Mesh_005-mesh-colors-Attribute" offset="3" set="0"/>
          <p>47 69 135 135 48 70 136 136 49 71 137 137 50 72 138 138 51 73 139 139 52 74 140 140 53 75 141 141 54 76 142 142 55 77 143 143 55 77 144 144 56 78 145 145 53 75 146 146 57 79 147 147 58 80 148 148 59 81 149 149 59 81 150 150 60 82 151 151 57 79 152 152 49 71 153 153 61 83 154 154 47 69 155 155 50 72 156 156 62 84 157 157 51 73 158 158 18 85 159 159 63 86 160 160 64 87 161 161 65 88 162 162 66 89 163 163 67 90 164 164 64 87 165 165 68 91 166 166 17 92 167 167 68 91 168 168 69 93 169 169 17 92 170 170 64 87 171 171 17 92 172 172 18 85 173 173 70 94 174 174 3 95 175 175 71 96 176 176 63 86 177 177 18 85 178 178 72 97 179 179 67 90 180 180 73 98 181 181 65 88 182 182 71 96 183 183 3 95 184 184 20 99 185 185 69 93 186 186 74 100 187 187 17 92 188 188 0 101 189 189 75 102 190 190 76 103 191 191 77 104 192 192 78 104 193 193 79 104 194 194 76 103 195 195 1 105 196 196 0 101 197 197 23 106 198 198 80 107 199 199 81 107 200 200 81 107 201 201 5 107 202 202 23 106 203 203 82 108 204 204 83 109 205 205 84 110 206 206 22 111 207 207 85 112 208 208 86 113 209 209 85 112 210 210 22 111 211 211 16 114 212 212 78 104 213 213 19 104 214 214 79 104 215 215 87 104 216 216 88 104 217 217 89 104 218 218 90 115 219 219 91 116 220 220 92 117 221 221 89 104 222 222 2 104 223 223 87 104 224 224 92 117 225 225 91 116 226 226 93 110 227 227 94 118 228 228 84 110 229 229 83 109 230 230 66 119 231 231 95 120 232 232 96 121 233 233 52 122 234 234 68 123 235 235 64 124 236 236 96 121 237 237 67 125 238 238 66 119 239 239 52 122 240 240 51 126 241 241 68 123 242 242 4 127 243 243 18 128 244 244 17 129 245 245 17 129 246 246 21 130 247 247 4 127 248 248 7 131 249 249 10 132 250 250 12 133 251 251 7 131 252 252 12 133 253 253 15 134 254 254</p>
        </triangles>
        <triangles material="GUNLSIDE-material" count="2">
          <input semantic="VERTEX" source="#Mesh_005-mesh-vertices" offset="0"/>
          <input semantic="NORMAL" source="#Mesh_005-mesh-normals" offset="1"/>
          <input semantic="TEXCOORD" source="#Mesh_005-mesh-map-0" offset="2" set="0"/>
          <input semantic="COLOR" source="#Mesh_005-mesh-colors-Attribute" offset="3" set="0"/>
          <p>31 43 81 81 33 44 82 82 32 45 83 83 31 43 84 84 32 45 85 85 30 46 86 86</p>
        </triangles>
        <triangles material="UNDRWING-material" count="16">
          <input semantic="VERTEX" source="#Mesh_005-mesh-vertices" offset="0"/>
          <input semantic="NORMAL" source="#Mesh_005-mesh-normals" offset="1"/>
          <input semantic="TEXCOORD" source="#Mesh_005-mesh-map-0" offset="2" set="0"/>
          <input semantic="COLOR" source="#Mesh_005-mesh-colors-Attribute" offset="3" set="0"/>
          <p>0 0 0 0 1 1 1 1 2 2 2 2 3 3 3 3 4 4 4 4 5 5 5 5 6 6 6 6 7 7 7 7 8 8 8 8 6 6 9 9 8 8 10 10 9 9 11 11 6 6 12 12 10 10 13 13 7 7 14 14 11 11 15 15 12 12 16 16 13 13 17 17 14 14 18 18 15 15 19 19 12 12 20 20 16 16 21 21 17 17 22 22 2 2 23 23 17 17 24 24 0 0 25 25 2 2 26 26 4 4 27 27 3 3 28 28 18 18 29 29 19 19 30 30 20 20 31 31 3 3 32 32 3 3 33 33 5 5 34 34 19 19 35 35 21 21 36 36 16 16 37 37 22 22 38 38 21 21 39 39 17 17 40 40 16 16 41 41 4 4 42 42 23 23 43 43 5 5 44 44 11 11 45 45 14 14 46 46 12 12 47 47</p>
        </triangles>
        <triangles material="XAPCCAB-material" count="4">
          <input semantic="VERTEX" source="#Mesh_005-mesh-vertices" offset="0"/>
          <input semantic="NORMAL" source="#Mesh_005-mesh-normals" offset="1"/>
          <input semantic="TEXCOORD" source="#Mesh_005-mesh-map-0" offset="2" set="0"/>
          <input semantic="COLOR" source="#Mesh_005-mesh-colors-Attribute" offset="3" set="0"/>
          <p>100 282 573 573 182 283 574 574 135 284 575 575 135 284 576 576 156 285 577 577 100 282 578 578 183 286 579 579 153 287 580 580 136 288 581 581 153 287 582 582 161 289 583 583 136 288 584 584</p>
        </triangles>
        <triangles material="XAPCLSID-material" count="25">
          <input semantic="VERTEX" source="#Mesh_005-mesh-vertices" offset="0"/>
          <input semantic="NORMAL" source="#Mesh_005-mesh-normals" offset="1"/>
          <input semantic="TEXCOORD" source="#Mesh_005-mesh-map-0" offset="2" set="0"/>
          <input semantic="COLOR" source="#Mesh_005-mesh-colors-Attribute" offset="3" set="0"/>
          <p>107 251 498 498 179 252 499 499 58 253 500 500 51 254 501 501 75 255 502 502 68 256 503 503 76 257 504 504 69 258 505 505 54 259 506 506 54 259 507 507 58 253 508 508 76 257 509 509 180 260 510 510 76 257 511 511 58 253 512 512 51 254 513 513 62 261 514 514 75 255 515 515 58 253 516 516 179 252 517 517 180 260 518 518 58 253 519 519 61 262 520 520 107 251 521 521 61 262 522 522 73 263 523 523 107 251 524 524 130 264 525 525 107 251 526 526 73 263 527 527 67 265 528 528 96 266 529 529 181 267 530 530 76 257 531 531 180 260 532 532 134 268 533 533 134 268 534 534 89 269 535 535 76 257 536 536 156 270 537 537 135 271 538 538 106 272 539 539 134 268 540 540 86 273 541 541 85 274 542 542 135 271 543 543 180 260 544 544 179 252 545 545 179 252 546 546 106 272 547 547 135 271 548 548 106 272 549 549 179 252 550 550 107 251 551 551 85 274 552 552 89 269 553 553 134 268 554 554 180 260 555 555 135 271 556 556 134 268 557 557 106 272 558 558 101 275 559 559 156 270 560 560 181 267 561 561 49 276 562 562 67 265 563 563 103 277 564 564 116 278 565 565 98 279 566 566 97 280 567 567 103 277 568 568 98 279 569 569 128 281 570 570 123 281 571 571 122 281 572 572</p>
        </triangles>
        <triangles material="XAPCNOSE-material" count="8">
          <input semantic="VERTEX" source="#Mesh_005-mesh-vertices" offset="0"/>
          <input semantic="NORMAL" source="#Mesh_005-mesh-normals" offset="1"/>
          <input semantic="TEXCOORD" source="#Mesh_005-mesh-map-0" offset="2" set="0"/>
          <input semantic="COLOR" source="#Mesh_005-mesh-colors-Attribute" offset="3" set="0"/>
          <p>162 244 474 474 177 244 475 475 22 244 476 476 138 245 477 477 21 246 478 478 165 247 479 479 4 4 480 480 157 248 481 481 23 23 482 482 138 245 483 483 178 249 484 484 21 246 485 485 114 250 486 486 115 250 487 487 132 250 488 488 114 250 489 489 110 250 490 490 115 250 491 491 104 250 492 492 103 250 493 493 97 250 494 494 133 250 495 495 104 250 496 496 97 250 497 497</p>
        </triangles>
        <triangles material="XAPCSIDE-material" count="25">
          <input semantic="VERTEX" source="#Mesh_005-mesh-vertices" offset="0"/>
          <input semantic="NORMAL" source="#Mesh_005-mesh-normals" offset="1"/>
          <input semantic="TEXCOORD" source="#Mesh_005-mesh-map-0" offset="2" set="0"/>
          <input semantic="COLOR" source="#Mesh_005-mesh-colors-Attribute" offset="3" set="0"/>
          <p>47 208 399 399 59 209 400 400 172 210 401 401 52 211 402 402 63 212 403 403 50 213 404 404 59 214 405 405 50 213 406 406 63 212 407 407 63 212 408 408 77 215 409 409 59 214 410 410 59 214 411 411 77 215 412 412 173 216 413 413 52 211 414 414 64 217 415 415 63 212 416 416 174 218 417 417 175 219 418 418 56 219 419 419 172 210 420 420 108 220 421 421 47 208 422 422 65 221 423 423 47 208 424 424 108 220 425 425 65 221 426 426 108 220 427 427 176 222 428 428 120 223 429 429 95 224 430 430 66 225 431 431 148 226 432 432 174 227 433 433 71 228 434 434 71 228 435 435 79 229 436 436 148 226 437 437 102 230 438 438 125 231 439 439 153 232 440 440 79 229 441 441 81 233 442 442 80 234 443 443 125 231 444 444 172 210 445 445 173 235 446 446 173 235 447 447 153 232 448 448 125 231 449 449 125 231 450 450 108 220 451 451 172 210 452 452 80 234 453 453 148 226 454 454 79 229 455 455 153 232 456 456 173 235 457 457 154 236 458 458 153 232 459 459 100 237 460 460 102 230 461 461 120 223 462 462 66 225 463 463 48 238 464 464 113 239 465 465 111 240 466 466 110 241 467 467 113 239 468 468 110 241 469 469 114 242 470 470 167 243 471 471 121 243 472 472 129 243 473 473</p>
        </triangles>
        <triangles material="XAPCTAIL-material" count="2">
          <input semantic="VERTEX" source="#Mesh_005-mesh-vertices" offset="0"/>
          <input semantic="NORMAL" source="#Mesh_005-mesh-normals" offset="1"/>
          <input semantic="TEXCOORD" source="#Mesh_005-mesh-map-0" offset="2" set="0"/>
          <input semantic="COLOR" source="#Mesh_005-mesh-colors-Attribute" offset="3" set="0"/>
          <p>130 204 393 393 96 205 394 394 95 206 395 395 130 204 396 396 95 206 397 397 120 207 398 398</p>
        </triangles>
        <triangles material="XAPCTOP-material" count="46">
          <input semantic="VERTEX" source="#Mesh_005-mesh-vertices" offset="0"/>
          <input semantic="NORMAL" source="#Mesh_005-mesh-normals" offset="1"/>
          <input semantic="TEXCOORD" source="#Mesh_005-mesh-map-0" offset="2" set="0"/>
          <input semantic="COLOR" source="#Mesh_005-mesh-colors-Attribute" offset="3" set="0"/>
          <p>97 135 255 255 98 136 256 256 99 135 257 257 100 137 258 258 101 138 259 259 102 139 260 260 103 140 261 261 104 141 262 262 105 142 263 263 106 143 264 264 107 144 265 265 108 145 266 266 109 142 267 267 110 146 268 268 111 147 269 269 112 148 270 270 113 149 271 271 114 150 272 272 109 142 273 273 115 151 274 274 110 146 275 275 116 140 276 276 103 140 277 277 105 142 278 278 117 152 279 279 118 153 280 280 119 154 281 281 120 155 282 282 108 145 283 283 107 144 284 284 121 156 285 285 122 157 286 286 123 158 287 287 124 159 288 288 106 143 289 289 125 160 290 290 126 161 291 291 127 162 292 292 128 163 293 293 121 156 294 294 123 158 295 295 129 164 296 296 120 155 297 297 107 144 298 298 130 165 299 299 108 145 300 300 125 160 301 301 106 143 302 302 125 160 303 303 131 166 304 304 124 159 305 305 112 148 306 306 114 150 307 307 132 167 308 308 133 136 309 309 97 135 310 310 99 135 311 311 134 168 312 312 135 168 313 313 136 168 314 314 86 169 315 315 137 170 316 316 22 171 317 317 138 172 318 318 139 173 319 319 140 174 320 320 141 175 321 321 137 170 322 322 86 169 323 323 142 176 324 324 143 176 325 325 144 176 326 326 145 177 327 327 146 178 328 328 147 179 329 329 140 180 330 330 148 181 331 331 149 182 332 332 80 183 333 333 149 182 334 334 148 181 335 335 150 184 336 336 151 184 337 337 152 184 338 338 153 185 339 339 154 185 340 340 155 185 341 341 100 137 342 342 156 186 343 343 101 138 344 344 23 187 345 345 157 187 346 346 158 187 347 347 145 177 348 348 159 188 349 349 160 189 350 350 160 189 351 351 159 188 352 352 161 190 353 353 162 191 354 354 163 191 355 355 164 191 356 356 165 192 357 357 118 153 358 358 117 152 359 359 160 189 360 360 146 178 361 361 145 177 362 362 139 173 363 363 166 193 364 364 140 174 365 365 126 161 366 366 128 163 367 367 167 194 368 368 98 195 369 369 116 195 370 370 168 195 371 371 112 195 372 372 111 195 373 373 113 195 374 374 105 196 375 375 104 197 376 376 133 198 377 377 116 195 378 378 169 195 379 379 168 195 380 380 112 195 381 381 109 195 382 382 111 195 383 383 132 199 384 384 170 200 385 385 171 201 386 386 132 199 387 387 115 202 388 388 170 200 389 389 99 203 390 390 105 196 391 391 133 198 392 392</p>
        </triangles>
        <triangles material="XGNBAREL-material" count="10">
          <input semantic="VERTEX" source="#Mesh_005-mesh-vertices" offset="0"/>
          <input semantic="NORMAL" source="#Mesh_005-mesh-normals" offset="1"/>
          <input semantic="TEXCOORD" source="#Mesh_005-mesh-map-0" offset="2" set="0"/>
          <input semantic="COLOR" source="#Mesh_005-mesh-colors-Attribute" offset="3" set="0"/>
          <p>34 57 105 105 39 58 106 106 40 59 107 107 37 60 108 108 40 59 109 109 41 61 110 110 42 62 111 111 37 60 112 112 41 61 113 113 43 63 114 114 44 64 115 115 45 65 116 116 38 66 117 117 46 67 118 118 39 58 119 119 37 60 120 120 34 57 121 121 40 59 122 122 34 57 123 123 38 66 124 124 39 58 125 125 36 68 126 126 44 64 127 127 46 67 128 128 38 66 129 129 36 68 130 130 46 67 131 131 36 68 132 132 45 65 133 133 44 64 134 134</p>
        </triangles>
        <triangles material="XGUNBAK-material" count="6">
          <input semantic="VERTEX" source="#Mesh_005-mesh-vertices" offset="0"/>
          <input semantic="NORMAL" source="#Mesh_005-mesh-normals" offset="1"/>
          <input semantic="TEXCOORD" source="#Mesh_005-mesh-map-0" offset="2" set="0"/>
          <input semantic="COLOR" source="#Mesh_005-mesh-colors-Attribute" offset="3" set="0"/>
          <p>28 47 87 87 26 48 88 88 33 49 89 89 31 50 90 90 29 51 91 91 28 47 92 92 28 47 93 93 33 49 94 94 31 50 95 95 32 52 96 96 25 53 97 97 24 54 98 98 30 55 99 99 24 54 100 100 27 56 101 101 24 54 102 102 30 55 103 103 32 52 104 104</p>
        </triangles>
        <triangles material="XGUNSID-material" count="8">
          <input semantic="VERTEX" source="#Mesh_005-mesh-vertices" offset="0"/>
          <input semantic="NORMAL" source="#Mesh_005-mesh-normals" offset="1"/>
          <input semantic="TEXCOORD" source="#Mesh_005-mesh-map-0" offset="2" set="0"/>
          <input semantic="COLOR" source="#Mesh_005-mesh-colors-Attribute" offset="3" set="0"/>
          <p>24 24 48 48 25 25 49 49 26 26 50 50 27 27 51 51 28 28 52 52 29 29 53 53 24 24 54 54 26 26 55 55 28 28 56 56 28 28 57 57 27 27 58 58 24 24 59 59 30 30 60 60 27 31 61 61 29 32 62 62 30 30 63 63 29 32 64 64 31 33 65 65 32 34 66 66 33 35 67 67 26 36 68 68 32 34 69 69 26 36 70 70 25 37 71 71</p>
        </triangles>
        <triangles material="XMUZZLE-material" count="3">
          <input semantic="VERTEX" source="#Mesh_005-mesh-vertices" offset="0"/>
          <input semantic="NORMAL" source="#Mesh_005-mesh-normals" offset="1"/>
          <input semantic="TEXCOORD" source="#Mesh_005-mesh-map-0" offset="2" set="0"/>
          <input semantic="COLOR" source="#Mesh_005-mesh-colors-Attribute" offset="3" set="0"/>
          <p>34 38 72 72 35 39 73 73 36 40 74 74 34 38 75 75 37 41 76 76 35 39 77 77 34 38 78 78 36 40 79 79 38 42 80 80</p>
        </triangles>
      </mesh>
    </geometry>
    <geometry id="Mesh_009-mesh" name="Mesh.009">
      <mesh>
        <source id="Mesh_009-mesh-positions">
          <float_array id="Mesh_009-mesh-positions-array" count="48">0.04406732 0.1083984 -0.04518121 -0.04406738 0.04472351 -0.1085968 -0.04406738 0.1083984 -0.04518121 0.04406738 -0.04469299 0.1085968 -0.04406738 0.04518121 0.1083984 -0.04406732 -0.04469299 0.1085968 0.04406732 0.04518127 0.1083984 0.04406732 0.1085815 0.04470825 -0.04406738 0.1085815 0.04470825 0.04406732 0.04472351 -0.1085968 -0.04406732 -0.04515075 -0.1083984 0.04406738 -0.04515069 -0.1083984 0.04406738 -0.1085815 -0.04470825 -0.04406732 -0.1085815 -0.04470825 0.04406738 -0.1083831 0.04516595 -0.04406732 -0.1083832 0.04516595</float_array>
          <technique_common>
            <accessor source="#Mesh_009-mesh-positions-array" count="16" stride="3">
              <param name="X" type="float"/>
              <param name="Y" type="float"/>
              <param name="Z" type="float"/>
            </accessor>
          </technique_common>
        </source>
        <source id="Mesh_009-mesh-normals">
          <float_array id="Mesh_009-mesh-normals-array" count="96">0 0.8618517 -0.5071604 0 0.5036201 -0.8639253 0 0.9670071 -0.2547495 0 -0.250664 0.9680742 0 0.2548924 0.9669694 0 -0.5036208 0.8639249 0 0.5073871 0.8617184 -1.33515e-7 0.9680665 0.2506937 0 0.8639763 0.5035325 0 0.2506639 -0.9680742 0 -0.2548362 -0.9669843 0 -0.5072304 -0.8618106 0 -0.9680742 -0.2506642 0 -0.8639249 -0.5036209 0 -0.8618106 0.5072304 0 -0.9669844 0.254836 -1 0 0 -1 -1.52787e-7 0 -1 -1.31209e-7 0 -1 -1.96003e-7 0 -1 -1.63044e-7 0 -1 -1.38738e-7 0 -1 -1.67863e-7 0 -1 -1.6306e-7 0 1 1.56053e-7 0 1 1.6306e-7 0 1 1.67877e-7 0 1 1.51781e-7 0 1 1.19383e-7 0 1 1.31217e-7 0 1 1.96008e-7 0 1 1.6306e-7 0</float_array>
          <technique_common>
            <accessor source="#Mesh_009-mesh-normals-array" count="32" stride="3">
              <param name="X" type="float"/>
              <param name="Y" type="float"/>
              <param name="Z" type="float"/>
            </accessor>
          </technique_common>
        </source>
        <source id="Mesh_009-mesh-map-0">
          <float_array id="Mesh_009-mesh-map-0-array" count="168">8.69751e-4 0.2919464 0.2940369 0 8.69751e-4 0.2919464 0.7058411 1 0.2919617 0.9991303 0.7058411 1 0.2919617 0.9991303 0 0.7058869 0 0.7058869 0.2919617 0.9991303 0 0.7058869 0.2919617 0.9991303 0 0.7058869 8.69751e-4 0.2919464 8.69751e-4 0.2919464 0 0.7058869 8.69751e-4 0.2919464 0 0.7058869 8.69751e-4 0.2919464 0.2940369 0 0.2940369 0 0.7058411 1 0.2919617 0.9991303 0.2919617 0.9991303 0.2940369 0 0.7079163 8.8501e-4 0.2940369 0 0.2940369 0 0.7079163 8.8501e-4 0.7079163 8.8501e-4 0.7079163 8.8501e-4 0.9999848 0.2941284 0.9999848 0.2941284 0.7079163 8.8501e-4 0.9999848 0.2941284 0.7079163 8.8501e-4 0.9999848 0.2941284 0.999115 0.707962 0.999115 0.707962 0.9999848 0.2941284 0.999115 0.707962 0.9999848 0.2941284 0.999115 0.707962 0.7058411 1 0.7058411 1 0.999115 0.707962 0.7058411 1 0.999115 0.707962 0.9999848 0.2941284 0 0.7058869 0.7079163 8.8501e-4 0.7079163 8.8501e-4 0 0.7058869 0.2940369 0 0.2940369 0 0 0.7058869 8.69751e-4 0.2919464 0.9999848 0.2941284 0.999115 0.707962 0 0.7058869 0.999115 0.707962 0.7058411 1 0 0.7058869 0.7058411 1 0.2919617 0.9991303 0 0.7058869 0.9999848 0.2941284 0.7079163 8.8501e-4 0.2940369 0 0.9999848 0.2941284 0.2940369 0 8.69751e-4 0.2919464 0.9999848 0.2941284 8.69751e-4 0.2919464 0 0.7058869 0.9999848 0.2941284 0 0.7058869 0.2919617 0.9991303 0.9999848 0.2941284 0.2919617 0.9991303 0.7058411 1 0.9999848 0.2941284 0.7058411 1 0.999115 0.707962</float_array>
          <technique_common>
            <accessor source="#Mesh_009-mesh-map-0-array" count="84" stride="2">
              <param name="S" type="float"/>
              <param name="T" type="float"/>
            </accessor>
          </technique_common>
        </source>
        <source id="Mesh_009-mesh-colors-Attribute" name="Attribute">
          <float_array id="Mesh_009-mesh-colors-Attribute-array" count="336">0 0 0 0 0 0 0 0 0 0 0 0 0 0 0 0 0 0 0 0 0 0 0 0 0 0 0 0 0 0 0 0 0 0 0 0 0 0 0 0 0 0 0 0 0 0 0 0 0 0 0 0 0 0 0 0 0 0 0 0 0 0 0 0 0 0 0 0 0 0 0 0 0 0 0 0 0 0 0 0 0 0 0 0 0 0 0 0 0 0 0 0 0 0 0 0 0 0 0 0 0 0 0 0 0 0 0 0 0 0 0 0 0 0 0 0 0 0 0 0 0 0 0 0 0 0 0 0 0 0 0 0 0 0 0 0 0 0 0 0 0 0 0 0 0 0 0 0 0 0 0 0 0 0 0 0 0 0 0 0 0 0 0 0 0 0 0 0 0 0 0 0 0 0 0 0 0 0 0 0 0 0 0 0 0 0 0 0 0 0 0 0 0 0 0 0 0 0 0 0 0 0 0 0 0 0 0 0 0 0 0 0 0 0 0 0 0 0 0 0 0 0 0 0 0 0 0 0 0 0 0 0 0 0 0 0 0 0 0 0 0 0 0 0 0 0 0 0 0 0 0 0 0 0 0 0 0 0 0 0 0 0 0 0 0 0 0 0 0 0 0 0 0 0 0 0 0 0 0 0 0 0 0 0 0 0 0 0 0 0 0 0 0 0 0 0 0 0 0 0 0 0 0 0 0 0 0 0 0 0 0 0 0 0 0 0 0 0 0 0 0 0 0 0 0 0 0 0 0 0 0 0 0 0 0 0</float_array>
          <technique_common>
            <accessor source="#Mesh_009-mesh-colors-Attribute-array" count="84" stride="4">
              <param name="R" type="float"/>
              <param name="G" type="float"/>
              <param name="B" type="float"/>
              <param name="A" type="float"/>
            </accessor>
          </technique_common>
        </source>
        <vertices id="Mesh_009-mesh-vertices">
          <input semantic="POSITION" source="#Mesh_009-mesh-positions"/>
        </vertices>
        <triangles material="APCWHEEL-material" count="28">
          <input semantic="VERTEX" source="#Mesh_009-mesh-vertices" offset="0"/>
          <input semantic="NORMAL" source="#Mesh_009-mesh-normals" offset="1"/>
          <input semantic="TEXCOORD" source="#Mesh_009-mesh-map-0" offset="2" set="0"/>
          <input semantic="COLOR" source="#Mesh_009-mesh-colors-Attribute" offset="3" set="0"/>
          <p>0 0 0 0 1 1 1 1 2 2 2 2 3 3 3 3 4 4 4 4 5 5 5 5 6 6 6 6 7 7 7 7 8 8 8 8 6 6 9 9 8 8 10 10 4 4 11 11 7 7 12 12 0 0 13 13 2 2 14 14 7 7 15 15 2 2 16 16 8 8 17 17 0 0 18 18 9 9 19 19 1 1 20 20 3 3 21 21 6 6 22 22 4 4 23 23 9 9 24 24 10 10 25 25 1 1 26 26 9 9 27 27 11 11 28 28 10 10 29 29 11 11 30 30 12 12 31 31 13 13 32 32 11 11 33 33 13 13 34 34 10 10 35 35 12 12 36 36 14 14 37 37 15 15 38 38 12 12 39 39 15 15 40 40 13 13 41 41 14 14 42 42 3 3 43 43 5 5 44 44 14 14 45 45 5 5 46 46 15 15 47 47 13 16 48 48 8 17 49 49 10 18 50 50 10 18 51 51 8 17 52 52 1 19 53 53 1 19 54 54 8 17 55 55 2 20 56 56 13 16 57 57 15 21 58 58 8 17 59 59 15 21 60 60 5 22 61 61 8 17 62 62 5 22 63 63 4 23 64 64 8 17 65 65 12 24 66 66 11 25 67 67 9 26 68 68 12 24 69 69 9 26 70 70 0 27 71 71 12 24 72 72 0 27 73 73 7 28 74 74 12 24 75 75 7 28 76 76 6 29 77 77 12 24 78 78 6 29 79 79 3 30 80 80 12 24 81 81 3 30 82 82 14 31 83 83</p>
        </triangles>
      </mesh>
    </geometry>
    <geometry id="Mesh_008-mesh" name="Mesh.008">
      <mesh>
        <source id="Mesh_008-mesh-positions">
          <float_array id="Mesh_008-mesh-positions-array" count="48">0.04406732 0.1083984 -0.04518121 -0.04406738 0.04472351 -0.1085968 -0.04406738 0.1083984 -0.04518121 0.04406738 -0.04469299 0.1085968 -0.04406738 0.04518121 0.1083984 -0.04406732 -0.04469299 0.1085968 0.04406732 0.04518127 0.1083984 0.04406732 0.1085815 0.04470825 -0.04406738 0.1085815 0.04470825 0.04406732 0.04472351 -0.1085968 -0.04406732 -0.04515075 -0.1083984 0.04406738 -0.04515069 -0.1083984 0.04406738 -0.1085815 -0.04470825 -0.04406732 -0.1085815 -0.04470825 0.04406738 -0.1083831 0.04516595 -0.04406732 -0.1083832 0.04516595</float_array>
          <technique_common>
            <accessor source="#Mesh_008-mesh-positions-array" count="16" stride="3">
              <param name="X" type="float"/>
              <param name="Y" type="float"/>
              <param name="Z" type="float"/>
            </accessor>
          </technique_common>
        </source>
        <source id="Mesh_008-mesh-normals">
          <float_array id="Mesh_008-mesh-normals-array" count="96">0 0.8618517 -0.5071604 0 0.5036201 -0.8639253 0 0.9670071 -0.2547495 0 -0.250664 0.9680742 0 0.2548924 0.9669694 0 -0.5036208 0.8639249 0 0.5073871 0.8617184 -1.33515e-7 0.9680665 0.2506937 0 0.8639763 0.5035325 0 0.2506639 -0.9680742 0 -0.2548362 -0.9669843 0 -0.5072304 -0.8618106 0 -0.9680742 -0.2506642 0 -0.8639249 -0.5036209 0 -0.8618106 0.5072304 0 -0.9669844 0.254836 -1 0 0 -1 -1.52787e-7 0 -1 -1.31209e-7 0 -1 -1.96003e-7 0 -1 -1.63044e-7 0 -1 -1.38738e-7 0 -1 -1.67863e-7 0 -1 -1.6306e-7 0 1 1.56053e-7 0 1 1.6306e-7 0 1 1.67877e-7 0 1 1.51781e-7 0 1 1.19383e-7 0 1 1.31217e-7 0 1 1.96008e-7 0 1 1.6306e-7 0</float_array>
          <technique_common>
            <accessor source="#Mesh_008-mesh-normals-array" count="32" stride="3">
              <param name="X" type="float"/>
              <param name="Y" type="float"/>
              <param name="Z" type="float"/>
            </accessor>
          </technique_common>
        </source>
        <source id="Mesh_008-mesh-map-0">
          <float_array id="Mesh_008-mesh-map-0-array" count="168">8.69751e-4 0.2919464 0.2940369 0 8.69751e-4 0.2919464 0.7058411 1 0.2919617 0.9991303 0.7058411 1 0.2919617 0.9991303 0 0.7058869 0 0.7058869 0.2919617 0.9991303 0 0.7058869 0.2919617 0.9991303 0 0.7058869 8.69751e-4 0.2919464 8.69751e-4 0.2919464 0 0.7058869 8.69751e-4 0.2919464 0 0.7058869 8.69751e-4 0.2919464 0.2940369 0 0.2940369 0 0.7058411 1 0.2919617 0.9991303 0.2919617 0.9991303 0.2940369 0 0.7079163 8.8501e-4 0.2940369 0 0.2940369 0 0.7079163 8.8501e-4 0.7079163 8.8501e-4 0.7079163 8.8501e-4 0.9999848 0.2941284 0.9999848 0.2941284 0.7079163 8.8501e-4 0.9999848 0.2941284 0.7079163 8.8501e-4 0.9999848 0.2941284 0.999115 0.707962 0.999115 0.707962 0.9999848 0.2941284 0.999115 0.707962 0.9999848 0.2941284 0.999115 0.707962 0.7058411 1 0.7058411 1 0.999115 0.707962 0.7058411 1 0.999115 0.707962 0.9999848 0.2941284 0 0.7058869 0.7079163 8.8501e-4 0.7079163 8.8501e-4 0 0.7058869 0.2940369 0 0.2940369 0 0 0.7058869 8.69751e-4 0.2919464 0.9999848 0.2941284 0.999115 0.707962 0 0.7058869 0.999115 0.707962 0.7058411 1 0 0.7058869 0.7058411 1 0.2919617 0.9991303 0 0.7058869 0.9999848 0.2941284 0.7079163 8.8501e-4 0.2940369 0 0.9999848 0.2941284 0.2940369 0 8.69751e-4 0.2919464 0.9999848 0.2941284 8.69751e-4 0.2919464 0 0.7058869 0.9999848 0.2941284 0 0.7058869 0.2919617 0.9991303 0.9999848 0.2941284 0.2919617 0.9991303 0.7058411 1 0.9999848 0.2941284 0.7058411 1 0.999115 0.707962</float_array>
          <technique_common>
            <accessor source="#Mesh_008-mesh-map-0-array" count="84" stride="2">
              <param name="S" type="float"/>
              <param name="T" type="float"/>
            </accessor>
          </technique_common>
        </source>
        <source id="Mesh_008-mesh-colors-Attribute" name="Attribute">
          <float_array id="Mesh_008-mesh-colors-Attribute-array" count="336">0 0 0 0 0 0 0 0 0 0 0 0 0 0 0 0 0 0 0 0 0 0 0 0 0 0 0 0 0 0 0 0 0 0 0 0 0 0 0 0 0 0 0 0 0 0 0 0 0 0 0 0 0 0 0 0 0 0 0 0 0 0 0 0 0 0 0 0 0 0 0 0 0 0 0 0 0 0 0 0 0 0 0 0 0 0 0 0 0 0 0 0 0 0 0 0 0 0 0 0 0 0 0 0 0 0 0 0 0 0 0 0 0 0 0 0 0 0 0 0 0 0 0 0 0 0 0 0 0 0 0 0 0 0 0 0 0 0 0 0 0 0 0 0 0 0 0 0 0 0 0 0 0 0 0 0 0 0 0 0 0 0 0 0 0 0 0 0 0 0 0 0 0 0 0 0 0 0 0 0 0 0 0 0 0 0 0 0 0 0 0 0 0 0 0 0 0 0 0 0 0 0 0 0 0 0 0 0 0 0 0 0 0 0 0 0 0 0 0 0 0 0 0 0 0 0 0 0 0 0 0 0 0 0 0 0 0 0 0 0 0 0 0 0 0 0 0 0 0 0 0 0 0 0 0 0 0 0 0 0 0 0 0 0 0 0 0 0 0 0 0 0 0 0 0 0 0 0 0 0 0 0 0 0 0 0 0 0 0 0 0 0 0 0 0 0 0 0 0 0 0 0 0 0 0 0 0 0 0 0 0 0 0 0 0 0 0 0 0 0 0 0 0 0 0 0 0 0 0 0 0 0 0 0 0 0</float_array>
          <technique_common>
            <accessor source="#Mesh_008-mesh-colors-Attribute-array" count="84" stride="4">
              <param name="R" type="float"/>
              <param name="G" type="float"/>
              <param name="B" type="float"/>
              <param name="A" type="float"/>
            </accessor>
          </technique_common>
        </source>
        <vertices id="Mesh_008-mesh-vertices">
          <input semantic="POSITION" source="#Mesh_008-mesh-positions"/>
        </vertices>
        <triangles material="APCWHEEL-material" count="28">
          <input semantic="VERTEX" source="#Mesh_008-mesh-vertices" offset="0"/>
          <input semantic="NORMAL" source="#Mesh_008-mesh-normals" offset="1"/>
          <input semantic="TEXCOORD" source="#Mesh_008-mesh-map-0" offset="2" set="0"/>
          <input semantic="COLOR" source="#Mesh_008-mesh-colors-Attribute" offset="3" set="0"/>
          <p>0 0 0 0 1 1 1 1 2 2 2 2 3 3 3 3 4 4 4 4 5 5 5 5 6 6 6 6 7 7 7 7 8 8 8 8 6 6 9 9 8 8 10 10 4 4 11 11 7 7 12 12 0 0 13 13 2 2 14 14 7 7 15 15 2 2 16 16 8 8 17 17 0 0 18 18 9 9 19 19 1 1 20 20 3 3 21 21 6 6 22 22 4 4 23 23 9 9 24 24 10 10 25 25 1 1 26 26 9 9 27 27 11 11 28 28 10 10 29 29 11 11 30 30 12 12 31 31 13 13 32 32 11 11 33 33 13 13 34 34 10 10 35 35 12 12 36 36 14 14 37 37 15 15 38 38 12 12 39 39 15 15 40 40 13 13 41 41 14 14 42 42 3 3 43 43 5 5 44 44 14 14 45 45 5 5 46 46 15 15 47 47 13 16 48 48 8 17 49 49 10 18 50 50 10 18 51 51 8 17 52 52 1 19 53 53 1 19 54 54 8 17 55 55 2 20 56 56 13 16 57 57 15 21 58 58 8 17 59 59 15 21 60 60 5 22 61 61 8 17 62 62 5 22 63 63 4 23 64 64 8 17 65 65 12 24 66 66 11 25 67 67 9 26 68 68 12 24 69 69 9 26 70 70 0 27 71 71 12 24 72 72 0 27 73 73 7 28 74 74 12 24 75 75 7 28 76 76 6 29 77 77 12 24 78 78 6 29 79 79 3 30 80 80 12 24 81 81 3 30 82 82 14 31 83 83</p>
        </triangles>
      </mesh>
    </geometry>
    <geometry id="Mesh_007-mesh" name="Mesh.007">
      <mesh>
        <source id="Mesh_007-mesh-positions">
          <float_array id="Mesh_007-mesh-positions-array" count="48">0.04406732 0.1083984 -0.04518121 -0.04406738 0.04472351 -0.1085968 -0.04406738 0.1083984 -0.04518121 0.04406738 -0.04469299 0.1085968 -0.04406738 0.04518121 0.1083984 -0.04406732 -0.04469299 0.1085968 0.04406732 0.04518127 0.1083984 0.04406732 0.1085815 0.04470825 -0.04406738 0.1085815 0.04470825 0.04406732 0.04472351 -0.1085968 -0.04406732 -0.04515075 -0.1083984 0.04406738 -0.04515069 -0.1083984 0.04406738 -0.1085815 -0.04470825 -0.04406732 -0.1085815 -0.04470825 0.04406738 -0.1083831 0.04516595 -0.04406732 -0.1083832 0.04516595</float_array>
          <technique_common>
            <accessor source="#Mesh_007-mesh-positions-array" count="16" stride="3">
              <param name="X" type="float"/>
              <param name="Y" type="float"/>
              <param name="Z" type="float"/>
            </accessor>
          </technique_common>
        </source>
        <source id="Mesh_007-mesh-normals">
          <float_array id="Mesh_007-mesh-normals-array" count="96">0 0.8618517 -0.5071604 0 0.5036201 -0.8639253 0 0.9670071 -0.2547495 0 -0.250664 0.9680742 0 0.2548924 0.9669694 0 -0.5036208 0.8639249 0 0.5073871 0.8617184 -1.33515e-7 0.9680665 0.2506937 0 0.8639763 0.5035325 0 0.2506639 -0.9680742 0 -0.2548362 -0.9669843 0 -0.5072304 -0.8618106 0 -0.9680742 -0.2506642 0 -0.8639249 -0.5036209 0 -0.8618106 0.5072304 0 -0.9669844 0.254836 -1 0 0 -1 -1.52787e-7 0 -1 -1.31209e-7 0 -1 -1.96003e-7 0 -1 -1.63044e-7 0 -1 -1.38738e-7 0 -1 -1.67863e-7 0 -1 -1.6306e-7 0 1 1.56053e-7 0 1 1.6306e-7 0 1 1.67877e-7 0 1 1.51781e-7 0 1 1.19383e-7 0 1 1.31217e-7 0 1 1.96008e-7 0 1 1.6306e-7 0</float_array>
          <technique_common>
            <accessor source="#Mesh_007-mesh-normals-array" count="32" stride="3">
              <param name="X" type="float"/>
              <param name="Y" type="float"/>
              <param name="Z" type="float"/>
            </accessor>
          </technique_common>
        </source>
        <source id="Mesh_007-mesh-map-0">
          <float_array id="Mesh_007-mesh-map-0-array" count="168">8.69751e-4 0.2919464 0.2940369 0 8.69751e-4 0.2919464 0.7058411 1 0.2919617 0.9991303 0.7058411 1 0.2919617 0.9991303 0 0.7058869 0 0.7058869 0.2919617 0.9991303 0 0.7058869 0.2919617 0.9991303 0 0.7058869 8.69751e-4 0.2919464 8.69751e-4 0.2919464 0 0.7058869 8.69751e-4 0.2919464 0 0.7058869 8.69751e-4 0.2919464 0.2940369 0 0.2940369 0 0.7058411 1 0.2919617 0.9991303 0.2919617 0.9991303 0.2940369 0 0.7079163 8.8501e-4 0.2940369 0 0.2940369 0 0.7079163 8.8501e-4 0.7079163 8.8501e-4 0.7079163 8.8501e-4 0.9999848 0.2941284 0.9999848 0.2941284 0.7079163 8.8501e-4 0.9999848 0.2941284 0.7079163 8.8501e-4 0.9999848 0.2941284 0.999115 0.707962 0.999115 0.707962 0.9999848 0.2941284 0.999115 0.707962 0.9999848 0.2941284 0.999115 0.707962 0.7058411 1 0.7058411 1 0.999115 0.707962 0.7058411 1 0.999115 0.707962 0.9999848 0.2941284 0 0.7058869 0.7079163 8.8501e-4 0.7079163 8.8501e-4 0 0.7058869 0.2940369 0 0.2940369 0 0 0.7058869 8.69751e-4 0.2919464 0.9999848 0.2941284 0.999115 0.707962 0 0.7058869 0.999115 0.707962 0.7058411 1 0 0.7058869 0.7058411 1 0.2919617 0.9991303 0 0.7058869 0.9999848 0.2941284 0.7079163 8.8501e-4 0.2940369 0 0.9999848 0.2941284 0.2940369 0 8.69751e-4 0.2919464 0.9999848 0.2941284 8.69751e-4 0.2919464 0 0.7058869 0.9999848 0.2941284 0 0.7058869 0.2919617 0.9991303 0.9999848 0.2941284 0.2919617 0.9991303 0.7058411 1 0.9999848 0.2941284 0.7058411 1 0.999115 0.707962</float_array>
          <technique_common>
            <accessor source="#Mesh_007-mesh-map-0-array" count="84" stride="2">
              <param name="S" type="float"/>
              <param name="T" type="float"/>
            </accessor>
          </technique_common>
        </source>
        <source id="Mesh_007-mesh-colors-Attribute" name="Attribute">
          <float_array id="Mesh_007-mesh-colors-Attribute-array" count="336">0 0 0 0 0 0 0 0 0 0 0 0 0 0 0 0 0 0 0 0 0 0 0 0 0 0 0 0 0 0 0 0 0 0 0 0 0 0 0 0 0 0 0 0 0 0 0 0 0 0 0 0 0 0 0 0 0 0 0 0 0 0 0 0 0 0 0 0 0 0 0 0 0 0 0 0 0 0 0 0 0 0 0 0 0 0 0 0 0 0 0 0 0 0 0 0 0 0 0 0 0 0 0 0 0 0 0 0 0 0 0 0 0 0 0 0 0 0 0 0 0 0 0 0 0 0 0 0 0 0 0 0 0 0 0 0 0 0 0 0 0 0 0 0 0 0 0 0 0 0 0 0 0 0 0 0 0 0 0 0 0 0 0 0 0 0 0 0 0 0 0 0 0 0 0 0 0 0 0 0 0 0 0 0 0 0 0 0 0 0 0 0 0 0 0 0 0 0 0 0 0 0 0 0 0 0 0 0 0 0 0 0 0 0 0 0 0 0 0 0 0 0 0 0 0 0 0 0 0 0 0 0 0 0 0 0 0 0 0 0 0 0 0 0 0 0 0 0 0 0 0 0 0 0 0 0 0 0 0 0 0 0 0 0 0 0 0 0 0 0 0 0 0 0 0 0 0 0 0 0 0 0 0 0 0 0 0 0 0 0 0 0 0 0 0 0 0 0 0 0 0 0 0 0 0 0 0 0 0 0 0 0 0 0 0 0 0 0 0 0 0 0 0 0 0 0 0 0 0 0 0 0 0 0 0 0</float_array>
          <technique_common>
            <accessor source="#Mesh_007-mesh-colors-Attribute-array" count="84" stride="4">
              <param name="R" type="float"/>
              <param name="G" type="float"/>
              <param name="B" type="float"/>
              <param name="A" type="float"/>
            </accessor>
          </technique_common>
        </source>
        <vertices id="Mesh_007-mesh-vertices">
          <input semantic="POSITION" source="#Mesh_007-mesh-positions"/>
        </vertices>
        <triangles material="APCWHEEL-material" count="28">
          <input semantic="VERTEX" source="#Mesh_007-mesh-vertices" offset="0"/>
          <input semantic="NORMAL" source="#Mesh_007-mesh-normals" offset="1"/>
          <input semantic="TEXCOORD" source="#Mesh_007-mesh-map-0" offset="2" set="0"/>
          <input semantic="COLOR" source="#Mesh_007-mesh-colors-Attribute" offset="3" set="0"/>
          <p>0 0 0 0 1 1 1 1 2 2 2 2 3 3 3 3 4 4 4 4 5 5 5 5 6 6 6 6 7 7 7 7 8 8 8 8 6 6 9 9 8 8 10 10 4 4 11 11 7 7 12 12 0 0 13 13 2 2 14 14 7 7 15 15 2 2 16 16 8 8 17 17 0 0 18 18 9 9 19 19 1 1 20 20 3 3 21 21 6 6 22 22 4 4 23 23 9 9 24 24 10 10 25 25 1 1 26 26 9 9 27 27 11 11 28 28 10 10 29 29 11 11 30 30 12 12 31 31 13 13 32 32 11 11 33 33 13 13 34 34 10 10 35 35 12 12 36 36 14 14 37 37 15 15 38 38 12 12 39 39 15 15 40 40 13 13 41 41 14 14 42 42 3 3 43 43 5 5 44 44 14 14 45 45 5 5 46 46 15 15 47 47 13 16 48 48 8 17 49 49 10 18 50 50 10 18 51 51 8 17 52 52 1 19 53 53 1 19 54 54 8 17 55 55 2 20 56 56 13 16 57 57 15 21 58 58 8 17 59 59 15 21 60 60 5 22 61 61 8 17 62 62 5 22 63 63 4 23 64 64 8 17 65 65 12 24 66 66 11 25 67 67 9 26 68 68 12 24 69 69 9 26 70 70 0 27 71 71 12 24 72 72 0 27 73 73 7 28 74 74 12 24 75 75 7 28 76 76 6 29 77 77 12 24 78 78 6 29 79 79 3 30 80 80 12 24 81 81 3 30 82 82 14 31 83 83</p>
        </triangles>
      </mesh>
    </geometry>
    <geometry id="Mesh_006-mesh" name="Mesh.006">
      <mesh>
        <source id="Mesh_006-mesh-positions">
          <float_array id="Mesh_006-mesh-positions-array" count="48">0.04406732 0.1083984 -0.04518121 -0.04406738 0.04472398 -0.1085969 -0.04406738 0.1083984 -0.04518121 0.04406738 -0.04469299 0.1085968 -0.04406738 0.04518121 0.1083984 -0.04406732 -0.04469299 0.1085968 0.04406732 0.04518127 0.1083984 0.04406732 0.1085815 0.04470825 -0.04406738 0.1085815 0.04470825 0.04406732 0.04472351 -0.1085968 -0.04406732 -0.04515075 -0.1083984 0.04406738 -0.04515069 -0.1083984 0.04406738 -0.1085815 -0.04470825 -0.04406732 -0.1085815 -0.04470825 0.04406738 -0.1083831 0.04516595 -0.04406732 -0.1083832 0.04516595</float_array>
          <technique_common>
            <accessor source="#Mesh_006-mesh-positions-array" count="16" stride="3">
              <param name="X" type="float"/>
              <param name="Y" type="float"/>
              <param name="Z" type="float"/>
            </accessor>
          </technique_common>
        </source>
        <source id="Mesh_006-mesh-normals">
          <float_array id="Mesh_006-mesh-normals-array" count="96">1.40343e-6 0.8618524 -0.5071594 2.52922e-6 0.5036213 -0.8639246 0 0.9670077 -0.2547472 0 -0.250664 0.9680742 0 0.2548924 0.9669694 0 -0.5036208 0.8639249 0 0.5073871 0.8617184 -1.33515e-7 0.9680665 0.2506937 0 0.8639763 0.5035325 3.49606e-6 0.2506624 -0.9680746 5.19838e-7 -0.2548367 -0.9669842 0 -0.5072304 -0.8618106 0 -0.9680742 -0.2506642 0 -0.8639249 -0.5036209 0 -0.8618106 0.5072304 0 -0.9669844 0.254836 -1 0 0 -1 -1.52787e-7 0 -1 -1.31209e-7 0 -1 -1.96002e-7 0 -1 -1.63045e-7 0 -1 -1.38738e-7 0 -1 -1.67863e-7 0 -1 -1.6306e-7 0 1 1.56053e-7 0 1 1.6306e-7 0 1 1.67877e-7 0 1 1.51781e-7 0 1 1.19383e-7 0 1 1.31217e-7 0 1 1.96008e-7 0 1 1.6306e-7 0</float_array>
          <technique_common>
            <accessor source="#Mesh_006-mesh-normals-array" count="32" stride="3">
              <param name="X" type="float"/>
              <param name="Y" type="float"/>
              <param name="Z" type="float"/>
            </accessor>
          </technique_common>
        </source>
        <source id="Mesh_006-mesh-map-0">
          <float_array id="Mesh_006-mesh-map-0-array" count="168">8.69751e-4 0.2919464 0.2940369 0 8.69751e-4 0.2919464 0.7058411 1 0.2919617 0.9991303 0.7058411 1 0.2919617 0.9991303 0 0.7058869 0 0.7058869 0.2919617 0.9991303 0 0.7058869 0.2919617 0.9991303 0 0.7058869 8.69751e-4 0.2919464 8.69751e-4 0.2919464 0 0.7058869 8.69751e-4 0.2919464 0 0.7058869 8.69751e-4 0.2919464 0.2940369 0 0.2940369 0 0.7058411 1 0.2919617 0.9991303 0.2919617 0.9991303 0.2940369 0 0.7079163 8.8501e-4 0.2940369 0 0.2940369 0 0.7079163 8.8501e-4 0.7079163 8.8501e-4 0.7079163 8.8501e-4 0.9999848 0.2941284 0.9999848 0.2941284 0.7079163 8.8501e-4 0.9999848 0.2941284 0.7079163 8.8501e-4 0.9999848 0.2941284 0.999115 0.707962 0.999115 0.707962 0.9999848 0.2941284 0.999115 0.707962 0.9999848 0.2941284 0.999115 0.707962 0.7058411 1 0.7058411 1 0.999115 0.707962 0.7058411 1 0.999115 0.707962 0.9999848 0.2941284 0 0.7058869 0.7079163 8.8501e-4 0.7079163 8.8501e-4 0 0.7058869 0.2940369 0 0.2940369 0 0 0.7058869 8.69751e-4 0.2919464 0.9999848 0.2941284 0.999115 0.707962 0 0.7058869 0.999115 0.707962 0.7058411 1 0 0.7058869 0.7058411 1 0.2919617 0.9991303 0 0.7058869 0.9999848 0.2941284 0.7079163 8.8501e-4 0.2940369 0 0.9999848 0.2941284 0.2940369 0 8.69751e-4 0.2919464 0.9999848 0.2941284 8.69751e-4 0.2919464 0 0.7058869 0.9999848 0.2941284 0 0.7058869 0.2919617 0.9991303 0.9999848 0.2941284 0.2919617 0.9991303 0.7058411 1 0.9999848 0.2941284 0.7058411 1 0.999115 0.707962</float_array>
          <technique_common>
            <accessor source="#Mesh_006-mesh-map-0-array" count="84" stride="2">
              <param name="S" type="float"/>
              <param name="T" type="float"/>
            </accessor>
          </technique_common>
        </source>
        <source id="Mesh_006-mesh-colors-Attribute" name="Attribute">
          <float_array id="Mesh_006-mesh-colors-Attribute-array" count="336">0 0 0 0 0 0 0 0 0 0 0 0 0 0 0 0 0 0 0 0 0 0 0 0 0 0 0 0 0 0 0 0 0 0 0 0 0 0 0 0 0 0 0 0 0 0 0 0 0 0 0 0 0 0 0 0 0 0 0 0 0 0 0 0 0 0 0 0 0 0 0 0 0 0 0 0 0 0 0 0 0 0 0 0 0 0 0 0 0 0 0 0 0 0 0 0 0 0 0 0 0 0 0 0 0 0 0 0 0 0 0 0 0 0 0 0 0 0 0 0 0 0 0 0 0 0 0 0 0 0 0 0 0 0 0 0 0 0 0 0 0 0 0 0 0 0 0 0 0 0 0 0 0 0 0 0 0 0 0 0 0 0 0 0 0 0 0 0 0 0 0 0 0 0 0 0 0 0 0 0 0 0 0 0 0 0 0 0 0 0 0 0 0 0 0 0 0 0 0 0 0 0 0 0 0 0 0 0 0 0 0 0 0 0 0 0 0 0 0 0 0 0 0 0 0 0 0 0 0 0 0 0 0 0 0 0 0 0 0 0 0 0 0 0 0 0 0 0 0 0 0 0 0 0 0 0 0 0 0 0 0 0 0 0 0 0 0 0 0 0 0 0 0 0 0 0 0 0 0 0 0 0 0 0 0 0 0 0 0 0 0 0 0 0 0 0 0 0 0 0 0 0 0 0 0 0 0 0 0 0 0 0 0 0 0 0 0 0 0 0 0 0 0 0 0 0 0 0 0 0 0 0 0 0 0 0</float_array>
          <technique_common>
            <accessor source="#Mesh_006-mesh-colors-Attribute-array" count="84" stride="4">
              <param name="R" type="float"/>
              <param name="G" type="float"/>
              <param name="B" type="float"/>
              <param name="A" type="float"/>
            </accessor>
          </technique_common>
        </source>
        <vertices id="Mesh_006-mesh-vertices">
          <input semantic="POSITION" source="#Mesh_006-mesh-positions"/>
        </vertices>
        <triangles material="APCWHEEL-material" count="28">
          <input semantic="VERTEX" source="#Mesh_006-mesh-vertices" offset="0"/>
          <input semantic="NORMAL" source="#Mesh_006-mesh-normals" offset="1"/>
          <input semantic="TEXCOORD" source="#Mesh_006-mesh-map-0" offset="2" set="0"/>
          <input semantic="COLOR" source="#Mesh_006-mesh-colors-Attribute" offset="3" set="0"/>
          <p>0 0 0 0 1 1 1 1 2 2 2 2 3 3 3 3 4 4 4 4 5 5 5 5 6 6 6 6 7 7 7 7 8 8 8 8 6 6 9 9 8 8 10 10 4 4 11 11 7 7 12 12 0 0 13 13 2 2 14 14 7 7 15 15 2 2 16 16 8 8 17 17 0 0 18 18 9 9 19 19 1 1 20 20 3 3 21 21 6 6 22 22 4 4 23 23 9 9 24 24 10 10 25 25 1 1 26 26 9 9 27 27 11 11 28 28 10 10 29 29 11 11 30 30 12 12 31 31 13 13 32 32 11 11 33 33 13 13 34 34 10 10 35 35 12 12 36 36 14 14 37 37 15 15 38 38 12 12 39 39 15 15 40 40 13 13 41 41 14 14 42 42 3 3 43 43 5 5 44 44 14 14 45 45 5 5 46 46 15 15 47 47 13 16 48 48 8 17 49 49 10 18 50 50 10 18 51 51 8 17 52 52 1 19 53 53 1 19 54 54 8 17 55 55 2 20 56 56 13 16 57 57 15 21 58 58 8 17 59 59 15 21 60 60 5 22 61 61 8 17 62 62 5 22 63 63 4 23 64 64 8 17 65 65 12 24 66 66 11 25 67 67 9 26 68 68 12 24 69 69 9 26 70 70 0 27 71 71 12 24 72 72 0 27 73 73 7 28 74 74 12 24 75 75 7 28 76 76 6 29 77 77 12 24 78 78 6 29 79 79 3 30 80 80 12 24 81 81 3 30 82 82 14 31 83 83</p>
        </triangles>
      </mesh>
    </geometry>
  </library_geometries>
  <library_visual_scenes>
    <visual_scene id="Scene" name="Scene">
      <node id="APC_DAT" name="APC.DAT" type="NODE">
        <matrix sid="transform">1 0 0 0 0 1 0 0 0 0 1 0 0 0 0 1</matrix>
        <instance_geometry url="#Mesh_005-mesh" name="APC.DAT">
          <bind_material>
            <technique_common>
              <instance_material symbol="ANUNDER-material" target="#ANUNDER-material">
                <bind_vertex_input semantic="map1" input_semantic="TEXCOORD" input_set="0"/>
              </instance_material>
              <instance_material symbol="GUNLSIDE-material" target="#GUNLSIDE-material">
                <bind_vertex_input semantic="map1" input_semantic="TEXCOORD" input_set="0"/>
              </instance_material>
              <instance_material symbol="UNDRWING-material" target="#UNDRWING-material">
                <bind_vertex_input semantic="map1" input_semantic="TEXCOORD" input_set="0"/>
              </instance_material>
              <instance_material symbol="XAPCCAB-material" target="#XAPCCAB-material">
                <bind_vertex_input semantic="map1" input_semantic="TEXCOORD" input_set="0"/>
              </instance_material>
              <instance_material symbol="XAPCLSID-material" target="#XAPCLSID-material">
                <bind_vertex_input semantic="map1" input_semantic="TEXCOORD" input_set="0"/>
              </instance_material>
              <instance_material symbol="XAPCNOSE-material" target="#XAPCNOSE-material">
                <bind_vertex_input semantic="map1" input_semantic="TEXCOORD" input_set="0"/>
              </instance_material>
              <instance_material symbol="XAPCSIDE-material" target="#XAPCSIDE-material">
                <bind_vertex_input semantic="map1" input_semantic="TEXCOORD" input_set="0"/>
              </instance_material>
              <instance_material symbol="XAPCTAIL-material" target="#XAPCTAIL-material">
                <bind_vertex_input semantic="map1" input_semantic="TEXCOORD" input_set="0"/>
              </instance_material>
              <instance_material symbol="XAPCTOP-material" target="#XAPCTOP-material">
                <bind_vertex_input semantic="map1" input_semantic="TEXCOORD" input_set="0"/>
              </instance_material>
              <instance_material symbol="XGNBAREL-material" target="#XGNBAREL-material">
                <bind_vertex_input semantic="map1" input_semantic="TEXCOORD" input_set="0"/>
              </instance_material>
              <instance_material symbol="XGUNBAK-material" target="#XGUNBAK-material">
                <bind_vertex_input semantic="map1" input_semantic="TEXCOORD" input_set="0"/>
              </instance_material>
              <instance_material symbol="XGUNSID-material" target="#XGUNSID-material">
                <bind_vertex_input semantic="map1" input_semantic="TEXCOORD" input_set="0"/>
              </instance_material>
              <instance_material symbol="XMUZZLE-material" target="#XMUZZLE-material">
                <bind_vertex_input semantic="map1" input_semantic="TEXCOORD" input_set="0"/>
              </instance_material>
            </technique_common>
          </bind_material>
        </instance_geometry>
        <node id="FRPIVOT_ACT" name="FRPIVOT.ACT" type="NODE">
          <matrix sid="transform">1 0 0 -0.151 0 1 0 -0.234 0 0 1 0.108597 0 0 0 1</matrix>
          <node id="Apwheel_dat" name="Apwheel.dat" type="NODE">
            <matrix sid="transform">1 0 0 0 0 1 0 0 0 0 1 0 0 0 0 1</matrix>
            <instance_geometry url="#Mesh_006-mesh" name="Apwheel.dat">
              <bind_material>
                <technique_common>
                  <instance_material symbol="APCWHEEL-material" target="#APCWHEEL-material">
                    <bind_vertex_input semantic="map1" input_semantic="TEXCOORD" input_set="0"/>
                  </instance_material>
                </technique_common>
              </bind_material>
            </instance_geometry>
          </node>
        </node>
        <node id="FLPIVOT_ACT" name="FLPIVOT.ACT" type="NODE">
          <matrix sid="transform">1 0 0 0.151 0 1 0 -0.234 0 0 1 0.108597 0 0 0 1</matrix>
          <node id="Apwheel_dat_001" name="Apwheel.dat.001" type="NODE">
            <matrix sid="transform">1 0 0 0 0 1 0 0 0 0 1 0 0 0 0 1</matrix>
            <instance_geometry url="#Mesh_007-mesh" name="Apwheel.dat.001">
              <bind_material>
                <technique_common>
                  <instance_material symbol="APCWHEEL-material" target="#APCWHEEL-material">
                    <bind_vertex_input semantic="map1" input_semantic="TEXCOORD" input_set="0"/>
                  </instance_material>
                </technique_common>
              </bind_material>
            </instance_geometry>
          </node>
        </node>
        <node id="Apwheel_dat_002" name="Apwheel.dat.002" type="NODE">
          <matrix sid="transform">1 0 0 -0.151 0 1 0 0.277 0 0 1 0.108597 0 0 0 1</matrix>
          <instance_geometry url="#Mesh_008-mesh" name="Apwheel.dat.002">
            <bind_material>
              <technique_common>
                <instance_material symbol="APCWHEEL-material" target="#APCWHEEL-material">
                  <bind_vertex_input semantic="map1" input_semantic="TEXCOORD" input_set="0"/>
                </instance_material>
              </technique_common>
            </bind_material>
          </instance_geometry>
        </node>
        <node id="Apwheel_dat_003" name="Apwheel.dat.003" type="NODE">
          <matrix sid="transform">1 0 0 0.151 0 1 0 0.277 0 0 1 0.108597 0 0 0 1</matrix>
          <instance_geometry url="#Mesh_009-mesh" name="Apwheel.dat.003">
            <bind_material>
              <technique_common>
                <instance_material symbol="APCWHEEL-material" target="#APCWHEEL-material">
                  <bind_vertex_input semantic="map1" input_semantic="TEXCOORD" input_set="0"/>
                </instance_material>
              </technique_common>
            </bind_material>
          </instance_geometry>
        </node>
      </node>
    </visual_scene>
  </library_visual_scenes>
  <scene>
    <instance_visual_scene url="#Scene"/>
  </scene>
</COLLADA>